<svg width="48" height="48" viewBox="0 0 48 48" fill="none" xmlns="http://www.w3.org/2000/svg">
<g clip-path="url(#clip0_1048_255)">
<path d="M46.2266 26.064C45.3313 25.1706 44.1181 24.6688 42.8532 24.6688C41.5883 24.6688 40.3751 25.1706 39.4797 26.064L34.1166 31.4272C34.0269 30.3244 33.526 29.2956 32.7131 28.545C31.9002 27.7944 30.8349 27.3768 29.7284 27.375H14.1889C12.9899 27.3717 11.8022 27.6063 10.6945 28.0652C9.58677 28.5241 8.5811 29.1981 7.7357 30.0484L0.704581 37.0796C0.600094 37.1841 0.517208 37.3081 0.460657 37.4445C0.404107 37.581 0.375 37.7273 0.375 37.875C0.375 38.0228 0.404107 38.169 0.460657 38.3055C0.517208 38.442 0.600094 38.566 0.704581 38.6704L9.32942 47.2954C9.43386 47.3999 9.55786 47.4828 9.69433 47.5394C9.83081 47.5959 9.97709 47.625 10.1248 47.625H11.6248C11.7725 47.625 11.9188 47.5959 12.0553 47.5394C12.1918 47.4828 12.3158 47.3999 12.4202 47.2954L14.153 45.5625H29.4018C30.6938 45.5661 31.9738 45.3134 33.1675 44.8189C34.3612 44.3245 35.4449 43.5981 36.356 42.6819L46.2266 32.8111C46.6699 32.3682 47.0216 31.8423 47.2616 31.2635C47.5015 30.6846 47.625 30.0642 47.625 29.4375C47.625 28.8109 47.5015 28.1905 47.2616 27.6116C47.0216 27.0328 46.6699 26.5069 46.2266 26.064ZM44.6359 31.2203L34.7652 41.0911C34.0625 41.7976 33.2266 42.3577 32.306 42.739C31.3854 43.1203 30.3982 43.3153 29.4018 43.3125H13.6872C13.5395 43.3125 13.3932 43.3417 13.2568 43.3982C13.1203 43.4548 12.9963 43.5376 12.8919 43.6421L11.159 45.375H10.5906L3.09075 37.875L9.32647 31.6392C9.96353 30.9986 10.7213 30.4908 11.556 30.1451C12.3906 29.7993 13.2855 29.6226 14.1889 29.625H29.7284C30.3003 29.625 30.8488 29.8522 31.2531 30.2566C31.6575 30.661 31.8847 31.2094 31.8847 31.7813C31.8847 32.3531 31.6575 32.9016 31.2531 33.306C30.8488 33.7104 30.3003 33.9375 29.7284 33.9375H22.3223C22.024 33.9375 21.7378 34.0561 21.5268 34.267C21.3159 34.478 21.1973 34.7642 21.1973 35.0625C21.1973 35.3609 21.3159 35.647 21.5268 35.858C21.7378 36.069 22.024 36.1875 22.3223 36.1875H32.0721C32.3705 36.1874 32.6566 36.0689 32.8675 35.8579L41.0705 27.6548C41.5433 27.182 42.1846 26.9164 42.8532 26.9164C43.5218 26.9164 44.1631 27.182 44.6359 27.6548C45.1087 28.1277 45.3743 28.7689 45.3743 29.4375C45.3743 30.1062 45.1087 30.7474 44.6359 31.2202L44.6359 31.2203Z" fill="#0E0E0E"/>
<path d="M9.27273 0C7.47851 0 6 1.47851 6 3.27273V14.1818V20.7273C5.99991 20.9328 6.0579 21.1342 6.16729 21.3083C6.27668 21.4823 6.43301 21.6219 6.61828 21.711C6.80355 21.8001 7.01021 21.835 7.21446 21.8117C7.4187 21.7885 7.61223 21.708 7.77273 21.5795L12.929 17.4545H14.7273V20.7273C14.7273 22.4907 16.1218 24 17.8849 24H29.8871L34.7514 28.1058C34.9103 28.2397 35.1041 28.3254 35.3101 28.3529C35.516 28.3804 35.7255 28.3485 35.9139 28.261C36.1024 28.1735 36.2619 28.034 36.3738 27.859C36.4857 27.6839 36.5452 27.4805 36.5455 27.2727V20.7273V9.81818C36.5455 8.05478 35.1509 6.54545 33.3878 6.54545H28.9091V3.27273C28.9091 1.47851 27.4306 0 25.6364 0H9.27273ZM9.27273 2.18182H25.6364C26.2596 2.18182 26.7273 2.6495 26.7273 3.27273V14.1818C26.7273 14.805 26.2596 15.2727 25.6364 15.2727H12.5455C12.2977 15.2725 12.0572 15.3567 11.8636 15.5114L8.18182 18.456V14.1818V3.27273C8.18182 2.6495 8.64949 2.18182 9.27273 2.18182ZM28.9091 8.72727H33.3878C33.9149 8.72727 34.3636 9.16414 34.3636 9.81818V20.7273V24.9247L30.9908 22.076C30.7942 21.9098 30.5451 21.8185 30.2876 21.8182H17.8849C17.3578 21.8182 16.9091 21.3813 16.9091 20.7273V17.4545H25.6364C27.4306 17.4545 28.9091 15.976 28.9091 14.1818V8.72727Z" fill="#F5CB00"/>
<path d="M12.544 5.45453C12.2547 5.45453 11.9772 5.56946 11.7727 5.77405C11.5681 5.97863 11.4531 6.25611 11.4531 6.54544C11.4531 6.83477 11.5681 7.11224 11.7727 7.31683C11.9772 7.52141 12.2547 7.63635 12.544 7.63635H22.3622C22.6515 7.63635 22.929 7.52141 23.1336 7.31683C23.3382 7.11224 23.4531 6.83477 23.4531 6.54544C23.4531 6.25611 23.3382 5.97863 23.1336 5.77405C22.929 5.56946 22.6515 5.45453 22.3622 5.45453H12.544Z" fill="#F5CB00"/>
<path d="M12.544 9.81818C12.2547 9.81818 11.9772 9.93311 11.7727 10.1377C11.5681 10.3423 11.4531 10.6198 11.4531 10.9091C11.4531 11.1984 11.5681 11.4759 11.7727 11.6805C11.9772 11.8851 12.2547 12 12.544 12H22.3622C22.6515 12 22.929 11.8851 23.1336 11.6805C23.3382 11.4759 23.4531 11.1984 23.4531 10.9091C23.4531 10.6198 23.3382 10.3423 23.1336 10.1377C22.929 9.93311 22.6515 9.81818 22.3622 9.81818H12.544Z" fill="#F5CB00"/>
</g>
<defs>
<clipPath id="clip0_1048_255">
<rect width="48" height="48" fill="white"/>
</clipPath>
</defs>
</svg>
