<svg width="168" height="51" viewBox="0 0 168 51" fill="none" xmlns="http://www.w3.org/2000/svg">
<path d="M164.257 1.5H3.74303C2.2281 1.5 1 2.72802 1 4.24286V46.7571C1 48.272 2.2281 49.5 3.74303 49.5H164.257C165.772 49.5 167 48.272 167 46.7571V4.24286C167 2.72802 165.772 1.5 164.257 1.5Z" stroke="white" stroke-width="2"/>
<path d="M39.9546 24.3464C39.9229 20.5495 43.0649 18.6987 43.2111 18.6161C41.4302 16.0212 38.6699 15.665 37.6967 15.6396C35.3752 15.3979 33.13 17.0261 31.947 17.0261C30.7448 17.0261 28.9257 15.665 26.9604 15.7032C24.4353 15.7413 22.0756 17.2042 20.7845 19.4683C18.1131 24.092 20.1039 30.8844 22.6672 34.6241C23.9455 36.4558 25.4403 38.4974 27.3993 38.4274C29.3137 38.351 30.0325 37.2062 32.3413 37.2062C34.631 37.2062 35.3052 38.4274 37.3024 38.3829C39.3568 38.351 40.6543 36.5448 41.8882 34.7004C43.3702 32.6017 43.9617 30.5347 43.9872 30.4329C43.9363 30.4011 39.9928 28.8938 39.9546 24.3464ZM36.183 13.1783C37.2133 11.8872 37.9193 10.1382 37.7221 8.35742C36.2338 8.42099 34.3638 9.38771 33.2953 10.647C32.3477 11.76 31.4953 13.5789 31.718 15.2898C33.3844 15.4106 35.108 14.4439 36.183 13.1783Z" fill="white"/>
<path d="M67.6979 38.1538H65.0202L63.5509 33.5492H58.4562L57.057 38.1538H54.4492L59.4993 22.4701H62.6159L67.6979 38.1538ZM63.1121 31.6157L61.7827 27.52C61.6428 27.1002 61.3756 26.1144 60.994 24.5626H60.9495C60.7969 25.2304 60.5424 26.2162 60.2053 27.52L58.9015 31.6157H63.1121ZM80.6607 32.3599C80.6607 34.2806 80.1388 35.8007 79.0958 36.92C78.1604 37.9122 76.9967 38.4082 75.6101 38.4082C74.1089 38.4082 73.0343 37.874 72.3795 36.8055V42.7394H69.8668V30.56C69.8668 29.3517 69.8353 28.1114 69.7715 26.8458H71.9845L72.125 28.6393H72.1689C73.009 27.291 74.2811 26.6104 75.9852 26.6104C77.321 26.6104 78.434 27.1384 79.3248 28.1941C80.2149 29.2499 80.6607 30.6427 80.6607 32.3599ZM78.1035 32.4553C78.1035 31.355 77.8552 30.4456 77.3594 29.7333C76.8184 28.9891 76.0873 28.6202 75.1712 28.6202C74.5547 28.6202 73.9882 28.8301 73.4856 29.2371C72.9836 29.6506 72.6524 30.1912 72.5001 30.8525C72.4302 31.1006 72.3918 31.3613 72.3856 31.6157V33.5047C72.3856 34.3251 72.64 35.0183 73.1427 35.5908C73.6447 36.1568 74.3003 36.443 75.1074 36.443C76.0551 36.443 76.793 36.0741 77.321 35.3491C77.836 34.6114 78.1035 33.6509 78.1035 32.4553ZM93.6736 32.3599C93.6736 34.2806 93.1524 35.8007 92.1087 36.92C91.174 37.9122 90.0103 38.4082 88.6237 38.4082C87.1226 38.4082 86.0473 37.874 85.3924 36.8055V42.7394H82.8798V30.56C82.8798 29.3517 82.8482 28.1114 82.7845 26.8458H84.9981L85.138 28.6393H85.1826C86.0219 27.291 87.294 26.6104 88.9988 26.6104C90.3347 26.6104 91.4476 27.1384 92.3377 28.1941C93.2224 29.2499 93.6736 30.6427 93.6736 32.3599ZM91.1102 32.4553C91.1102 31.355 90.8627 30.4456 90.3662 29.7333C89.8258 28.9891 89.0941 28.6202 88.1786 28.6202C87.5614 28.6202 86.995 28.8301 86.4862 29.2371C85.9842 29.6506 85.653 30.1912 85.5007 30.8525C85.4239 31.1642 85.38 31.4186 85.38 31.6157V33.5047C85.38 34.3251 85.6345 35.0183 86.1364 35.5908C86.6391 36.1568 87.294 36.443 88.1087 36.443C89.0557 36.443 89.7936 36.0741 90.3216 35.3491C90.8497 34.6114 91.1102 33.6509 91.1102 32.4553ZM108.22 33.7591C108.22 35.0947 107.756 36.1823 106.827 37.0154C105.809 37.9312 104.378 38.3892 102.553 38.3892C100.867 38.3892 99.5128 38.0648 98.4883 37.4097L99.0671 35.3173C100.168 35.9724 101.382 36.2967 102.699 36.2967C103.647 36.2967 104.384 36.0805 104.912 35.6543C105.441 35.2282 105.707 34.6559 105.707 33.9435C105.707 33.3075 105.485 32.7733 105.052 32.3344C104.62 31.902 103.901 31.4949 102.89 31.1261C100.142 30.1021 98.7681 28.6011 98.7681 26.636C98.7681 25.3512 99.2516 24.2955 100.225 23.475C101.192 22.6546 102.477 22.2412 104.079 22.2412C105.504 22.2412 106.693 22.4892 107.641 22.9853L107.012 25.0332C106.121 24.5499 105.122 24.3145 103.996 24.3145C103.112 24.3145 102.413 24.5307 101.916 24.9632C101.497 25.3512 101.287 25.8219 101.287 26.3816C101.287 26.9984 101.529 27.5136 102.012 27.9143C102.432 28.2832 103.188 28.6902 104.289 29.1227C105.637 29.6696 106.63 30.2992 107.266 31.0307C107.902 31.7621 108.22 32.6715 108.22 33.7591ZM116.552 28.7347H113.779V34.2234C113.779 35.6226 114.268 36.3158 115.248 36.3158C115.699 36.3158 116.068 36.2776 116.367 36.2013L116.437 38.1093C115.942 38.2938 115.293 38.3892 114.485 38.3892C113.493 38.3892 112.716 38.0839 112.157 37.4797C111.597 36.8754 111.317 35.8579 111.317 34.4333V28.7347H109.67V26.8522H111.317V24.7788L113.786 24.0347V26.8522H116.558L116.552 28.7347ZM129.024 32.4108C129.024 34.1471 128.529 35.5781 127.536 36.6911C126.499 37.8422 125.12 38.4146 123.396 38.4146C121.735 38.4146 120.413 37.8613 119.427 36.7674C118.441 35.6671 117.951 34.2743 117.951 32.6016C117.951 30.8462 118.46 29.4152 119.478 28.2959C120.496 27.1765 121.863 26.6232 123.586 26.6232C125.247 26.6232 126.582 27.1765 127.587 28.2768C128.541 29.3389 129.024 30.719 129.024 32.4108ZM126.417 32.468C126.417 31.4314 126.194 30.541 125.742 29.8032C125.215 28.9064 124.464 28.4549 123.485 28.4549C122.48 28.4549 121.704 28.9064 121.182 29.8032C120.731 30.5473 120.508 31.4504 120.508 32.5189C120.508 33.5556 120.731 34.446 121.182 35.1901C121.723 36.0868 122.486 36.5384 123.466 36.5384C124.426 36.5384 125.177 36.0805 125.724 35.171C126.188 34.4015 126.417 33.5047 126.417 32.468ZM137.198 29.0591C136.937 29.0146 136.67 28.9891 136.402 28.9891C135.519 28.9891 134.838 29.3198 134.355 29.9877C133.935 30.5791 133.725 31.3232 133.725 32.22V38.1538H131.213V30.4074C131.213 29.2181 131.193 28.0351 131.143 26.8458H133.331L133.419 29.0082H133.489C133.757 28.264 134.17 27.6662 134.749 27.2147C135.27 26.8203 135.913 26.6104 136.568 26.6104C136.804 26.6104 137.007 26.6296 137.198 26.655V29.0591ZM148.437 31.9656C148.443 32.3472 148.411 32.7288 148.348 33.104H140.804C140.83 34.2234 141.199 35.0756 141.898 35.6671C142.534 36.1949 143.355 36.4557 144.366 36.4557C145.485 36.4557 146.503 36.2776 147.419 35.9215L147.813 37.6641C146.744 38.1284 145.479 38.3637 144.023 38.3637C142.267 38.3637 140.893 37.8485 139.888 36.8183C138.89 35.7879 138.387 34.4015 138.387 32.6652C138.387 30.9607 138.851 29.5424 139.787 28.4104C140.76 27.2019 142.083 26.5978 143.743 26.5978C145.371 26.5978 146.604 27.2019 147.445 28.4104C148.099 29.3707 148.437 30.5536 148.437 31.9656ZM146.039 31.3168C146.058 30.5728 145.893 29.9304 145.549 29.3834C145.116 28.6838 144.442 28.3341 143.545 28.3341C142.725 28.3341 142.057 28.6775 141.542 29.358C141.122 29.8986 140.874 30.5536 140.798 31.3105L146.039 31.3168Z" fill="white"/>
<path d="M57.7321 16.9305C57.0325 16.9305 56.4283 16.8986 55.9258 16.8414V9.25396C56.6318 9.14582 57.3442 9.08856 58.0566 9.09494C60.9378 9.09494 62.2671 10.5132 62.2671 12.8219C62.2607 15.4867 60.6961 16.9305 57.7321 16.9305ZM58.1583 10.068C57.7703 10.068 57.4396 10.0935 57.1661 10.1507V15.9129C57.3124 15.9383 57.5986 15.9446 57.9993 15.9446C59.8883 15.9446 60.9632 14.8698 60.9632 12.8601C60.9568 11.0602 59.9838 10.068 58.1583 10.068ZM66.4013 16.9876C64.7795 16.9876 63.7236 15.7729 63.7236 14.1257C63.7236 12.4084 64.7985 11.1874 66.4904 11.1874C68.0932 11.1874 69.1683 12.3449 69.1683 14.0366C69.1683 15.7729 68.0614 16.9876 66.4013 16.9876ZM66.4459 12.0905C65.5554 12.0905 64.983 12.9236 64.983 14.0939C64.983 15.2387 65.5681 16.0718 66.4332 16.0718C67.3046 16.0718 67.8833 15.1814 67.8833 14.0684C67.8896 12.9364 67.3172 12.0905 66.4459 12.0905ZM78.4288 11.3018L76.6924 16.8604H75.5603L74.8416 14.45C74.6633 13.8585 74.5111 13.2607 74.3965 12.6565H74.3712C74.282 13.2607 74.1099 13.8713 73.9254 14.45L73.1622 16.8604H72.0176L70.3828 11.3018H71.6549L72.2844 13.9412C72.4311 14.5708 72.558 15.1623 72.6602 15.7284H72.6856C72.7747 15.2577 72.927 14.679 73.1437 13.954L73.9323 11.3018H74.9369L75.694 13.8967C75.8785 14.5263 76.0245 15.1433 76.139 15.7284H76.1706C76.2536 15.156 76.3743 14.5518 76.5464 13.8967L77.2205 11.3018H78.4288ZM84.8338 16.8604H83.6001V13.6678C83.6001 12.682 83.2243 12.1922 82.4802 12.1922C81.7492 12.1922 81.2466 12.8219 81.2466 13.5532V16.8604H80.0129V12.8918C80.0129 12.4021 79.9999 11.8743 79.9683 11.3018H81.0559L81.1128 12.1604H81.1444C81.4756 11.569 82.1497 11.1874 82.9068 11.1874C84.0705 11.1874 84.8399 12.0778 84.8399 13.5342L84.8338 16.8604ZM88.2365 16.8604H87.0028V8.75146H88.2365V16.8604ZM92.746 16.9876C91.1242 16.9876 90.0682 15.7729 90.0682 14.1257C90.0682 12.4084 91.1434 11.1874 92.8352 11.1874C94.4378 11.1874 95.5131 12.3449 95.5131 14.0366C95.5131 15.7729 94.4001 16.9876 92.746 16.9876ZM92.7906 12.0905C91.8998 12.0905 91.3279 12.9236 91.3279 14.0939C91.3279 15.2387 91.9128 16.0718 92.7776 16.0718C93.6492 16.0718 94.228 15.1814 94.228 14.0684C94.228 12.9364 93.6622 12.0905 92.7906 12.0905ZM100.385 16.8604L100.296 16.2181H100.264C99.8889 16.7332 99.3355 16.9813 98.636 16.9813C97.6369 16.9813 96.9312 16.2817 96.9312 15.3468C96.9312 13.973 98.1203 13.2671 100.181 13.2671V13.1653C100.181 12.4339 99.7936 12.065 99.0303 12.065C98.4831 12.065 97.9996 12.205 97.5799 12.4785L97.3317 11.6644C97.8474 11.3463 98.4893 11.181 99.2402 11.181C100.69 11.181 101.428 11.9442 101.428 13.4769V15.5249C101.428 16.0846 101.453 16.5234 101.511 16.8541L100.385 16.8604ZM100.213 14.0939C98.839 14.0939 98.1526 14.4246 98.1526 15.2132C98.1526 15.7983 98.5085 16.0846 98.9981 16.0846C99.6283 16.0846 100.213 15.6075 100.213 14.9524V14.0939ZM107.413 16.8604L107.356 15.97H107.324C106.968 16.6442 106.37 16.9876 105.537 16.9876C104.195 16.9876 103.202 15.8111 103.202 14.1511C103.202 12.4148 104.233 11.1874 105.638 11.1874C106.383 11.1874 106.91 11.4354 107.203 11.9442H107.229V8.75146H108.462V15.3595C108.462 15.8937 108.475 16.4025 108.507 16.8541H107.413V16.8604ZM107.235 13.5914C107.235 12.8155 106.72 12.1477 105.931 12.1477C105.015 12.1477 104.455 12.9618 104.455 14.1002C104.455 15.2196 105.034 15.9892 105.906 15.9892C106.681 15.9892 107.235 15.315 107.235 14.5137V13.5914ZM116.311 16.9876C114.69 16.9876 113.634 15.7729 113.634 14.1257C113.634 12.4084 114.708 11.1874 116.401 11.1874C118.003 11.1874 119.078 12.3449 119.078 14.0366C119.078 15.7729 117.972 16.9876 116.311 16.9876ZM116.356 12.0905C115.465 12.0905 114.893 12.9236 114.893 14.0939C114.893 15.2387 115.478 16.0718 116.343 16.0718C117.215 16.0718 117.793 15.1814 117.793 14.0684C117.8 12.9364 117.227 12.0905 116.356 12.0905ZM125.725 16.8604H124.49V13.6678C124.49 12.682 124.115 12.1922 123.371 12.1922C122.64 12.1922 122.138 12.8219 122.138 13.5532V16.8604H120.903V12.8918C120.903 12.4021 120.891 11.8743 120.859 11.3018H121.946L122.004 12.1604H122.035C122.367 11.569 123.041 11.1874 123.797 11.1874C124.962 11.1874 125.731 12.0778 125.731 13.5342V16.8604H125.725ZM134.031 12.2304H132.67V14.927C132.67 15.6139 132.905 15.9574 133.389 15.9574C133.605 15.9574 133.789 15.9319 133.936 15.9001L133.968 16.835C133.726 16.9241 133.408 16.975 133.008 16.975C132.034 16.975 131.449 16.4407 131.449 15.0288V12.2241H130.635V11.2955H131.449V10.2779L132.664 9.90902V11.2955H134.025L134.031 12.2304ZM140.576 16.8604H139.342V13.6932C139.342 12.701 138.967 12.1986 138.223 12.1986C137.58 12.1986 136.989 12.6311 136.989 13.5151V16.8668H135.755V8.75146H136.989V12.0905H137.014C137.403 11.4863 137.968 11.1874 138.687 11.1874C139.864 11.1874 140.582 12.1032 140.582 13.5532L140.576 16.8604ZM147.273 14.3801H143.565C143.591 15.4295 144.284 16.0273 145.315 16.0273C145.861 16.0273 146.37 15.9383 146.815 15.7665L147.007 16.6251C146.479 16.8541 145.861 16.9686 145.143 16.9686C143.406 16.9686 142.376 15.8683 142.376 14.1702C142.376 12.4657 143.432 11.1874 145.003 11.1874C146.421 11.1874 147.312 12.2367 147.312 13.8268C147.324 14.0049 147.312 14.1956 147.273 14.3801ZM146.141 13.4961C146.141 12.6374 145.709 12.0332 144.921 12.0332C144.208 12.0332 143.648 12.6502 143.572 13.4961H146.141Z" fill="white"/>
</svg>
