<svg width="25" height="25" viewBox="0 0 25 25" fill="none" xmlns="http://www.w3.org/2000/svg">
<g clip-path="url(#clip0_387_5119)">
<path d="M22.3438 11.5116C22.3438 3.59759 22.3659 4.10177 22.2921 3.91971C22.45 3.52957 22.2326 3.09415 21.8338 2.9802L11.99 0.167695C11.8638 0.131602 11.73 0.131602 11.6038 0.167695L1.76 2.9802C1.45808 3.0664 1.25 3.3423 1.25 3.65627C1.25 3.97024 1.45808 4.2461 1.75995 4.33235L5.46875 5.39196C5.46875 5.42379 5.46875 5.45318 5.46875 5.4806C5.46875 5.71887 5.46875 5.79724 5.46875 5.79593C5.46875 6.18359 5.46875 6.99495 5.46875 8.5781C5.46875 11.3099 6.87819 13.6826 8.93141 14.8461L8.54352 15.6219C6.64587 15.7305 4.87283 16.539 3.51083 17.9261C2.05292 19.4109 1.25 21.3682 1.25 23.4375C1.25 23.8258 1.56481 24.1406 1.95312 24.1406H21.6406C22.0289 24.1406 22.3438 23.8258 22.3438 23.4375C22.3438 21.3682 21.5408 19.411 20.0829 17.9262C18.721 16.5392 16.948 15.7312 15.0505 15.6225L14.6623 14.8462C16.7156 13.6826 18.125 11.3099 18.125 8.57815C18.125 8.40476 18.125 5.43907 18.125 5.39201L20.9375 4.58843V11.5116C20.1191 11.8018 19.5312 12.5834 19.5312 13.5V14.9063C19.5312 15.2946 19.8461 15.6094 20.2344 15.6094H23.0469C23.4352 15.6094 23.75 15.2946 23.75 14.9063V13.5C23.75 12.5834 23.1621 11.8018 22.3438 11.5116ZM11.0938 22.7344H2.69394C3.02689 19.645 5.528 17.2079 8.61556 17.0269L11.0938 20.7442V22.7344ZM9.79573 16.262L10.231 15.3914C10.732 15.5336 11.2566 15.6094 11.7969 15.6094C12.3372 15.6094 12.8617 15.5336 13.3627 15.3914L13.798 16.262L11.7969 19.2637L9.79573 16.262ZM14.9782 17.0269C18.0658 17.2078 20.5669 19.645 20.8998 22.7344H12.5V20.7442L14.9782 17.0269ZM11.7969 14.2031C9.4115 14.2031 7.4173 12.2537 6.96931 9.67563C8.45422 10.3381 10.114 10.6875 11.7969 10.6875C13.4797 10.6875 15.1394 10.3382 16.6244 9.67577C16.1764 12.2537 14.1822 14.2031 11.7969 14.2031ZM16.7034 7.78446C16.6625 7.98762 16.5421 8.1588 16.3735 8.24159C14.9892 8.92174 13.4066 9.28123 11.7969 9.28123C10.187 9.28123 8.60441 8.92165 7.22014 8.2414C6.99083 8.12876 6.875 7.86794 6.875 7.63057V5.79373C11.9779 7.25168 11.6562 7.17185 11.7969 7.17185C11.9375 7.17185 11.6149 7.25201 16.7188 5.79373C16.7188 7.81202 16.7243 7.68129 16.7034 7.78446ZM11.7969 5.73752L4.51255 3.65627L11.7969 1.57498L19.0812 3.65623L11.7969 5.73752ZM22.3438 14.2031H20.9375V13.5C20.9375 13.1123 21.2529 12.7969 21.6406 12.7969C22.0283 12.7969 22.3438 13.1123 22.3438 13.5V14.2031Z" fill="#0E0E0E"/>
<path d="M17.4219 19.8281H16.0156C15.6273 19.8281 15.3125 20.1429 15.3125 20.5312C15.3125 20.9196 15.6273 21.2344 16.0156 21.2344H17.4219C17.8102 21.2344 18.125 20.9196 18.125 20.5312C18.125 20.1429 17.8102 19.8281 17.4219 19.8281Z" fill="#0E0E0E"/>
</g>
<defs>
<clipPath id="clip0_387_5119">
<rect width="24" height="24" fill="white" transform="translate(0.5 0.140625)"/>
</clipPath>
</defs>
</svg>
