<svg width="21" height="25" viewBox="0 0 21 25" fill="none" xmlns="http://www.w3.org/2000/svg">
<path d="M10.3607 11.7015C11.949 11.7015 13.3241 11.1319 14.448 10.008C15.5715 8.88426 16.1413 7.50932 16.1413 5.92089C16.1413 4.333 15.5717 2.95788 14.4478 1.8338C13.3239 0.710265 11.9488 0.140625 10.3607 0.140625C8.77227 0.140625 7.39733 0.710265 6.27362 1.83398C5.1499 2.9577 4.58008 4.33282 4.58008 5.92089C4.58008 7.50932 5.1499 8.88444 6.27362 10.0082C7.3977 11.1317 8.77282 11.7015 10.3607 11.7015ZM7.26824 2.82842C8.13049 1.96618 9.14196 1.54706 10.3607 1.54706C11.5793 1.54706 12.5909 1.96618 13.4534 2.82842C14.3156 3.69085 14.7349 4.70251 14.7349 5.92089C14.7349 7.13963 14.3156 8.15111 13.4534 9.01353C12.5909 9.87596 11.5793 10.2951 10.3607 10.2951C9.14232 10.2951 8.13085 9.87577 7.26824 9.01353C6.40582 8.15129 5.98651 7.13963 5.98651 5.92089C5.98651 4.70251 6.40582 3.69085 7.26824 2.82842Z" fill="#0E0E0E"/>
<path d="M20.4748 18.5962C20.4423 18.1286 20.3768 17.6185 20.2803 17.0798C20.1829 16.537 20.0575 16.024 19.9073 15.555C19.752 15.0704 19.5413 14.5917 19.2804 14.1331C19.0099 13.657 18.692 13.2424 18.3354 12.9013C17.9624 12.5444 17.5057 12.2575 16.9776 12.0482C16.4514 11.84 15.8682 11.7346 15.2444 11.7346C14.9994 11.7346 14.7624 11.8351 14.3048 12.133C14.0232 12.3166 13.6938 12.5291 13.3261 12.764C13.0118 12.9643 12.5859 13.152 12.0598 13.3219C11.5465 13.488 11.0254 13.5722 10.5109 13.5722C9.99675 13.5722 9.47563 13.488 8.96202 13.3219C8.43651 13.1522 8.01042 12.9645 7.69658 12.7642C7.33238 12.5314 7.00279 12.319 6.71697 12.1328C6.25975 11.8349 6.02282 11.7344 5.77782 11.7344C5.1538 11.7344 4.57079 11.84 4.04473 12.0484C3.51702 12.2573 3.06018 12.5442 2.68682 12.9015C2.33014 13.2428 2.01227 13.6572 1.742 14.1331C1.48144 14.5917 1.27051 15.0702 1.11523 15.5552C0.96527 16.0242 0.839843 16.537 0.742431 17.0798C0.645752 17.6177 0.580383 18.128 0.547974 18.5968C0.516113 19.0551 0.5 19.5321 0.5 20.014C0.5 21.2668 0.898254 22.281 1.68359 23.029C2.45922 23.7671 3.48535 24.1414 4.73357 24.1414H16.2897C17.5376 24.1414 18.5637 23.7671 19.3395 23.029C20.125 22.2816 20.5233 21.267 20.5233 20.0138C20.5231 19.5303 20.5068 19.0533 20.4748 18.5962ZM18.3698 22.0101C17.8573 22.4978 17.1768 22.735 16.2895 22.735H4.73357C3.84606 22.735 3.16564 22.4978 2.65332 22.0102C2.15069 21.5318 1.90643 20.8786 1.90643 20.014C1.90643 19.5643 1.92126 19.1203 1.95092 18.694C1.97986 18.2758 2.039 17.8164 2.12671 17.3282C2.21331 16.8461 2.32354 16.3937 2.45465 15.9841C2.58044 15.5913 2.75201 15.2024 2.96478 14.8278C3.16784 14.4707 3.40148 14.1644 3.6593 13.9175C3.90044 13.6866 4.2044 13.4977 4.56255 13.356C4.89379 13.2249 5.26604 13.1531 5.67016 13.1423C5.71941 13.1685 5.80712 13.2184 5.94921 13.3111C6.23833 13.4995 6.57158 13.7145 6.93999 13.9498C7.35527 14.2145 7.89031 14.4537 8.52952 14.66C9.18303 14.8713 9.84953 14.9786 10.5111 14.9786C11.1726 14.9786 11.8393 14.8713 12.4925 14.6602C13.1322 14.4535 13.6671 14.2145 14.0829 13.9494C14.4599 13.7084 14.7838 13.4997 15.073 13.3111C15.2151 13.2186 15.3028 13.1685 15.352 13.1423C15.7563 13.1531 16.1286 13.2249 16.46 13.356C16.818 13.4977 17.1219 13.6868 17.3631 13.9175C17.6209 14.1642 17.8545 14.4705 18.0576 14.8279C18.2705 15.2024 18.4423 15.5915 18.5679 15.9839C18.6992 16.394 18.8096 16.8463 18.896 17.3281C18.9835 17.8171 19.0429 18.2767 19.0718 18.6942V18.6946C19.1016 19.1192 19.1167 19.563 19.1168 20.014C19.1167 20.8788 18.8724 21.5318 18.3698 22.0101Z" fill="#0E0E0E"/>
</svg>
