<svg width="24" height="25" viewBox="0 0 24 25" fill="none" xmlns="http://www.w3.org/2000/svg">
<path d="M19.0073 0.82254L13.5576 6.27228C13.3511 6.47878 13.2351 6.75882 13.2351 7.05086C13.2351 7.3429 13.3511 7.62295 13.5576 7.82944L15.4571 9.72896C15.6976 9.96948 15.6975 10.3607 15.4571 10.601L10.1008 15.9573C9.86046 16.1977 9.46927 16.1977 9.22887 15.9573L7.32929 14.0577C6.89929 13.6277 6.20218 13.6277 5.77224 14.0577L0.3225 19.5073C-0.1075 19.9373 -0.1075 20.6344 0.3225 21.0644L2.65813 23.4C4.03198 24.7739 6.4073 24.8637 9.34657 23.6531C11.9789 22.569 14.8569 20.5437 17.4503 17.9503C20.0437 15.3569 22.069 12.4789 23.1532 9.84655C23.7183 8.47431 24.0001 7.22526 24 6.14335C23.9999 4.9079 23.6325 3.89057 22.9 3.15807L20.5645 0.822487C20.358 0.615992 20.0779 0.5 19.7859 0.5C19.4939 0.5 19.2138 0.6161 19.0073 0.82254ZM21.3429 4.71528C22.0268 5.39918 21.9424 7.00385 21.117 9.00808C20.141 11.3779 18.2857 14.0006 15.8931 16.3933C13.5005 18.7859 10.8777 20.6411 8.50793 21.6171C6.50386 22.4425 4.89908 22.527 4.21513 21.8431L2.65808 20.286L6.55077 16.3933L7.67182 17.5144C8.77079 18.6134 10.5589 18.6134 11.6579 17.5144L17.0142 12.1581C17.5638 11.6086 17.8385 10.887 17.8384 10.165C17.8383 9.44336 17.5636 8.72137 17.0142 8.17191L15.8931 7.05091L19.7858 3.15823L21.3429 4.71528Z" fill="white"/>
</svg>
