<svg width="40" height="49" viewBox="0 0 40 49" fill="none" xmlns="http://www.w3.org/2000/svg">
<g clip-path="url(#clip0_1048_1540)">
<path d="M5.0902 0.800293C2.69162 0.800293 0.726562 2.76535 0.726562 5.16393V44.4367C0.726562 46.8352 2.69162 48.8003 5.0902 48.8003H29.0902C31.4888 48.8003 33.4538 46.8352 33.4538 44.4367V38.9821C33.4538 38.6928 33.3389 38.4153 33.1343 38.2107C32.9297 38.0061 32.6523 37.8912 32.3629 37.8912C32.0736 37.8912 31.7961 38.0061 31.5916 38.2107C31.387 38.4153 31.272 38.6928 31.272 38.9821V44.4367C31.272 45.6642 30.3178 46.6185 29.0902 46.6185H5.0902C3.86261 46.6185 2.90838 45.6642 2.90838 44.4367V5.16393C2.90838 3.93634 3.86261 2.98211 5.0902 2.98211H11.054L12.3132 5.83722C12.748 6.82189 13.7308 7.34575 14.7124 7.34575H19.468C20.4496 7.34575 21.4324 6.82189 21.8672 5.83722L23.1264 2.98211H29.0902C30.3178 2.98211 31.272 3.93634 31.272 5.16393V8.43666C31.272 8.72598 31.387 9.00346 31.5916 9.20805C31.7961 9.41263 32.0736 9.52757 32.3629 9.52757C32.6523 9.52757 32.9297 9.41263 33.1343 9.20805C33.3389 9.00346 33.4538 8.72598 33.4538 8.43666V5.16393C33.4538 2.76535 31.4888 0.800293 29.0902 0.800293H5.0902ZM13.4382 2.98211H20.7422L19.8707 4.95512C19.8279 5.0522 19.669 5.16393 19.468 5.16393H14.7124C14.5114 5.16393 14.3525 5.0522 14.3097 4.95512L13.4382 2.98211Z" fill="#0E0E0E"/>
<path d="M32.9977 12.7036L28.0653 18.6256C27.8784 18.85 27.7883 19.1394 27.8148 19.4303C27.8413 19.7211 27.9823 19.9894 28.2067 20.1763L30.2709 21.8955C30.5322 22.1132 30.5676 22.5029 30.35 22.764L25.5022 28.5845C25.2847 28.8457 24.8951 28.8812 24.6338 28.6636L22.5696 26.9444C22.1024 26.5552 21.4081 26.6185 21.019 27.0858L16.0866 33.0077C15.6974 33.475 15.7607 34.1692 16.228 34.5583L18.766 36.6722C20.2589 37.9157 22.6326 37.7895 25.4498 36.317C27.9729 34.9983 30.655 32.7201 33.0023 29.9019C35.3495 27.0838 37.1051 24.0338 37.9458 21.3139C38.384 19.896 38.5512 18.6265 38.4529 17.5491C38.3406 16.3187 37.8823 15.339 37.0864 14.676L34.5484 12.5621C34.3241 12.3752 34.0346 12.2851 33.7438 12.3116C33.453 12.3382 33.1846 12.4792 32.9977 12.7036ZM35.6771 16.3682C36.4203 16.9871 36.4819 18.5928 35.8419 20.6637C35.085 23.1124 33.4756 25.8927 31.3102 28.4927C29.1447 31.0927 26.7012 33.1784 24.4298 34.3656C22.5089 35.3695 20.9184 35.5993 20.1752 34.9804L18.4832 33.5711L22.0064 29.3411L23.2246 30.3557C24.4188 31.3503 26.1996 31.188 27.1942 29.9938L32.042 24.1733C32.5394 23.5761 32.7475 22.8325 32.6819 22.1136C32.6163 21.3949 32.2771 20.7008 31.6801 20.2035L30.4619 19.189L33.985 14.9589L35.6771 16.3682Z" fill="#F5CB00"/>
</g>
<defs>
<clipPath id="clip0_1048_1540">
<rect width="39.2727" height="48" fill="white" transform="translate(0.726562 0.800293)"/>
</clipPath>
</defs>
</svg>
