<svg width="19" height="22" viewBox="0 0 19 22" fill="none" xmlns="http://www.w3.org/2000/svg">
<path d="M10.25 9.3748C10.25 8.96063 9.9142 8.62484 9.5 8.62484C9.0858 8.62484 8.75 8.96063 8.75 9.3748H10.25ZM8.75 20.4575C8.75 20.8717 9.0858 21.2075 9.5 21.2075C9.9142 21.2075 10.25 20.8717 10.25 20.4575H8.75ZM3.09546 7.00877L3.01356 7.75428L3.09546 7.00877ZM8.9535 8.88568L9.3757 8.26585L8.9535 8.88568ZM3.09546 18.9563L3.17737 18.2107L3.09546 18.9563ZM8.9535 20.8332L9.3757 20.2133L8.9535 20.8332ZM15.9045 7.00877L15.8226 6.26325L15.9045 7.00877ZM10.0465 8.88568L9.6243 8.26585L10.0465 8.88568ZM15.9045 18.9563L15.8226 18.2107L15.9045 18.9563ZM10.0465 20.8332L9.6243 20.2133L10.0465 20.8332ZM7.12446 3.88592C6.76591 4.09333 6.64339 4.55213 6.8508 4.91067C7.0582 5.26922 7.517 5.39174 7.8755 5.18433L7.12446 3.88592ZM11.1245 5.18433C11.483 5.39174 11.9418 5.26922 12.1492 4.91067C12.3566 4.55213 12.2341 4.09333 11.8755 3.88592L11.1245 5.18433ZM5.07093 1.63955C4.73119 1.87652 4.64789 2.34403 4.88486 2.68376C5.12183 3.02349 5.58934 3.1068 5.92907 2.86983L5.07093 1.63955ZM13.0709 2.86983C13.4107 3.1068 13.8782 3.02349 14.1151 2.68376C14.3521 2.34403 14.2688 1.87652 13.9291 1.63955L13.0709 2.86983ZM8.75 9.3748V20.4575H10.25V9.3748H8.75ZM3.01356 7.75428C4.74824 7.94485 6.98504 8.45218 8.5312 9.5055L9.3757 8.26585C7.524 7.00432 4.99209 6.46262 3.17737 6.26325L3.01356 7.75428ZM3.01356 19.7018C4.74824 19.8923 6.98504 20.3997 8.5312 21.453L9.3757 20.2133C7.524 18.9518 4.99209 18.4101 3.17737 18.2107L3.01356 19.7018ZM0.75 8.50514V17.2666H2.25V8.50514H0.75ZM3.17737 18.2107C2.63089 18.1507 2.25 17.7171 2.25 17.2666H0.75C0.75 18.5757 1.80339 19.5688 3.01356 19.7018L3.17737 18.2107ZM3.17737 6.26325C1.80824 6.11284 0.75 7.22719 0.75 8.50514H2.25C2.25 8.02351 2.62603 7.71171 3.01356 7.75428L3.17737 6.26325ZM15.8226 6.26325C14.0079 6.46262 11.476 7.00432 9.6243 8.26585L10.4688 9.5055C12.015 8.45218 14.2518 7.94485 15.9864 7.75428L15.8226 6.26325ZM15.8226 18.2107C14.0079 18.4101 11.476 18.9518 9.6243 20.2133L10.4688 21.453C12.015 20.3997 14.2518 19.8923 15.9864 19.7018L15.8226 18.2107ZM16.75 8.50514V17.2666H18.25V8.50514H16.75ZM15.9864 19.7018C17.1966 19.5688 18.25 18.5757 18.25 17.2666H16.75C16.75 17.7171 16.3691 18.1507 15.8226 18.2107L15.9864 19.7018ZM15.9864 7.75428C16.374 7.71171 16.75 8.02351 16.75 8.50514H18.25C18.25 7.22719 17.1918 6.11284 15.8226 6.26325L15.9864 7.75428ZM8.5312 21.453C9.1125 21.849 9.8875 21.849 10.4688 21.453L9.6243 20.2133C9.5525 20.2622 9.4475 20.2622 9.3757 20.2133L8.5312 21.453ZM8.5312 9.5055C9.1125 9.9015 9.8875 9.9015 10.4688 9.5055L9.6243 8.26585C9.5525 8.31474 9.4475 8.31474 9.3757 8.26585L8.5312 9.5055ZM7.8755 5.18433C8.3528 4.90825 8.9068 4.75 9.5 4.75V3.25C8.6361 3.25 7.8239 3.48133 7.12446 3.88592L7.8755 5.18433ZM9.5 4.75C10.0932 4.75 10.6472 4.90825 11.1245 5.18433L11.8755 3.88592C11.1761 3.48133 10.3639 3.25 9.5 3.25V4.75ZM5.92907 2.86983C6.94113 2.1639 8.1711 1.75 9.5 1.75V0.25C7.8544 0.25 6.32654 0.76373 5.07093 1.63955L5.92907 2.86983ZM9.5 1.75C10.8289 1.75 12.0589 2.1639 13.0709 2.86983L13.9291 1.63955C12.6735 0.76373 11.1456 0.25 9.5 0.25V1.75Z" fill="#464646"/>
</svg>
