<svg width="24" height="25" viewBox="0 0 24 25" fill="none" xmlns="http://www.w3.org/2000/svg">
<path d="M2.57143 0.5C1.16169 0.5 7.46141e-08 1.7511 7.46141e-08 3.26934V12.5005V18.0392C-6.73004e-05 18.2131 0.0454953 18.3835 0.131444 18.5308C0.217392 18.6781 0.340225 18.7962 0.485792 18.8716C0.631359 18.9469 0.793735 18.9765 0.954215 18.9568C1.11469 18.9371 1.26675 18.869 1.39286 18.7603L5.4442 15.2698H6.85714V18.0392C6.85714 19.5313 7.95286 20.8085 9.33817 20.8085H18.7684L22.5904 24.2828C22.7152 24.3961 22.8675 24.4686 23.0293 24.4919C23.1911 24.5151 23.3557 24.4882 23.5038 24.4141C23.6519 24.3401 23.7772 24.222 23.8651 24.0739C23.953 23.9257 23.9998 23.7536 24 23.5778V18.0392V8.80802C24 7.31585 22.9043 6.03868 21.519 6.03868H18V3.26934C18 1.7511 16.8383 0.5 15.4286 0.5H2.57143ZM2.57143 2.34623H15.4286C15.9183 2.34623 16.2857 2.74197 16.2857 3.26934V12.5005C16.2857 13.0278 15.9183 13.4236 15.4286 13.4236H5.14286C4.94818 13.4234 4.75924 13.4946 4.60714 13.6255L1.71429 16.1172V12.5005V3.26934C1.71429 2.74197 2.08174 2.34623 2.57143 2.34623ZM18 7.88491H21.519C21.9331 7.88491 22.2857 8.25457 22.2857 8.80802V18.0392V21.591L19.6356 19.1804C19.4811 19.0398 19.2854 18.9625 19.0831 18.9623H9.33817C8.92402 18.9623 8.57143 18.5926 8.57143 18.0392V15.2698H15.4286C16.8383 15.2698 18 14.0187 18 12.5005V7.88491Z" fill="white"/>
<path d="M5.14328 5.11572C4.91595 5.11572 4.69794 5.21298 4.5372 5.3861C4.37645 5.55921 4.28613 5.79401 4.28613 6.03884C4.28613 6.28366 4.37645 6.51846 4.5372 6.69158C4.69794 6.86469 4.91595 6.96195 5.14328 6.96195H12.8576C13.0849 6.96195 13.3029 6.86469 13.4636 6.69158C13.6244 6.51846 13.7147 6.28366 13.7147 6.03884C13.7147 5.79401 13.6244 5.55921 13.4636 5.3861C13.3029 5.21298 13.0849 5.11572 12.8576 5.11572H5.14328Z" fill="white"/>
<path d="M5.14328 8.80811C4.91595 8.80811 4.69794 8.90536 4.5372 9.07848C4.37645 9.2516 4.28613 9.48639 4.28613 9.73122C4.28613 9.97604 4.37645 10.2108 4.5372 10.384C4.69794 10.5571 4.91595 10.6543 5.14328 10.6543H12.8576C13.0849 10.6543 13.3029 10.5571 13.4636 10.384C13.6244 10.2108 13.7147 9.97604 13.7147 9.73122C13.7147 9.48639 13.6244 9.2516 13.4636 9.07848C13.3029 8.90536 13.0849 8.80811 12.8576 8.80811H5.14328Z" fill="white"/>
</svg>
