<svg width="40" height="49" viewBox="0 0 40 49" fill="none" xmlns="http://www.w3.org/2000/svg">
<g clip-path="url(#clip0_1048_183)">
<path d="M5.0902 0.472351C2.69162 0.472351 0.726562 2.43741 0.726562 4.83599V44.1087C0.726562 46.5073 2.69162 48.4724 5.0902 48.4724H29.0902C31.4888 48.4724 33.4538 46.5073 33.4538 44.1087V38.6542C33.4538 38.3648 33.3389 38.0874 33.1343 37.8828C32.9297 37.6782 32.6522 37.5633 32.3629 37.5633C32.0736 37.5633 31.7961 37.6782 31.5915 37.8828C31.3869 38.0874 31.272 38.3648 31.272 38.6542V44.1087C31.272 45.3363 30.3178 46.2905 29.0902 46.2905H5.0902C3.86261 46.2905 2.90838 45.3363 2.90838 44.1087V4.83599C2.90838 3.6084 3.86261 2.65417 5.0902 2.65417H11.054L12.3132 5.50928C12.748 6.49395 13.7308 7.01781 14.7123 7.01781H19.468C20.4496 7.01781 21.4324 6.49395 21.8672 5.50928L23.1264 2.65417H29.0902C30.3178 2.65417 31.272 3.6084 31.272 4.83599V8.10872C31.272 8.39804 31.3869 8.67552 31.5915 8.8801C31.7961 9.08469 32.0736 9.19962 32.3629 9.19962C32.6522 9.19962 32.9297 9.08469 33.1343 8.8801C33.3389 8.67552 33.4538 8.39804 33.4538 8.10872V4.83599C33.4538 2.43741 31.4888 0.472351 29.0902 0.472351H5.0902ZM13.4382 2.65417H20.7422L19.8707 4.62718C19.8279 4.72426 19.669 4.83599 19.468 4.83599H14.7123C14.5114 4.83599 14.3525 4.72426 14.3097 4.62718L13.4382 2.65417Z" fill="#0E0E0E"/>
<path d="M12.7259 11.3814C10.9316 11.3814 9.45313 12.8599 9.45313 14.6541V25.5632V32.1087C9.45304 32.3142 9.51103 32.5156 9.62042 32.6897C9.72981 32.8637 9.88614 33.0033 10.0714 33.0924C10.2567 33.1815 10.4633 33.2164 10.6676 33.1931C10.8718 33.1699 11.0654 33.0894 11.2259 32.9609L16.3821 28.8359H18.1804V32.1087C18.1804 33.8721 19.5749 35.3814 21.3381 35.3814H33.3402L38.2045 39.4872C38.3634 39.6211 38.5572 39.7068 38.7632 39.7343C38.9691 39.7618 39.1786 39.7299 39.3671 39.6424C39.5555 39.5549 39.715 39.4154 39.8269 39.2404C39.9388 39.0653 39.9983 38.8619 39.9986 38.6541V32.1087V21.1996C39.9986 19.4362 38.604 17.9269 36.8409 17.9269H32.3622V14.6541C32.3622 12.8599 30.8837 11.3814 29.0895 11.3814H12.7259ZM12.7259 13.5632H29.0895C29.7127 13.5632 30.1804 14.0309 30.1804 14.6541V25.5632C30.1804 26.1865 29.7127 26.6541 29.0895 26.6541H15.9986C15.7508 26.6539 15.5103 26.7381 15.3168 26.8928L11.6349 29.8374V25.5632V14.6541C11.6349 14.0309 12.1026 13.5632 12.7259 13.5632ZM32.3622 20.1087H36.8409C37.368 20.1087 37.8168 20.5455 37.8168 21.1996V32.1087V36.3061L34.4439 33.4574C34.2473 33.2912 33.9982 33.1999 33.7408 33.1996H21.3381C20.811 33.1996 20.3622 32.7627 20.3622 32.1087V28.8359H29.0895C30.8837 28.8359 32.3622 27.3574 32.3622 25.5632V20.1087Z" fill="#F5CB00"/>
<path d="M15.9972 16.8359C15.7078 16.8359 15.4304 16.9509 15.2258 17.1555C15.0212 17.36 14.9062 17.6375 14.9062 17.9268C14.9062 18.2162 15.0212 18.4937 15.2258 18.6982C15.4304 18.9028 15.7078 19.0178 15.9972 19.0178H25.8153C26.1047 19.0178 26.3821 18.9028 26.5867 18.6982C26.7913 18.4937 26.9062 18.2162 26.9062 17.9268C26.9062 17.6375 26.7913 17.36 26.5867 17.1555C26.3821 16.9509 26.1047 16.8359 25.8153 16.8359H15.9972Z" fill="#F5CB00"/>
<path d="M15.9972 21.1996C15.7078 21.1996 15.4304 21.3145 15.2258 21.5191C15.0212 21.7237 14.9062 22.0012 14.9062 22.2905C14.9062 22.5798 15.0212 22.8573 15.2258 23.0619C15.4304 23.2665 15.7078 23.3814 15.9972 23.3814H25.8153C26.1047 23.3814 26.3821 23.2665 26.5867 23.0619C26.7913 22.8573 26.9062 22.5798 26.9062 22.2905C26.9062 22.0012 26.7913 21.7237 26.5867 21.5191C26.3821 21.3145 26.1047 21.1996 25.8153 21.1996H15.9972Z" fill="#F5CB00"/>
</g>
<defs>
<clipPath id="clip0_1048_183">
<rect width="39.2727" height="48" fill="white" transform="translate(0.726562 0.472351)"/>
</clipPath>
</defs>
</svg>
