<svg width="25" height="25" viewBox="0 0 25 25" fill="none" xmlns="http://www.w3.org/2000/svg">
<path d="M12.8799 1.75195C10.7043 1.75195 8.57756 2.39709 6.76862 3.60579C4.95967 4.81448 3.54978 6.53245 2.71721 8.54244C1.88465 10.5524 1.66681 12.7642 2.09125 14.8979C2.51569 17.0317 3.56334 18.9918 5.10171 20.5301C6.64009 22.0685 8.6001 23.1162 10.7339 23.5406C12.8677 23.965 15.0794 23.7472 17.0894 22.9146C19.0994 22.0821 20.8174 20.6722 22.0261 18.8632C23.2348 17.0543 23.8799 14.9275 23.8799 12.752C23.8764 9.83563 22.7164 7.03973 20.6543 4.97758C18.5921 2.91542 15.7962 1.75539 12.8799 1.75195ZM12.8799 21.752C11.0999 21.752 9.3598 21.2241 7.87976 20.2352C6.39971 19.2462 5.24616 17.8406 4.56497 16.1961C3.88378 14.5516 3.70555 12.742 4.05282 10.9961C4.40009 9.25031 5.25725 7.64666 6.51593 6.38799C7.7746 5.12932 9.37825 4.27215 11.1241 3.92489C12.8699 3.57762 14.6795 3.75585 16.324 4.43704C17.9686 5.11823 19.3742 6.27178 20.3631 7.75182C21.352 9.23186 21.8799 10.9719 21.8799 12.752C21.877 15.138 20.9278 17.4255 19.2406 19.1127C17.5534 20.7999 15.2659 21.749 12.8799 21.752Z" fill="#0E0E0E"/>
<path d="M13.8799 12.338V6.75195C13.8799 6.48674 13.7745 6.23238 13.587 6.04485C13.3995 5.85731 13.1451 5.75195 12.8799 5.75195C12.6147 5.75195 12.3603 5.85731 12.1728 6.04485C11.9852 6.23238 11.8799 6.48674 11.8799 6.75195V12.752C11.8799 13.0171 11.9853 13.2715 12.1729 13.459L15.1729 16.459C15.3615 16.6411 15.6141 16.7419 15.8763 16.7396C16.1385 16.7373 16.3893 16.6322 16.5747 16.4468C16.7601 16.2614 16.8653 16.0106 16.8676 15.7484C16.8698 15.4862 16.769 15.2336 16.5869 15.045L13.8799 12.338Z" fill="#F5CB00"/>
</svg>
