<svg width="25" height="25" viewBox="0 0 25 25" fill="none" xmlns="http://www.w3.org/2000/svg">
<g clip-path="url(#clip0_247_2831)">
<path d="M19.8805 19.5686C18.0208 19.5686 16.5078 18.0556 16.5078 16.1959C16.5078 14.3362 18.0208 12.8232 19.8805 12.8232C21.7402 12.8232 23.2532 14.3362 23.2532 16.1959C23.2532 18.0556 21.7402 19.5686 19.8805 19.5686ZM19.8805 14.3617C18.8691 14.3617 18.0462 15.1846 18.0462 16.196C18.0462 17.2074 18.8691 18.0302 19.8805 18.0302C20.8919 18.0302 21.7148 17.2074 21.7148 16.196C21.7148 15.1846 20.8919 14.3617 19.8805 14.3617Z" fill="#0E0E0E"/>
<path d="M23.0895 24.6511H16.6711C15.6765 24.6511 14.8672 23.848 14.8672 22.8609V21.1782C14.8672 20.3393 15.0801 19.5089 15.4829 18.7769L16.8307 19.5187C16.5526 20.024 16.4056 20.5979 16.4056 21.1782V22.8609C16.4056 22.995 16.5297 23.1126 16.6711 23.1126H23.0894C23.2282 23.1126 23.3412 22.9997 23.3412 22.8609V21.1782C23.3412 20.523 23.1568 19.8854 22.8081 19.3344L24.1081 18.5117C24.6128 19.3092 24.8796 20.2313 24.8796 21.1782V22.8609C24.8796 23.848 24.0766 24.6511 23.0895 24.6511Z" fill="#0E0E0E"/>
<path d="M5.89321 19.5686C4.0335 19.5686 2.52051 18.0556 2.52051 16.1959C2.52051 14.3362 4.0335 12.8232 5.89321 12.8232C7.75291 12.8232 9.2659 14.3362 9.2659 16.1959C9.2659 18.0556 7.75286 19.5686 5.89321 19.5686ZM5.89321 14.3617C4.88179 14.3617 4.05894 15.1846 4.05894 16.196C4.05894 17.2074 4.88179 18.0302 5.89321 18.0302C6.90462 18.0302 7.72747 17.2074 7.72747 16.196C7.72747 15.1846 6.90457 14.3617 5.89321 14.3617Z" fill="#0E0E0E"/>
<path d="M9.10212 24.6511H2.68379C1.6891 24.6511 0.879883 23.848 0.879883 22.8609V21.1782C0.879883 20.3393 1.0928 19.5089 1.49561 18.7769L2.84343 19.5187C2.56528 20.024 2.41831 20.5979 2.41831 21.1782V22.8609C2.41831 22.995 2.54236 23.1126 2.68379 23.1126H9.10212C9.24094 23.1126 9.35386 22.9997 9.35386 22.8609V21.1782C9.35386 20.523 9.1695 19.8854 8.82079 19.3344L10.1208 18.5117C10.6255 19.3092 10.8923 20.2313 10.8923 21.1782V22.8609C10.8923 23.848 10.0892 24.6511 9.10212 24.6511Z" fill="#0E0E0E"/>
<path d="M19.5624 9.69241L17.2692 7.95916C17.2275 7.92768 17.172 7.90814 17.124 7.90814H11.83C10.8586 7.90814 10.0684 7.12118 10.0684 6.15392V2.41595C10.0684 1.44351 10.8586 0.652344 11.83 0.652344H19.0158C19.9971 0.652344 20.7954 1.44351 20.7954 2.41595V9.07878C20.7954 9.9684 19.8733 10.0368 19.5624 9.69241ZM11.83 2.19077C11.7048 2.19077 11.6068 2.28969 11.6068 2.41595V6.15397C11.6068 6.27699 11.7027 6.36976 11.83 6.36976H17.124C17.5069 6.36976 17.8879 6.49837 18.1969 6.73196L19.257 7.53322V2.41595C19.257 2.296 19.1443 2.19077 19.0158 2.19077H11.83Z" fill="#0E0E0E"/>
<path d="M4.96387 11.5138V4.87722C4.96387 3.89862 5.76041 3.10254 6.73957 3.10254H8.78661V4.64097H6.73957C6.61537 4.64097 6.5023 4.75358 6.5023 4.87722V9.97019L7.55407 9.17697C7.85847 8.94688 8.23867 8.8198 8.62384 8.8198H13.897V10.3582H8.62384C8.57369 10.3582 8.51902 10.376 8.48113 10.4047L6.19625 12.1279C6.0602 12.2305 5.06797 12.481 4.96387 11.5138Z" fill="#F5CB00"/>
<path d="M13.1865 3.5625H17.6787V5.10093H13.1865V3.5625Z" fill="#F5CB00"/>
</g>
<defs>
<clipPath id="clip0_247_2831">
<rect width="24" height="24" fill="white" transform="translate(0.879883 0.652344)"/>
</clipPath>
</defs>
</svg>
