<svg width="25" height="24" viewBox="0 0 25 24" fill="none" xmlns="http://www.w3.org/2000/svg">
<path d="M12.9629 0C6.34599 0 0.962891 5.38309 0.962891 12C0.962891 18.6169 6.34639 24 12.9629 24C19.5794 24 24.9629 18.6169 24.9629 12C24.9629 5.38309 19.5798 0 12.9629 0Z" fill="#128807"/>
<path d="M18.2631 7.05293C18.5191 7.36739 18.7807 7.70188 19.0434 8.05119C19.0987 8.76344 19.1136 9.41599 19.1696 10.1294C19.1616 10.4347 19.0679 10.8397 18.979 10.8781C18.979 10.8781 18.8432 10.9563 18.7522 10.8697C18.6861 10.8433 18.4221 10.4295 18.4221 10.4295C18.2871 10.3057 18.197 10.3409 18.1009 10.4295C17.8357 10.6855 17.7159 11.165 17.5356 11.495C17.4892 11.5687 17.3582 11.6316 17.2128 11.4894C16.9099 11.076 17.0005 10.5196 17.0177 10.4335C17.0165 10.4383 17.0157 10.4427 17.0137 10.4507C16.6848 10.8217 16.8302 11.4358 16.9047 11.5679C17.0133 11.7851 17.101 11.9241 17.3121 12.031C17.5044 12.1724 17.6542 12.0843 17.7367 11.985C17.9302 11.7847 17.9326 11.2719 18.0236 11.1702C18.0872 10.9839 18.2467 11.0159 18.3248 11.0985C18.4001 11.207 18.4894 11.2775 18.6004 11.3364C18.7807 11.4954 18.9962 11.5247 19.2085 11.3793C19.3535 11.298 19.4476 11.1922 19.5326 10.9835C19.6235 10.7399 19.5786 9.46246 19.5582 8.75182C19.6944 8.9437 19.829 9.13999 19.9628 9.33828C20.0217 9.96199 20.0481 10.5765 20.0289 11.1654C20.0149 11.2823 20.4375 10.8156 20.4347 10.5945C20.4327 10.401 20.4351 10.2256 20.4347 10.0625C20.6398 10.3898 20.8381 10.7227 21.0256 11.0592C21.1417 10.9975 21.1021 10.3397 21.0284 10.2488C20.8321 9.91953 20.5805 9.56341 20.3858 9.28781C20.3474 8.9401 20.2949 8.52989 20.2712 8.40451C20.234 8.20862 20.1967 7.91419 20.1407 7.68185C20.1254 7.59092 20.0786 7.30089 20.0934 7.27325C20.1162 7.20836 20.2027 7.27525 20.2456 7.19994C20.3093 7.13024 20.0245 6.39236 19.8799 6.18165C19.8278 6.08711 19.7337 6.11996 19.6175 6.27338C19.5097 6.37433 19.549 6.60507 19.5903 6.82419C19.6972 7.38301 19.7929 7.95185 19.8687 8.51948C19.7285 8.31117 19.5578 8.0596 19.3896 7.81685C19.3852 7.79361 19.3679 7.70749 19.3679 7.70628C19.3679 7.69627 19.3447 7.24922 19.3251 7.14266C19.3215 7.0994 19.3114 7.08698 19.3567 7.09259C19.4048 7.13305 19.4112 7.13505 19.4412 7.14867C19.4897 7.15748 19.5322 7.07536 19.5029 6.99965C19.3527 6.72284 19.2029 6.44483 19.0527 6.16763C19.0346 6.15 19.0142 6.13118 18.991 6.12757C18.9677 6.12396 18.9421 6.13558 18.9137 6.17764C18.8588 6.22571 18.7999 6.31264 18.8019 6.42441C18.8151 6.62109 18.8504 6.82259 18.8636 7.01968C18.8684 7.04612 18.8732 7.07216 18.878 7.09859C18.8568 7.07175 18.8383 7.05052 18.8279 7.03971C18.4442 6.63672 19.0042 6.97401 18.7546 6.66235C18.5435 6.43081 18.4818 6.35711 18.3016 6.2177C18.211 6.15922 18.1561 6.04745 18.1265 6.23773C18.1149 6.40518 18.1025 6.59866 18.1137 6.73967C18.1117 6.81858 18.193 6.966 18.2631 7.05293Z" fill="white"/>
<path d="M8.81472 10.0154C8.81031 10.0883 9.01582 10.1768 9.02823 10.3451C9.05748 10.4144 8.98417 10.6371 9.04546 10.6575C9.10154 10.6808 9.17966 10.5037 9.2089 10.3391C9.22532 10.2489 9.1384 9.93368 8.99098 9.8772C8.96855 9.87239 8.94451 9.86999 8.92088 9.87159C8.84957 9.8768 8.78588 9.91485 8.81472 10.0154Z" fill="white"/>
<path d="M18.8797 8.79531C18.8748 8.79451 18.8692 8.79491 18.8636 8.79691C18.8636 8.79691 17.9887 9.41902 17.9671 9.44106C17.8802 9.51797 17.9239 9.78917 17.9671 9.75792C18.03 9.78196 18.9105 9.18508 18.8937 9.11538C18.9321 9.11738 18.951 8.80813 18.8797 8.79531Z" fill="white"/>
<path d="M20.4883 7.37703C20.5191 7.47157 20.4414 7.77641 20.5055 7.80445C20.5644 7.8361 20.6469 7.59374 20.6778 7.36982C20.6946 7.24724 20.6041 6.81701 20.4498 6.74009C20.4378 6.73689 20.425 6.73489 20.4126 6.73448C20.3245 6.73128 20.2283 6.79818 20.2664 6.92957C20.2439 7.00128 20.4542 7.24403 20.4883 7.37703Z" fill="white"/>
<path d="M18.3873 8.80181C18.3905 8.62435 18.4077 8.388 18.4173 8.24098C18.4213 8.1857 18.4345 8.12441 18.4874 8.11039C18.5407 8.09637 18.6328 8.16367 18.6336 8.10599C18.624 7.99302 18.6012 7.82638 18.5375 7.74746C18.5046 7.69899 18.451 7.67255 18.3957 7.67015C18.3032 7.66574 18.2042 7.72583 18.179 7.85241C18.1794 7.92692 18.2126 7.96818 18.2062 8.03588C18.1966 8.07474 18.1565 8.09998 18.0612 8.05471C18.076 8.04109 17.9995 7.93293 17.9995 7.93293C17.9254 7.88767 17.8261 7.93534 17.7616 7.9774C17.7259 8.04189 17.6999 8.15286 17.7399 8.26582C17.8469 8.46251 18.2126 8.7986 18.3873 8.80181Z" fill="white"/>
<path d="M14.667 9.96157L14.6686 9.95996C14.6686 9.95996 14.6698 9.95876 14.6702 9.95836L14.6718 9.95676C14.6718 9.95636 14.6718 9.95435 14.6718 9.95395C14.6722 9.95075 14.6718 9.94514 14.6702 9.93953L14.5869 9.89066L12.9477 9.88345C12.9273 9.87584 12.9125 9.86783 12.9033 9.86062C12.9025 9.86022 12.9008 9.85821 12.9004 9.85781C12.9 9.85741 12.8992 9.85661 12.8992 9.85621C12.8988 9.85581 12.898 9.85501 12.8976 9.85461C12.8976 9.85421 12.8964 9.8522 12.8964 9.8518C12.8964 9.8518 12.8952 9.8506 12.8948 9.8502C12.8948 9.8502 12.8948 9.849 12.8948 9.8486C12.8948 9.8486 12.8936 9.8474 12.8932 9.847C12.8932 9.847 12.8932 9.8458 12.8932 9.84539C12.8932 9.84539 12.8932 9.84419 12.8932 9.84379C12.8932 9.84379 12.8932 9.84259 12.8932 9.84219C12.8932 9.84179 12.8932 9.84099 12.8932 9.84059C12.8932 9.84059 12.8932 9.83939 12.8932 9.83899C12.8932 9.83899 12.8932 9.83778 12.8932 9.83738C12.8932 9.83738 12.8932 9.83618 12.8932 9.83578C12.8932 9.83578 12.8932 9.83458 12.8932 9.83418L12.8948 9.83258C12.8952 9.83178 12.8956 9.83057 12.8964 9.82977C12.9045 9.81896 12.9237 9.80894 12.9481 9.79973C13.3395 9.74645 14.0349 9.63228 14.081 8.9637C14.0738 8.61519 13.932 8.38726 13.5045 8.32396C13.1905 8.3484 12.9665 8.65204 13.0026 8.98653C12.9878 9.07667 13.033 9.25333 12.9409 9.27336C12.3384 9.32824 11.6807 9.70599 11.6586 9.97599C11.6586 9.97599 11.6574 9.97599 11.657 9.97599C11.6566 9.97639 11.6558 9.97719 11.6554 9.97759C11.655 9.97799 11.6534 9.97879 11.6526 9.97919C11.6522 9.97919 11.6502 9.97919 11.6498 9.97919C11.649 9.97959 11.6466 9.98039 11.6454 9.98079C11.645 9.98079 11.6442 9.98079 11.6442 9.98079C11.6434 9.98079 11.6418 9.98079 11.6414 9.98079C11.641 9.98079 11.6402 9.98079 11.6398 9.98079C11.6394 9.98079 11.6374 9.98079 11.637 9.98079C11.6354 9.98039 11.6326 9.97959 11.6314 9.97919C11.5921 9.96837 11.5417 9.90348 11.5497 9.81295C11.5268 9.34586 11.3746 8.81749 11.1367 8.41049C11.0517 8.32557 11.0145 8.29112 10.9904 8.28711C10.9896 8.28711 10.9884 8.28711 10.9876 8.28711C10.9868 8.28711 10.9848 8.28711 10.9832 8.28711C10.9828 8.28711 10.982 8.28711 10.9816 8.28711H10.9804C10.98 8.28711 10.9792 8.28711 10.9788 8.28711C10.9764 8.28791 10.974 8.28991 10.9716 8.29152C10.9704 8.29232 10.9684 8.29352 10.9672 8.29432C10.9488 8.30834 10.9272 8.33999 10.8783 8.37444C10.7962 8.46777 10.7813 8.53307 10.7865 8.72014C10.7914 8.73977 10.9424 9.16039 11.0706 9.45602C11.1571 9.76327 11.2368 10.115 11.1783 10.4471C10.976 10.8861 10.5694 11.2799 10.1773 11.4942C9.97736 11.5583 9.80471 11.5363 9.75864 11.4926C9.75824 11.4922 9.75744 11.4914 9.75704 11.491C9.64207 11.4137 9.63967 11.2763 9.64648 11.2531C9.64648 11.2531 9.64648 11.2519 9.64648 11.2515C9.64688 11.2511 9.64768 11.2503 9.64808 11.2499C9.97896 11.0191 10.3575 10.8324 10.6536 10.2099C10.7409 9.97198 10.7677 9.82897 10.6808 9.46123C10.6467 9.32423 10.6051 9.21126 10.5117 9.11432L10.5133 9.11272C10.5698 9.08588 10.716 9.19364 10.7385 9.12554C10.704 8.95008 10.5851 8.71414 10.4501 8.59356C10.3323 8.4866 10.2037 8.47418 10.0959 8.57193C9.97416 8.63963 9.94852 8.88278 10.007 9.0955C10.0719 9.25573 10.2478 9.28377 10.3727 9.60624V9.60785C10.3755 9.62788 10.4156 9.8486 10.3527 9.93753C10.3014 10.097 9.64487 10.6149 9.5984 10.6462C9.598 10.6466 9.5948 10.6486 9.594 10.649C9.5936 10.6494 9.5928 10.6502 9.5924 10.6506C9.5924 10.6506 9.59119 10.6518 9.59079 10.6522C9.59079 10.6522 9.58959 10.6534 9.58919 10.6538C9.58919 10.6538 9.58799 10.6538 9.58759 10.6538C9.58759 10.6538 9.58639 10.6538 9.58599 10.6538C9.58559 10.6534 9.58479 10.6526 9.58479 10.6522C9.58479 10.6522 9.58479 10.651 9.58479 10.6506C9.58438 10.6502 9.58358 10.6482 9.58318 10.6478C9.58118 10.635 9.58478 10.6021 9.58318 10.5488C9.57878 10.4519 9.61883 10.2324 9.61603 10.1947C9.61603 10.1947 9.61603 10.1935 9.61603 10.1931C9.61563 10.1927 9.61483 10.1919 9.61483 10.1915C9.61483 10.1915 9.61483 10.1903 9.61483 10.1899C9.61443 10.1899 9.61323 10.1899 9.61323 10.1899C9.39611 10.3301 9.3244 10.7599 9.28475 10.8869C8.73514 11.2667 8.11102 11.5491 7.7517 11.9341C7.56462 12.2265 9.04159 11.5984 9.21304 11.5223C9.21464 11.5235 9.21584 11.5251 9.21745 11.5267C9.24989 11.5627 9.2527 11.6877 9.35084 11.8007C9.50427 12.0086 9.83075 12.1368 10.1484 12.0574C10.6808 11.8652 10.9876 11.5018 11.3001 11.0992C11.3446 11.0343 11.4147 10.9831 11.4796 11.0331C11.6943 11.5138 12.3132 11.8555 13.1132 11.8908C13.2982 11.6657 13.2097 11.5551 13.1348 11.5078C13.1116 11.4926 12.737 11.3464 12.6785 11.201C12.6421 11.0656 12.731 10.9454 12.9093 10.8553C13.4228 10.7932 13.928 10.7243 14.4167 10.5669C14.4215 10.4026 14.5184 10.1571 14.5829 10.0505C14.6274 9.97919 14.6562 9.97198 14.667 9.96157ZM13.3151 8.93206C13.3163 8.92685 13.3183 8.92244 13.3207 8.91763C13.3215 8.91603 13.3223 8.91323 13.3235 8.91203C13.3235 8.91163 13.3247 8.91082 13.3247 8.91042C13.3267 8.90802 13.3295 8.90522 13.3319 8.90321C13.3423 8.8952 13.3571 8.88919 13.3735 8.88759C13.4092 8.88398 13.4561 8.896 13.5013 8.92204C13.5666 8.9597 13.6067 9.01698 13.6019 9.05824C13.6019 9.05944 13.6023 9.06145 13.6019 9.06265C13.6015 9.06385 13.5995 9.06585 13.5991 9.06705C13.5987 9.06825 13.5979 9.07026 13.5975 9.07146C13.5971 9.07226 13.5963 9.07346 13.5959 9.07426C13.5955 9.07507 13.5947 9.07667 13.5943 9.07707C13.5923 9.08067 13.5887 9.08428 13.5859 9.08708C13.5546 9.11633 13.4821 9.11232 13.4136 9.07266C13.3487 9.03541 13.309 8.97772 13.3131 8.93646C13.3139 8.93526 13.3151 8.93326 13.3151 8.93206ZM12.6597 10.5741C12.4838 10.6342 12.3148 10.6814 12.314 10.9354C12.3372 11.0612 12.332 11.1273 12.3128 11.1577C12.3112 11.1601 12.3088 11.1629 12.3072 11.1649C12.3068 11.1653 12.306 11.1661 12.3056 11.1665C12.3052 11.1669 12.3044 11.1677 12.304 11.1681C12.3036 11.1685 12.3028 11.1693 12.3028 11.1697L12.3012 11.1713C12.3008 11.1717 12.2988 11.1725 12.2984 11.1729C12.296 11.1745 12.2924 11.1761 12.2896 11.1773C12.2871 11.1781 12.2835 11.1782 12.2811 11.179C12.2395 11.185 12.1786 11.1453 12.1333 11.1217C12.0248 11.044 11.7207 10.8553 11.6771 10.4503C11.671 10.3589 11.7391 10.28 11.8493 10.2724C11.8545 10.272 11.8593 10.2724 11.8649 10.2724H11.8677C12.0504 10.3221 12.3196 10.3273 12.5531 10.3513C12.7438 10.3622 12.838 10.5116 12.6597 10.5741Z" fill="white"/>
<path d="M12.1182 8.98806C12.3069 9.07819 12.7568 9.02492 12.6474 8.73409C12.6474 8.70725 12.6402 8.61672 12.6374 8.59228C12.6182 8.54741 12.5825 8.53059 12.5485 8.5362C12.5144 8.54221 12.4816 8.57025 12.4696 8.61631C12.4619 8.64676 12.484 8.69723 12.4567 8.71246C12.4411 8.72848 12.3798 8.71927 12.3822 8.63514C12.3822 8.6083 12.3626 8.57906 12.3506 8.56184C12.3386 8.55382 12.3322 8.55182 12.3105 8.55182C12.2841 8.55302 12.2833 8.55983 12.2689 8.58186C12.2629 8.6043 12.2544 8.62673 12.2544 8.65197C12.2512 8.68201 12.2408 8.69203 12.2188 8.69643C12.1944 8.69643 12.2 8.69924 12.1799 8.68642C12.1679 8.6736 12.1527 8.66839 12.1527 8.64636C12.1527 8.62353 12.1483 8.58707 12.1411 8.57185C12.1307 8.55823 12.1126 8.55222 12.0938 8.54741C11.9909 8.54781 11.9844 8.66479 11.9905 8.70965C11.9828 8.71806 11.9776 8.92957 12.1182 8.98806Z" fill="white"/>
<path d="M18.9268 16.8342C18.8143 16.851 18.4978 16.883 18.4978 16.883C18.1321 16.8394 17.8637 16.835 17.4523 16.8197C17.4903 16.7717 17.5572 16.5762 17.4751 16.5057C17.4539 16.4881 17.4218 16.478 17.3778 16.4813C17.3774 16.4813 17.3766 16.4813 17.3762 16.4813C17.3758 16.4813 17.3738 16.4813 17.3734 16.4813C17.373 16.4813 17.3722 16.48 17.3718 16.4796C17.3706 16.4792 17.3685 16.4788 17.3673 16.478C17.3649 16.4764 17.3621 16.4732 17.3601 16.4708C17.3597 16.47 17.3577 16.4688 17.3573 16.468C17.3365 16.4376 17.3253 16.3635 17.3113 16.3447C17.3113 16.3447 17.3101 16.3434 17.3097 16.343C17.3097 16.343 17.3085 16.3418 17.3085 16.3414C17.3081 16.341 17.3061 16.3402 17.3057 16.3398C17.3053 16.3398 17.3045 16.3398 17.3041 16.3398C17.3041 16.3398 17.3029 16.3398 17.3025 16.3398C17.3021 16.3402 17.3013 16.341 17.3013 16.341C17.0293 16.4107 17.0377 16.6932 17.2123 16.8173C14.3397 16.8173 9.93084 16.7685 8.98545 16.7685C8.45668 16.7685 6.78302 16.7052 6.75098 16.7052C7.1099 17.2299 7.62986 17.3369 8.31006 17.3477C9.58593 17.3477 15.4982 17.3321 17.1807 17.3321C17.0609 17.5444 17.1915 17.8861 17.2852 17.949C17.2872 17.9502 17.2904 17.9522 17.2924 17.9534C17.296 17.955 17.3004 17.957 17.3041 17.9578C17.3053 17.9582 17.3073 17.9578 17.3085 17.9578C17.4198 17.9843 17.4687 17.9033 17.5064 17.8444C17.687 17.8605 18.7041 17.8749 18.797 17.8428C18.7974 17.8428 18.7982 17.8416 18.7986 17.8412C18.8615 17.9338 18.924 18.0215 19.0438 18.0063C19.2533 17.9614 19.4188 17.9386 19.424 17.5128C19.4244 17.514 19.4027 16.7889 18.9268 16.8342ZM18.7217 17.6117C18.7197 17.6125 18.7165 17.6141 18.7145 17.6145C18.7129 17.6149 18.7105 17.6145 18.7089 17.6145C18.7073 17.6145 18.7049 17.6149 18.7033 17.6145C18.5671 17.6109 18.4882 17.6081 18.352 17.6045C18.352 17.5977 18.3512 17.5905 18.3492 17.5845C18.3167 17.4887 18.0828 17.4951 18.0279 17.57C18.0271 17.5712 18.0259 17.5733 18.0251 17.5745C18.0243 17.5761 18.0231 17.5785 18.0223 17.5801C18.0215 17.5821 18.0199 17.5853 18.0195 17.5873C18.0187 17.5901 18.0183 17.5945 18.0179 17.5973C18.0175 17.6009 18.0163 17.6053 18.0163 17.6089C17.8324 17.6309 17.6666 17.6029 17.4827 17.5961C17.4286 17.5288 17.435 17.4074 17.4983 17.3782C17.4987 17.3778 17.4991 17.3786 17.4995 17.3782C17.9186 17.3986 18.3123 17.3822 18.7317 17.4026C18.7982 17.4587 18.765 17.5881 18.7217 17.6117Z" fill="white"/>
<path d="M13.8014 11.7893C13.8014 11.7965 13.8751 11.8598 13.962 11.8093C14.1451 11.7396 14.2592 11.6715 14.5156 11.6158C14.5829 11.6146 14.5789 11.4343 14.4728 11.4279C14.3338 11.4347 14.2056 11.442 14.067 11.5513C13.9816 11.5709 13.9668 11.5189 13.948 11.4724C13.9264 11.3566 13.9969 11.2753 13.9824 11.1884C13.9864 11.1924 13.9392 11.1499 13.8791 11.1467C13.8591 11.1455 13.8378 11.1487 13.8158 11.1595C13.8114 11.1595 13.6227 11.2873 13.5618 11.3763C13.5246 11.4043 13.529 11.4291 13.5402 11.478C13.569 11.5445 13.6199 11.5237 13.678 11.4924C13.7549 11.482 13.7918 11.5321 13.7857 11.6242C13.7501 11.7396 13.8014 11.7821 13.8014 11.7893Z" fill="white"/>
<path d="M20.1361 11.7421C20.1005 11.7012 20.0195 11.7256 19.9655 11.7192C19.9398 11.7192 19.8549 11.7068 19.8954 11.6319C19.929 11.5854 19.9414 11.5574 19.9643 11.5001C19.9899 11.444 19.9675 11.406 19.8753 11.3755C19.8285 11.3671 19.796 11.3643 19.762 11.3655C19.7279 11.3667 19.6919 11.3711 19.6402 11.3755C19.5841 11.3875 19.5645 11.412 19.5541 11.4801C19.5581 11.5834 19.6214 11.5782 19.6859 11.6191C19.7235 11.6667 19.7475 11.71 19.6831 11.7881C19.6218 11.8442 19.5781 11.8754 19.5168 11.9315C19.488 11.9808 19.4699 12.0569 19.5585 12.0805C19.7219 12.1266 20.1005 11.8807 20.1005 11.8754C20.1618 11.8294 20.1413 11.7421 20.1361 11.7421Z" fill="white"/>
<path d="M17.2104 11.2534C17.3418 11.2542 17.494 10.9526 17.5589 10.6537C17.5945 10.2423 17.5352 9.99197 17.5244 9.75002C17.5136 9.50806 17.2508 7.54638 17.1975 7.36332C17.133 7.01721 17.4535 7.31765 17.4183 7.11655C17.3077 6.86298 17.0313 6.49364 16.9452 6.27332C16.9127 6.21443 16.9087 6.15955 16.8819 6.16436C16.8659 6.16716 16.8422 6.1916 16.7986 6.24888C16.6908 6.6018 16.6527 6.89022 16.694 7.10934C16.9716 8.55747 17.2556 9.8758 17.2104 11.2534Z" fill="white"/>
<path d="M21.3102 7.4225C21.2978 7.33116 21.2573 7.12126 21.2729 7.09402C21.2982 7.02992 21.4244 7.10043 21.4696 7.02672C21.5357 6.95942 21.1427 6.45588 21.0049 6.24076C20.9773 6.18669 20.9605 6.14222 20.936 6.14462C20.9172 6.14663 20.894 6.17707 20.8587 6.25198C20.7734 6.39139 20.7442 6.64095 20.7782 6.86168C20.9833 8.24771 21.1355 9.59008 21.1668 10.8187C21.1492 10.9353 21.1439 10.9973 21.0895 11.1444C20.9685 11.2994 20.8351 11.4937 20.7093 11.5874C20.5835 11.6811 20.3163 11.7705 20.2286 11.8398C19.9514 12 19.9498 12.1847 20.1741 12.1911C20.5607 12.1462 21.0178 12.1146 21.333 11.6391C21.4171 11.5057 21.5165 11.1444 21.5209 10.9232C21.5505 9.62693 21.5045 8.35947 21.3102 7.4225Z" fill="white"/>
<path d="M18.7548 10.4817C18.8137 10.5134 18.9683 10.3231 18.9627 10.0843C18.9799 9.96176 18.919 9.5099 18.7648 9.43298C18.7472 9.42818 18.7276 9.42657 18.7087 9.42858C18.6282 9.43859 18.5517 9.5147 18.5869 9.63648C18.5649 9.70819 18.6963 9.95815 18.7304 10.0911C18.7612 10.1861 18.6911 10.4533 18.7548 10.4817Z" fill="white"/>
<path d="M6.58337 6.64439C6.77205 6.73452 7.12617 6.69647 7.11135 6.39202C7.11135 6.36518 7.10534 6.27465 7.10254 6.25022C7.08331 6.20535 7.04806 6.18852 7.01401 6.19453C6.97996 6.20054 6.94711 6.22858 6.93509 6.27465C6.92748 6.30509 6.94831 6.35557 6.92067 6.37079C6.90505 6.38682 6.84496 6.376 6.84736 6.29188C6.84736 6.26504 6.82773 6.237 6.81571 6.22017C6.8037 6.21256 6.79569 6.21016 6.77405 6.21016C6.74761 6.21136 6.74842 6.21817 6.734 6.2402C6.72759 6.26263 6.71917 6.28466 6.71917 6.3103C6.71597 6.34035 6.70395 6.35036 6.68192 6.35477C6.65748 6.35477 6.66309 6.35757 6.64306 6.34475C6.63144 6.33194 6.61742 6.32673 6.61742 6.30469C6.61742 6.28186 6.61141 6.24541 6.6046 6.23018C6.59419 6.21656 6.57776 6.20935 6.55854 6.20455C6.45559 6.20495 6.44798 6.32352 6.45398 6.36799C6.44677 6.376 6.44277 6.58591 6.58337 6.64439Z" fill="white"/>
<path d="M9.4348 7.6293C9.41156 7.6269 9.38112 7.63531 9.34587 7.65654C9.17882 7.74668 9.11433 8.01467 9.21808 8.1713C9.31502 8.3095 9.46885 8.25863 9.48928 8.25863C9.65271 8.27906 9.75046 7.95178 9.75046 7.95178C9.75046 7.95178 9.75527 7.85964 9.56098 8.0335C9.47926 8.04872 9.46804 8.01948 9.44761 7.97341C9.43039 7.88808 9.43439 7.80196 9.47325 7.71663C9.49168 7.66576 9.47365 7.63331 9.4348 7.6293Z" fill="white"/>
<path d="M16.2247 10.9599C15.921 11.2768 15.4836 11.6677 15.0069 11.8476C14.9556 11.9053 15.1343 12.1504 15.3654 12.15C15.752 12.1052 16.0917 11.8881 16.4065 11.3168C16.4907 11.1834 16.6389 10.8982 16.6433 10.6771C16.6729 9.38078 16.578 8.3729 16.3837 7.43593C16.3713 7.3446 16.3797 7.23684 16.3953 7.2092C16.4202 7.17915 16.5051 7.21 16.5503 7.13589C16.6164 7.06859 16.3741 6.50937 16.2363 6.29385C16.2086 6.23977 16.1918 6.19691 16.1674 6.19932C16.1486 6.20132 16.1253 6.23056 16.0901 6.30547C16.0052 6.44488 15.9471 6.68763 15.9539 6.91517C16.1381 8.19184 16.1946 9.30868 16.3152 10.5853C16.3248 10.7091 16.3068 10.8882 16.2247 10.9599Z" fill="white"/>
<path d="M5.71454 9.04492C5.26108 9.05333 4.5977 9.63899 4.58008 9.96427C5.05838 9.73473 5.52827 9.51361 6.01418 9.27566C5.93567 9.15869 6.00937 9.05333 5.71454 9.04492Z" fill="white"/>
<path d="M4.8351 11.4497C4.71573 11.6917 4.66645 11.5262 4.65564 11.3908C4.63721 11.1344 4.66205 10.8981 4.69009 10.711C4.70491 10.6153 4.70451 10.5816 4.69289 10.582C4.68168 10.5824 4.65844 10.6165 4.6284 10.6553C4.3588 11.0848 4.33477 11.7261 4.48339 11.9176C4.5623 12.0081 4.69289 12.0478 4.78903 12.0193C4.95848 11.946 5.03299 11.6027 4.99253 11.4773C4.93605 11.3884 4.89158 11.3744 4.8351 11.4497Z" fill="white"/>
<path d="M4.88638 8.6538C5.43719 8.70667 5.13315 7.72243 5.33264 7.54377C5.37029 7.45564 5.44 7.45404 5.446 7.5654V8.40143C5.4408 8.67343 5.61986 8.75394 5.75886 8.81003C5.90348 8.79881 5.99921 8.80282 6.0557 8.94342C6.07813 9.42533 6.10177 9.90844 6.1246 10.3907C6.1246 10.3907 6.45869 10.4869 6.47471 9.57755C6.49074 9.04357 6.36856 8.59571 6.44026 8.49196C6.44267 8.38981 6.57366 8.385 6.66379 8.43468C6.8076 8.53642 6.87169 8.66141 7.09562 8.61093C7.43612 8.5172 7.64122 8.35175 7.64643 8.09017C7.6264 7.84181 7.59756 7.59304 7.4902 7.34428C7.50542 7.29901 7.42491 7.18164 7.44013 7.13637C7.50142 7.23211 7.59395 7.2241 7.61519 7.13637C7.5571 6.94529 7.46697 6.76222 7.32115 6.68331C7.20058 6.57715 7.02432 6.59958 6.95982 6.82111C6.92978 7.07628 7.05236 7.37873 7.23823 7.62589C7.27789 7.72243 7.33277 7.88307 7.30834 8.02728C7.20939 8.08376 7.11165 8.06013 7.02872 7.9728C7.02872 7.9728 6.75753 7.7697 6.75753 7.72483C6.82963 7.26416 6.77315 7.21168 6.73309 7.08389C6.70505 6.90763 6.62173 6.85155 6.55363 6.73098C6.48593 6.65927 6.39379 6.65927 6.35013 6.73098C6.23035 6.93888 6.28644 7.38473 6.37296 7.58423C6.43545 7.7681 6.5316 7.88267 6.48633 7.88267C6.44907 7.98642 6.37176 7.96238 6.31568 7.84261C6.23596 7.59504 6.21954 7.2261 6.21954 7.05946C6.1955 6.85316 6.16866 6.41251 6.03326 6.30075C5.99721 6.25147 5.95435 6.23425 5.91269 6.23906C5.85941 6.24546 5.80934 6.28873 5.7849 6.34681C5.77609 6.55151 5.77489 6.75621 5.79772 6.94489C5.89066 7.27577 5.9203 7.567 5.96557 7.9059C5.97798 8.35977 5.70358 8.10219 5.716 7.87706C5.77929 7.58463 5.76247 7.12475 5.70598 7.00778C5.66112 6.89121 5.60944 6.86237 5.50088 6.8816C5.41476 6.87639 5.19163 7.11915 5.12954 7.52134C5.12954 7.52134 5.07746 7.72764 5.05503 7.91151C5.02459 8.11901 4.88678 8.26603 4.79104 7.88267C4.70812 7.60386 4.65725 6.91725 4.51864 7.07788C4.47818 7.61347 4.43091 8.55685 4.88638 8.6538Z" fill="white"/>
<path d="M5.07091 6.63178C5.09975 6.70388 5.04207 6.93582 5.10256 6.95745C5.15784 6.98149 5.23435 6.79682 5.26319 6.62617C5.27922 6.53283 5.2672 6.21276 5.04968 6.14707C5.03846 6.14466 5.02725 6.14306 5.01523 6.14266C4.93191 6.14025 4.84017 6.19193 4.87623 6.29168C4.8554 6.34656 5.03886 6.53043 5.07091 6.63178Z" fill="white"/>
<path d="M8.21533 10.805C8.41162 10.1512 8.21132 9.65811 8.27702 9.59722C8.27742 9.59682 8.27942 9.59602 8.27982 9.59562C8.28062 9.59522 8.28223 9.59442 8.28263 9.59402C8.28343 9.59362 8.28463 9.59281 8.28543 9.59241C8.28784 9.59201 8.29144 9.59121 8.29384 9.59081C8.5362 9.852 8.8763 9.62406 8.95081 9.53353C8.98285 9.48826 9.06257 9.45902 9.11865 9.5179C9.30773 9.6537 9.63902 9.58961 9.70832 9.35006C9.74838 9.11572 9.78203 8.87456 9.79004 8.62419C9.66706 8.66225 9.56771 8.69109 9.52765 8.73315C9.51804 8.74357 9.51123 8.75519 9.50883 8.76761C9.49801 8.83691 9.488 8.90621 9.47718 8.97551C9.47598 8.98112 9.47438 8.98633 9.47157 8.99113C9.46636 8.99954 9.45755 9.00756 9.44874 9.01276C9.40507 9.0364 9.32936 9.02278 9.32536 8.95989C9.26687 8.6935 9.02572 8.65905 8.8791 9.07165C8.78056 9.15137 8.60109 9.16699 8.58227 9.04721C8.6063 8.77041 8.49454 8.73315 8.27101 8.86375C8.1993 8.31534 8.128 7.79137 8.05589 7.24297C8.14923 7.24017 8.23456 7.30786 8.31988 7.20131C8.22775 6.91449 8.03266 6.33083 7.9225 6.27635C7.9217 6.27595 7.9205 6.27515 7.91969 6.27475C7.91489 6.26874 7.90888 6.26313 7.90407 6.25913C7.90207 6.25752 7.89886 6.25472 7.89686 6.25352C7.89486 6.25232 7.89165 6.25031 7.88965 6.24911C7.88524 6.24671 7.87964 6.2447 7.87523 6.2435C7.86521 6.2407 7.8556 6.2395 7.84519 6.2407C7.81795 6.2443 7.7875 6.25993 7.75185 6.26794C7.63488 6.30519 7.52512 6.40654 7.55957 6.60363C7.69817 7.44487 7.7883 8.08701 7.9265 8.92864C7.94774 9.02719 7.86521 9.15698 7.75866 9.14376C7.57759 9.02118 7.53273 8.77321 7.22387 8.78363C7.00035 8.78643 6.74517 9.02959 6.71312 9.26393C6.67587 9.45021 6.66265 9.6521 6.71312 9.81474C6.87016 10.0038 7.05883 9.98379 7.22387 9.94093C7.35967 9.88524 7.47144 9.75105 7.51911 9.78309H7.52071V9.7847C7.55035 9.83637 7.51791 10.2742 6.88097 10.6123C6.4896 10.7882 6.17794 10.8302 6.0105 10.5106C5.90674 10.3107 6.01811 9.55035 5.76253 9.72621C5.00622 11.6751 7.53393 11.9475 7.81634 9.80633C7.83477 9.74584 7.89045 9.68535 7.92971 9.70017C7.94694 9.70738 7.96256 9.73102 7.96857 9.77468C7.91008 11.7131 6.0133 11.8461 5.69083 11.236C5.61111 11.0922 5.58707 10.7725 5.57906 10.5807C5.56464 10.4645 5.5354 10.3976 5.50175 10.3712C5.42484 10.3135 5.32148 10.4641 5.29945 10.7253C5.2674 10.9356 5.27662 10.9933 5.27662 11.1956C5.37757 12.7274 7.81835 12.0696 8.21533 10.805ZM7.27234 9.48025V9.48185C7.27194 9.48265 7.27154 9.48426 7.27074 9.48466C7.25192 9.50909 7.18502 9.49908 7.13735 9.49908C7.07966 9.49667 7.05162 9.48706 7.01677 9.44019C7.00035 9.38811 7.05042 9.33684 7.07285 9.29838C7.07285 9.29798 7.07405 9.29718 7.07405 9.29678C7.07646 9.29318 7.08046 9.28877 7.08407 9.28516C7.1013 9.26954 7.13094 9.25472 7.16299 9.25071C7.16899 9.24991 7.1754 9.24911 7.18181 9.24911C7.22628 9.24951 7.27315 9.27154 7.29798 9.33363C7.32042 9.39092 7.29918 9.45061 7.27234 9.48025Z" fill="white"/>
<path d="M15.3446 8.01736C15.5333 8.10749 15.889 8.06783 15.8738 7.76338C15.8738 7.73654 15.8666 7.64601 15.8638 7.62158C15.8445 7.57671 15.8089 7.55989 15.7748 7.56549C15.7408 7.5715 15.7079 7.60075 15.6959 7.64721C15.6883 7.67766 15.7103 7.72653 15.6831 7.74175C15.6675 7.75778 15.6062 7.74856 15.6086 7.66444C15.6086 7.6376 15.589 7.60836 15.577 7.59113C15.5649 7.58352 15.5569 7.58112 15.5353 7.58112C15.5089 7.58232 15.5097 7.58913 15.4952 7.61116C15.4892 7.63359 15.4808 7.65603 15.4808 7.68126C15.4776 7.71131 15.4672 7.72132 15.4452 7.72573C15.4207 7.72573 15.4251 7.72853 15.4051 7.71571C15.3931 7.7029 15.3795 7.69769 15.3795 7.67565C15.3795 7.65282 15.3735 7.61637 15.3666 7.60115C15.3562 7.58753 15.3398 7.58152 15.3206 7.57671C15.2176 7.57711 15.2116 7.69408 15.2172 7.73895C15.2092 7.74776 15.204 7.95927 15.3446 8.01736Z" fill="white"/>
<path d="M15.4712 6.83825C15.5385 7.02693 15.4199 7.2068 15.49 7.23283C15.5545 7.26208 15.6442 7.03815 15.6779 6.83145C15.7167 6.664 15.5974 6.3215 15.4283 6.25059C15.4155 6.24739 15.4019 6.24659 15.3883 6.24619C15.2917 6.24338 15.1844 6.30427 15.226 6.42565C15.2016 6.49135 15.4339 6.71527 15.4712 6.83825Z" fill="white"/>
<path d="M8.4356 7.743H8.4372C8.4376 7.743 8.4384 7.7442 8.4388 7.7446H8.4404C8.4404 7.7446 8.44161 7.7458 8.44201 7.7462C8.47766 7.77023 8.91951 7.76983 8.96838 7.7478C8.96878 7.7478 8.96958 7.7466 8.96958 7.7462H8.97118C8.97118 7.7462 8.97118 7.745 8.97118 7.7446C9.123 7.68851 9.84326 6.86531 9.84326 6.86531C9.80601 6.83326 9.77156 6.80963 9.7343 6.77798C9.69424 6.74353 9.69825 6.70948 9.7343 6.67463C9.91256 6.57088 9.85608 6.34254 9.76314 6.23879C9.68583 6.20434 9.61332 6.19232 9.54803 6.19593C9.48273 6.19913 9.42505 6.21796 9.37577 6.2432C9.25079 6.36297 9.22115 6.55525 9.31969 6.67503C9.41543 6.7203 9.51117 6.81684 9.44748 6.87011C9.17628 7.15974 8.47045 7.64365 8.43479 7.73218C8.43439 7.73298 8.43359 7.73418 8.43359 7.73498V7.73779V7.73939C8.43359 7.74019 8.43439 7.74179 8.43479 7.74219C8.43439 7.74179 8.43519 7.74259 8.4356 7.743ZM9.50356 6.4523C9.50637 6.4515 9.50917 6.4511 9.51197 6.4507C9.55604 6.44629 9.60932 6.48675 9.63536 6.54404C9.663 6.60493 9.64938 6.66341 9.60371 6.67463C9.55844 6.68584 9.49956 6.64538 9.47192 6.58409C9.44428 6.52321 9.4583 6.46352 9.50356 6.4523Z" fill="white"/>
<path d="M13.7157 6.90888C14.0322 7.33431 14.3367 7.76174 14.6307 8.20398C14.6768 8.53247 14.7108 8.85374 14.7324 9.17341C14.7801 9.87484 14.7945 10.7481 14.7513 11.4868C14.8827 11.492 15.0934 11.2745 15.1671 10.956C15.2151 10.5154 15.1498 9.61686 15.1454 9.35687C15.1422 9.24912 15.1358 9.12013 15.1282 8.98553C15.4703 9.54435 15.802 10.1368 16.1277 10.787C16.2463 10.7305 16.2202 10.0619 16.1505 9.96817C15.8897 9.40695 15.5296 8.85294 15.4146 8.64022C15.3734 8.56331 15.232 8.3486 15.0645 8.10103C15.0337 7.74772 15 7.44848 14.9784 7.35794C14.9247 6.9846 15.1318 7.40001 15.1034 7.18289C15.0361 6.80994 14.8302 6.55637 14.587 6.21467C14.5085 6.1037 14.5101 6.08087 14.3891 6.24191C14.3166 6.40615 14.3178 6.54275 14.3391 6.67054C14.3074 6.62447 14.2678 6.56919 14.2113 6.50149C14.0014 6.32122 13.9885 6.31161 13.8139 6.16459C13.759 6.12574 13.6545 6.06565 13.5743 6.07286C13.5263 6.07727 13.4882 6.10531 13.4738 6.17621C13.4546 6.34286 13.4646 6.43339 13.4926 6.57199C13.5147 6.66453 13.6492 6.81915 13.7157 6.90888ZM14.3855 6.88365C14.3935 6.9197 14.4016 6.95575 14.4072 6.99261C14.4252 7.07193 14.4408 7.15084 14.4572 7.22936C14.3875 7.13362 14.3298 7.0559 14.3054 7.02866C14.148 6.84159 14.3086 6.90568 14.3855 6.88365Z" fill="white"/>
<path d="M10.5011 8.22724C10.7214 8.31857 10.8612 7.89916 10.9514 7.43968C11.0131 7.3107 11.0603 7.29587 11.092 7.36237C11.084 7.97287 11.1356 8.10947 11.2927 8.29454C11.6428 8.56494 11.9324 8.32859 11.9552 8.30616C11.9781 8.28332 12.2276 8.03376 12.2276 8.03376C12.2885 7.97006 12.3686 7.96606 12.4544 8.02214C12.5377 8.09785 12.5269 8.22844 12.7055 8.31897C12.8558 8.37906 13.1762 8.3334 13.2507 8.20441C13.3509 8.03295 13.3749 7.97407 13.4214 7.90877C13.4927 7.81383 13.6149 7.8559 13.6149 7.88594C13.6037 7.93882 13.5316 7.99129 13.5804 8.08663C13.6653 8.15033 13.685 8.10947 13.7355 8.09505C13.9133 8.01012 14.0467 7.62476 14.0467 7.62476C14.0547 7.48095 13.9726 7.49176 13.9205 7.52141C13.8524 7.56307 13.848 7.57709 13.7799 7.61875C13.693 7.63157 13.5247 7.68885 13.4414 7.55986C13.3565 7.40483 13.3557 7.18852 13.2908 7.03189C13.2908 7.02067 13.177 6.78593 13.2824 6.7707C13.3353 6.78072 13.4494 6.80996 13.4675 6.71462C13.5231 6.62169 13.3473 6.3585 13.2279 6.2255C13.1242 6.11174 12.9807 6.09772 12.8421 6.21389C12.7448 6.30322 12.7592 6.40296 12.7404 6.4979C12.7156 6.60646 12.7204 6.74146 12.8309 6.88527C12.9279 7.07635 13.1041 7.32191 13.046 7.66842C13.046 7.66842 12.9435 7.83346 12.7636 7.81183C12.6887 7.79541 12.5661 7.76296 12.5012 7.28265C12.452 6.91892 12.5137 6.40977 12.3594 6.17102C12.3246 6.08089 12.2945 5.99356 12.2449 6.00037C12.2148 6.00438 12.1784 6.04284 12.1271 6.13537C12.0906 6.23191 11.9332 6.37853 12.047 6.68057C12.1399 6.87205 12.178 7.18291 12.1359 7.52982C12.0714 7.62836 12.057 7.66241 11.9725 7.76056C11.8539 7.88794 11.7253 7.8555 11.6268 7.80783C11.5346 7.74573 11.4621 7.71369 11.4201 7.5166C11.4277 7.20214 11.4461 6.68778 11.3884 6.57842C11.3039 6.40937 11.1641 6.46986 11.1044 6.52114C10.8176 6.78312 10.6762 7.22577 10.5896 7.57829C10.5103 7.83506 10.4254 7.76055 10.3661 7.6572C10.2211 7.5214 10.2111 6.46025 10.036 6.6345C9.75521 7.43568 10.1959 8.31256 10.5011 8.22724Z" fill="white"/>
<path d="M11.7377 6.7175C11.8462 6.42467 11.8466 6.29969 11.8538 6.1755C11.837 6.08097 11.7958 6.0353 11.7493 6.0393C11.7028 6.04331 11.6508 6.09779 11.6087 6.20274C11.5726 6.28246 11.5282 6.70027 11.5358 6.70027C11.5065 6.82446 11.6652 6.87733 11.7377 6.7175Z" fill="white"/>
<path d="M10.6026 6.64916C10.6643 6.6039 10.6851 6.57465 10.7059 6.49854C10.7316 6.37075 10.5713 6.55903 10.5509 6.41682C10.5153 6.28463 10.6174 6.23055 10.7143 6.10276C10.7164 6.04267 10.7176 5.9934 10.6787 5.9922C10.6611 5.9918 10.6342 6.00141 10.597 6.02385C10.5133 6.07993 10.3466 6.25338 10.3418 6.45248C10.3366 6.56504 10.3154 6.56464 10.3891 6.63594C10.4423 6.71286 10.4952 6.70525 10.6026 6.64916Z" fill="white"/>
</svg>
