<svg width="25" height="25" viewBox="0 0 25 25" fill="none" xmlns="http://www.w3.org/2000/svg">
<g clip-path="url(#clip0_253_2932)">
<path d="M1.58301 24.7521H14.3336C14.7219 24.7521 15.0367 24.4374 15.0367 24.049V22.549C15.0367 21.6324 14.4487 20.8507 13.6304 20.5605V19.6455C13.6304 18.5324 12.7248 17.627 11.6117 17.627H4.30487C3.19177 17.627 2.28613 18.5324 2.28613 19.6455V20.5605C1.46783 20.8507 0.879883 21.6324 0.879883 22.549V24.049C0.879883 24.4374 1.19464 24.7521 1.58301 24.7521ZM4.30487 19.0332H11.6117C11.9493 19.0332 12.2242 19.3079 12.2242 19.6455V20.4396H3.69257V19.6455C3.69257 19.3079 3.96722 19.0332 4.30487 19.0332ZM2.28613 22.549C2.28613 22.1612 2.60162 21.8459 2.98926 21.8459H12.9271C13.3149 21.8459 13.6304 22.1612 13.6304 22.549V23.3459H2.28613V22.549Z" fill="#F5CB00"/>
<path d="M8.97909 15.3901C9.67653 16.3164 11.0011 16.5083 11.9331 15.8067C12.5539 15.3394 12.8426 14.593 12.758 13.872C13.3626 13.7691 13.9469 13.6008 14.5025 13.3739L21.0858 22.1181C21.7835 23.045 23.1082 23.236 24.0399 22.5347C24.969 21.835 25.1559 20.5099 24.4563 19.5806L17.8731 10.8364C18.2444 10.3653 18.5676 9.8506 18.8336 9.29817C19.5113 9.58235 20.3073 9.50196 20.921 9.03981C21.8503 8.34016 22.0373 7.01503 21.3376 6.08577L17.9542 1.59181C17.2545 0.662548 15.9294 0.475781 15.0001 1.17543C14.3794 1.64271 14.0907 2.38887 14.1753 3.10994C11.5257 3.56129 9.26674 5.26179 8.1 7.68299C7.4236 7.39936 6.63112 7.47627 6.01223 7.94209C5.08077 8.64338 4.89437 9.96467 5.59566 10.8961L8.97909 15.3901ZM16.8958 11.8767L17.8348 13.1238L16.7113 13.9696L15.7723 12.7226C16.1702 12.473 16.5459 12.19 16.8958 11.8767ZM23.1939 21.4111C22.8841 21.6444 22.4425 21.5822 22.2092 21.2724L17.557 15.0931L18.6806 14.2473L23.3327 20.4264C23.566 20.7362 23.5036 21.1779 23.1939 21.4111ZM15.8461 2.29896C16.1568 2.06495 16.5983 2.12904 16.8308 2.43776L20.2141 6.93171C20.4473 7.24134 20.3851 7.68318 20.0753 7.91627C19.7649 8.1501 19.3245 8.08802 19.0907 7.77748L15.7073 3.28352C15.474 2.97371 15.5363 2.53206 15.8461 2.29896ZM14.8172 4.43928C15.1217 4.84395 17.4241 7.90217 17.7337 8.31324C16.7741 10.646 14.624 12.2652 12.1162 12.5426L9.19973 8.66847C10.1605 6.33296 12.307 4.71705 14.8172 4.43928ZM6.85817 9.06562C7.16781 8.83235 7.60854 8.89332 7.84273 9.20442L11.2262 13.6984C11.2262 13.6984 11.2262 13.6984 11.2262 13.6986C11.4592 14.0082 11.397 14.4498 11.0874 14.6831C10.7775 14.9162 10.3359 14.854 10.1026 14.5443L6.7192 10.0504C6.48556 9.73982 6.54763 9.29945 6.85817 9.06562Z" fill="#0E0E0E"/>
</g>
<defs>
<clipPath id="clip0_253_2932">
<rect width="24.0001" height="24" fill="white" transform="translate(0.879883 0.751953)"/>
</clipPath>
</defs>
</svg>
