<svg width="75" height="73" viewBox="0 0 75 73" fill="none" xmlns="http://www.w3.org/2000/svg">
<mask id="path-1-outside-1_1048_159" maskUnits="userSpaceOnUse" x="0.921875" y="0.796875" width="74" height="72" fill="black">
<rect fill="white" x="0.921875" y="0.796875" width="74" height="72"/>
<path d="M0.921875 4.79688C0.921875 2.58774 2.71274 0.796875 4.92188 0.796875H68.9219C71.131 0.796875 72.9219 2.58774 72.9219 4.79688V68.7969C72.9219 71.006 71.131 72.7969 68.9219 72.7969H4.92188C2.71274 72.7969 0.921875 71.006 0.921875 68.7969V4.79688Z"/>
</mask>
<path d="M0.921875 4.79688C0.921875 2.58774 2.71274 0.796875 4.92188 0.796875H68.9219C71.131 0.796875 72.9219 2.58774 72.9219 4.79688V68.7969C72.9219 71.006 71.131 72.7969 68.9219 72.7969H4.92188C2.71274 72.7969 0.921875 71.006 0.921875 68.7969V4.79688Z" fill="#F0F0F0"/>
<g clip-path="url(#clip0_1048_159)">
<path d="M51.0429 47.0391C50.356 47.0391 49.7107 47.2193 49.1505 47.5339L44.7615 43.1447C46.1692 41.4095 47.0141 39.2002 47.0141 36.7969C47.0141 34.3936 46.1692 32.1842 44.7615 30.449L47.199 28.0114C47.9817 28.5183 48.9134 28.814 49.9134 28.814C52.6751 28.814 54.9219 26.5672 54.9219 23.8054C54.9219 21.0437 52.675 18.7969 49.9133 18.7969C47.1516 18.7969 44.9047 21.0437 44.9047 23.8054C44.9047 24.8054 45.2005 25.7371 45.7074 26.5199L43.27 28.9575C41.5348 27.5497 39.3253 26.7046 36.9219 26.7046C34.5185 26.7046 32.3091 27.5497 30.5738 28.9575L26.1849 24.5683C26.4995 24.0081 26.6797 23.3628 26.6797 22.6757C26.6797 20.537 24.9396 18.7969 22.8008 18.7969C20.662 18.7969 18.9219 20.537 18.9219 22.6758C18.9219 24.8146 20.662 26.5547 22.8008 26.5547C23.4877 26.5547 24.133 26.3745 24.6932 26.0599L29.0822 30.4491C27.6745 32.1842 26.8296 34.3936 26.8296 36.7969C26.8296 39.2002 27.6745 41.4095 29.0822 43.1447L26.6447 45.5823C25.862 45.0754 24.9304 44.7797 23.9304 44.7797C21.1687 44.7797 18.9219 47.0265 18.9219 49.7883C18.9219 52.5501 21.1687 54.7969 23.9304 54.7969C26.6922 54.7969 28.939 52.55 28.939 49.7883C28.939 48.7882 28.6433 47.8565 28.1363 47.0738L30.5738 44.6363C32.309 46.0441 34.5184 46.8891 36.9219 46.8891C39.3253 46.8891 41.5347 46.0441 43.27 44.6363L47.6589 49.0254C47.3444 49.5857 47.1641 50.231 47.1641 50.918C47.1641 53.0568 48.9041 54.7969 51.0429 54.7969C53.1818 54.7969 54.9219 53.0568 54.9219 50.9179C54.9219 48.7791 53.1818 47.0391 51.0429 47.0391ZM37.0062 38.0016C35.719 38.0016 34.6719 36.9544 34.6719 35.6672C34.6719 34.3801 35.7191 33.3329 37.0062 33.3329C38.2934 33.3329 39.3406 34.3801 39.3406 35.6672C39.3406 36.9544 38.2935 38.0016 37.0062 38.0016ZM36.923 40.111C39.7972 40.111 41.0333 42.3802 41.3385 43.4432C40.0729 44.287 38.5539 44.7797 36.9219 44.7797C35.29 44.7797 33.771 44.287 32.5053 43.4432C32.813 42.3716 34.0587 40.111 36.923 40.111ZM49.9133 20.9062C51.5119 20.9062 52.8125 22.2068 52.8125 23.8054C52.8125 25.4041 51.5119 26.7046 49.9133 26.7046C48.3147 26.7046 47.0141 25.4041 47.0141 23.8054C47.0141 22.2068 48.3146 20.9062 49.9133 20.9062ZM21.0312 22.6758C21.0312 21.7001 21.8251 20.9062 22.8008 20.9062C23.7765 20.9062 24.5703 21.7001 24.5703 22.6758C24.5703 23.6515 23.7765 24.4453 22.8008 24.4453C21.8251 24.4453 21.0312 23.6515 21.0312 22.6758ZM36.9219 28.8141C41.3236 28.8141 44.9047 32.3952 44.9047 36.7969C44.9047 38.7532 44.1969 40.5469 43.0246 41.9367C42.7358 41.3007 41.9303 39.7788 40.081 38.7887C40.8746 37.9856 41.3656 36.8829 41.3656 35.6672C41.3656 33.2169 39.3721 31.2235 36.9219 31.2235C34.4716 31.2235 32.4781 33.217 32.4781 35.6672C32.4781 36.8828 32.9691 37.9855 33.7627 38.7886C31.9139 39.7786 31.1083 41.2999 30.8192 41.9367C29.6468 40.547 28.9391 38.7532 28.9391 36.7969C28.9391 32.3951 32.5201 28.8141 36.9219 28.8141ZM23.9304 52.6875C22.3318 52.6875 21.0312 51.3869 21.0312 49.7883C21.0312 48.1897 22.3318 46.8891 23.9304 46.8891C25.5291 46.8891 26.8296 48.1897 26.8296 49.7883C26.8296 51.3869 25.5291 52.6875 23.9304 52.6875ZM51.0429 52.6875C50.0672 52.6875 49.2735 51.8937 49.2735 50.9179C49.2735 49.9422 50.0672 49.1485 51.0429 49.1485C52.0187 49.1485 52.8125 49.9422 52.8125 50.9179C52.8125 51.8937 52.0187 52.6875 51.0429 52.6875Z" fill="#464646"/>
</g>
<path d="M0.921875 0.796875H72.9219H0.921875ZM72.9219 72.7969H0.921875H72.9219ZM0.921875 72.7969V0.796875V72.7969ZM68.9219 0.796875C72.2356 0.796875 74.9219 3.48317 74.9219 6.79688V66.7969C74.9219 70.1106 72.2356 72.7969 68.9219 72.7969C70.0264 72.7969 70.9219 71.006 70.9219 68.7969V4.79688C70.9219 2.58774 70.0264 0.796875 68.9219 0.796875Z" fill="#F5CB00" mask="url(#path-1-outside-1_1048_159)"/>
<defs>
<clipPath id="clip0_1048_159">
<rect width="36" height="36" fill="white" transform="translate(18.9219 18.7969)"/>
</clipPath>
</defs>
</svg>
