<svg width="25" height="25" viewBox="0 0 25 25" fill="none" xmlns="http://www.w3.org/2000/svg">
<g clip-path="url(#clip0_253_2950)">
<path d="M17.6255 13.2982C17.4906 13.2505 17.353 13.2008 17.2154 13.1492V10.8156C17.5205 10.8988 17.6759 11.0526 17.6868 11.0637C17.8997 11.3054 18.2682 11.3301 18.5113 11.1181C18.7553 10.9055 18.7808 10.5354 18.5682 10.2914C18.3464 10.0369 17.8796 9.71597 17.2154 9.61922V9.20508C17.2154 8.8815 16.9531 8.61914 16.6295 8.61914C16.3059 8.61914 16.0436 8.8815 16.0436 9.20508V9.68728C15.9828 9.70223 15.9215 9.71836 15.8591 9.73716C15.0954 9.96717 14.5249 10.62 14.3702 11.4408C14.2287 12.1915 14.4707 12.9165 15.0018 13.3331C15.2687 13.5425 15.5974 13.7343 16.0435 13.9355V16.9115C15.6804 16.8755 15.4318 16.773 15.023 16.5056C14.7522 16.3284 14.389 16.4043 14.2119 16.6752C14.0347 16.946 14.1106 17.3091 14.3815 17.4863C15.0307 17.911 15.4807 18.048 16.0436 18.087V18.5801C16.0436 18.9037 16.3059 19.166 16.6295 19.166C16.9531 19.166 17.2154 18.9037 17.2154 18.5801V18.0349C17.6523 17.937 18.049 17.7307 18.3828 17.424C18.8127 17.0289 19.103 16.4936 19.1999 15.9168C19.3987 14.7344 18.7807 13.7065 17.6255 13.2982ZM16.0436 12.6225C15.9256 12.5542 15.8177 12.4837 15.725 12.411C15.5423 12.2677 15.4625 11.9721 15.5218 11.6579C15.5716 11.3936 15.7343 11.0809 16.0436 10.9215V12.6225ZM18.0443 15.7225C17.973 16.1467 17.6916 16.5958 17.2154 16.8063V14.3961C17.222 14.3985 17.2283 14.4007 17.2349 14.403C18.1381 14.7223 18.0828 15.4937 18.0443 15.7225Z" fill="#F5CB00"/>
<path d="M24.3076 17.6001C23.8813 16.9485 23.6162 16.134 23.5199 15.1794L23.049 10.5139C22.8892 8.93133 22.1515 7.47239 20.9716 6.4058C20.465 5.94778 19.8944 5.57845 19.2824 5.30578L20.1614 2.37591C20.2253 2.163 20.1847 1.93247 20.052 1.75411C19.9194 1.5758 19.7102 1.4707 19.4879 1.4707H13.863C13.6407 1.4707 13.4316 1.5758 13.2989 1.75411C13.1662 1.93247 13.1256 2.163 13.1895 2.37591L14.0685 5.30592C13.4565 5.57869 12.8859 5.94811 12.3793 6.40627C11.1994 7.47305 10.4617 8.93213 10.3019 10.5147L10.1201 12.3165C9.21365 11.703 8.12704 11.3369 6.95774 11.3147L6.20976 9.71062C5.82745 8.89073 4.84935 8.53481 4.02951 8.91703L3.90051 8.97717C3.78571 8.35144 3.87923 7.69247 4.17937 7.1453C4.36612 6.8048 4.24152 6.37744 3.90102 6.19069C3.56057 6.00389 3.13316 6.12858 2.94641 6.46903C2.4262 7.41741 2.30732 8.54128 2.59612 9.58542L2.3302 9.70941C1.93302 9.89461 1.63176 10.2234 1.48185 10.6352C1.33195 11.047 1.3514 11.4925 1.5366 11.8897L2.2858 13.4963C1.47295 14.5024 0.985352 15.7815 0.985352 17.1727C0.985352 20.4035 3.61382 23.032 6.84468 23.032C7.92257 23.032 8.9332 22.7392 9.80174 22.2292C10.4525 22.7451 11.2688 23.0332 12.1173 23.0332H21.2334C23.1297 23.0332 24.726 21.6118 24.8676 19.7973C24.9288 19.0132 24.7352 18.2534 24.3076 17.6001ZM18.5429 2.87695L17.9425 4.87833C17.5285 4.79503 17.1044 4.75195 16.6755 4.75195C16.2465 4.75195 15.8225 4.79508 15.4085 4.87838L14.808 2.87695H18.5429ZM2.80326 11.1161C2.81568 11.0821 2.84788 11.0196 2.92443 10.9839L4.6237 10.1915C4.74079 10.137 4.88057 10.1878 4.93518 10.3049L5.48034 11.474C4.70099 11.6605 3.98165 12.0031 3.35737 12.467L2.81104 11.2954C2.77541 11.2188 2.79088 11.1502 2.80326 11.1161ZM6.84468 21.6257C4.38923 21.6257 2.3916 19.6281 2.3916 17.1726C2.3916 14.7172 4.38923 12.7195 6.84468 12.7195C9.30013 12.7195 11.2978 14.7172 11.2978 17.1726C11.2978 19.6281 9.30013 21.6257 6.84468 21.6257ZM23.4657 19.6879C23.3808 20.7752 22.4003 21.627 21.2334 21.627H12.1173C11.7105 21.627 11.3163 21.5213 10.9722 21.3272C12.0411 20.2652 12.7041 18.7949 12.7041 17.1726C12.7041 15.787 12.2203 14.5125 11.4133 13.5082L11.7011 10.6558C11.9599 8.09175 14.0984 6.1582 16.6755 6.1582C19.2526 6.1582 21.3911 8.09142 21.6499 10.6551L22.1207 15.3206C22.2399 16.5019 22.5798 17.5279 23.131 18.3701C23.3867 18.7609 23.5024 19.2165 23.4657 19.6879Z" fill="#0E0E0E"/>
<path d="M2.37506 4.96144C2.47453 4.96144 2.57564 4.9402 2.67178 4.89539C3.02372 4.73128 3.17597 4.31292 3.01186 3.96098L2.21944 2.26163C2.05528 1.90973 1.63697 1.75734 1.28503 1.92155C0.933092 2.08566 0.780842 2.50402 0.944952 2.85595L1.73737 4.55531C1.85667 4.81111 2.11026 4.96144 2.37506 4.96144Z" fill="#0E0E0E"/>
<path d="M4.28409 4.82524C4.36345 4.85412 4.44468 4.8678 4.52451 4.8678C4.81171 4.8678 5.08134 4.69052 5.18526 4.40496L5.82655 2.64302C5.9594 2.27815 5.77124 1.87465 5.40632 1.7418C5.04154 1.60901 4.63794 1.79716 4.50515 2.16208L3.8639 3.92402C3.73105 4.2889 3.91921 4.6924 4.28409 4.82524Z" fill="#0E0E0E"/>
<path d="M5.47523 5.91591C5.59452 6.17175 5.84812 6.32208 6.11291 6.32208C6.21238 6.32208 6.31349 6.30084 6.40958 6.25603L8.1089 5.46366C8.46083 5.29955 8.61313 4.88119 8.44902 4.52925C8.28491 4.17731 7.86651 4.02492 7.51462 4.18912L5.8153 4.98155C5.46337 5.14566 5.31112 5.56397 5.47523 5.91591Z" fill="#0E0E0E"/>
</g>
<defs>
<clipPath id="clip0_253_2950">
<rect width="24" height="24" fill="white" transform="translate(0.878906 0.251953)"/>
</clipPath>
</defs>
</svg>
