<svg width="25" height="24" viewBox="0 0 25 24" fill="none" xmlns="http://www.w3.org/2000/svg">
<path d="M3.18555 5V4C2.63326 4 2.18555 4.44772 2.18555 5H3.18555ZM21.1855 5H22.1855C22.1855 4.44772 21.7378 4 21.1855 4V5ZM3.18555 6H21.1855V4H3.18555V6ZM20.1855 5V17H22.1855V5H20.1855ZM19.1855 18H5.18555V20H19.1855V18ZM4.18555 17V5H2.18555V17H4.18555ZM5.18555 18C4.63326 18 4.18555 17.5523 4.18555 17H2.18555C2.18555 18.6569 3.52869 20 5.18555 20V18ZM20.1855 17C20.1855 17.5523 19.7378 18 19.1855 18V20C20.8424 20 22.1855 18.6569 22.1855 17H20.1855Z" fill="#464646"/>
<path d="M3.18555 5L12.1855 14L21.1855 5" stroke="#464646" stroke-width="2" stroke-linecap="round" stroke-linejoin="round"/>
</svg>
