<svg width="17" height="17" viewBox="0 0 17 17" fill="none" xmlns="http://www.w3.org/2000/svg">
<path d="M10.7026 8.95457L15.6523 4.00485C16.1992 3.45789 16.1992 2.57118 15.6523 2.02516L14.9924 1.36526C14.4454 0.818295 13.5587 0.818295 13.0127 1.36526L8.06297 6.31497L3.11325 1.36432C2.56629 0.817361 1.67958 0.817361 1.13355 1.36432L0.472721 2.02422C-0.0742402 2.57118 -0.0742402 3.45789 0.472721 4.00392L5.42337 8.95457L0.473654 13.9043C-0.0733068 14.4512 -0.0733068 15.338 0.473654 15.884L1.13355 16.5439C1.68051 17.0908 2.56723 17.0908 3.11325 16.5439L8.06297 11.5942L13.0127 16.5439C13.5596 17.0908 14.4464 17.0908 14.9924 16.5439L15.6523 15.884C16.1992 15.337 16.1992 14.4503 15.6523 13.9043L10.7026 8.95457Z" fill="#C3030F"/>
</svg>
