<svg width="74" height="72" viewBox="0 0 74 72" fill="none" xmlns="http://www.w3.org/2000/svg">
<mask id="path-1-outside-1_351_1834" maskUnits="userSpaceOnUse" x="0" y="0" width="74" height="72" fill="black">
<rect fill="white" width="74" height="72"/>
<path d="M0 4C0 1.79086 1.79086 0 4 0H68C70.2091 0 72 1.79086 72 4V68C72 70.2091 70.2091 72 68 72H4C1.79086 72 0 70.2091 0 68V4Z"/>
</mask>
<path d="M0 4C0 1.79086 1.79086 0 4 0H68C70.2091 0 72 1.79086 72 4V68C72 70.2091 70.2091 72 68 72H4C1.79086 72 0 70.2091 0 68V4Z" fill="#F0F0F0"/>
<g clip-path="url(#clip0_351_1834)">
<path d="M53.6208 25.3403L46.5898 18.309C46.392 18.1111 46.1237 18 45.844 18H29.6719C27.9272 18 26.5078 19.4194 26.5078 21.1641V35.0745C21.7683 35.6009 18.0703 39.6303 18.0703 44.5078C18.0703 49.7418 22.3285 54 27.5625 54H50.7656C52.5103 54 53.9297 52.5806 53.9297 50.8359V26.0861C53.9297 25.8064 53.8186 25.5382 53.6208 25.3403ZM46.8984 21.6009L49.1899 23.8925L50.3287 25.0312H46.8984V21.6009ZM20.1797 44.5078C20.1797 40.4369 23.4916 37.125 27.5625 37.125C31.6334 37.125 34.9453 40.4369 34.9453 44.5078C34.9453 48.5787 31.6334 51.8906 27.5625 51.8906C23.4916 51.8906 20.1797 48.5787 20.1797 44.5078ZM50.7656 51.8906H33.5214C35.4172 50.3575 36.7128 48.1107 36.9958 45.5625H47.9531C48.5356 45.5625 49.0078 45.0903 49.0078 44.5078C49.0078 43.9253 48.5356 43.4531 47.9531 43.4531H36.9958C36.8238 41.9048 36.2783 40.4677 35.4511 39.2344H47.9531C48.5356 39.2344 49.0078 38.7622 49.0078 38.1797C49.0078 37.5972 48.5356 37.125 47.9531 37.125H33.5214C32.1488 36.015 30.462 35.2794 28.6172 35.0745V21.1641C28.6172 20.5825 29.0903 20.1094 29.6719 20.1094H44.7891V26.0859C44.7891 26.6684 45.2613 27.1406 45.8438 27.1406H51.8203V50.8359C51.8203 51.4175 51.3472 51.8906 50.7656 51.8906Z" fill="#464646"/>
<path d="M47.9531 30.7969H32.4844C31.9019 30.7969 31.4297 31.2691 31.4297 31.8516C31.4297 32.434 31.9019 32.9062 32.4844 32.9062H47.9531C48.5356 32.9062 49.0078 32.434 49.0078 31.8516C49.0078 31.2691 48.5356 30.7969 47.9531 30.7969Z" fill="#464646"/>
<path d="M31.7536 41.8636C31.3418 41.4517 30.6739 41.4517 30.262 41.8636L26.086 46.0396L24.7223 44.676C24.3105 44.2642 23.6427 44.2642 23.2308 44.676C22.8189 45.0878 22.8189 45.7556 23.2308 46.1675L25.3402 48.2769C25.5461 48.4828 25.816 48.5858 26.086 48.5858C26.3559 48.5858 26.6258 48.4828 26.8317 48.2769L31.7536 43.355C32.1655 42.9432 32.1655 42.2754 31.7536 41.8636Z" fill="#464646"/>
</g>
<path d="M0 0H72H0ZM72 72H0H72ZM0 72V0V72ZM68 0C71.3137 0 74 2.68629 74 6V66C74 69.3137 71.3137 72 68 72C69.1046 72 70 70.2091 70 68V4C70 1.79086 69.1046 0 68 0Z" fill="#F5CB00" mask="url(#path-1-outside-1_351_1834)"/>
<defs>
<clipPath id="clip0_351_1834">
<rect width="36" height="36" fill="white" transform="translate(18 18)"/>
</clipPath>
</defs>
</svg>
