<svg width="75" height="73" viewBox="0 0 75 73" fill="none" xmlns="http://www.w3.org/2000/svg">
<mask id="path-1-outside-1_1048_63" maskUnits="userSpaceOnUse" x="0.921875" y="0.796875" width="74" height="72" fill="black">
<rect fill="white" x="0.921875" y="0.796875" width="74" height="72"/>
<path d="M0.921875 4.79688C0.921875 2.58774 2.71274 0.796875 4.92188 0.796875H68.9219C71.131 0.796875 72.9219 2.58774 72.9219 4.79688V68.7969C72.9219 71.006 71.131 72.7969 68.9219 72.7969H4.92188C2.71274 72.7969 0.921875 71.006 0.921875 68.7969V4.79688Z"/>
</mask>
<path d="M0.921875 4.79688C0.921875 2.58774 2.71274 0.796875 4.92188 0.796875H68.9219C71.131 0.796875 72.9219 2.58774 72.9219 4.79688V68.7969C72.9219 71.006 71.131 72.7969 68.9219 72.7969H4.92188C2.71274 72.7969 0.921875 71.006 0.921875 68.7969V4.79688Z" fill="#F0F0F0"/>
<g clip-path="url(#clip0_1048_63)">
<path d="M54.5427 26.1372L47.5117 19.1058C47.3139 18.908 47.0456 18.7969 46.7659 18.7969H30.5938C28.8491 18.7969 27.4297 20.2163 27.4297 21.9609V35.8714C22.6902 36.3978 18.9922 40.4272 18.9922 45.3047C18.9922 50.5387 23.2504 54.7969 28.4844 54.7969H51.6875C53.4322 54.7969 54.8516 53.3775 54.8516 51.6328V26.883C54.8516 26.6033 54.7405 26.3351 54.5427 26.1372ZM47.8203 22.3978L50.1118 24.6893L51.2506 25.8281H47.8203V22.3978ZM21.1016 45.3047C21.1016 41.2338 24.4135 37.9219 28.4844 37.9219C32.5553 37.9219 35.8672 41.2338 35.8672 45.3047C35.8672 49.3756 32.5553 52.6875 28.4844 52.6875C24.4135 52.6875 21.1016 49.3756 21.1016 45.3047ZM51.6875 52.6875H34.4433C36.3391 51.1543 37.6347 48.9076 37.9177 46.3594H48.875C49.4575 46.3594 49.9297 45.8872 49.9297 45.3047C49.9297 44.7222 49.4575 44.25 48.875 44.25H37.9176C37.7457 42.7017 37.2002 41.2646 36.373 40.0312H48.875C49.4575 40.0312 49.9297 39.559 49.9297 38.9766C49.9297 38.3941 49.4575 37.9219 48.875 37.9219H34.4433C33.0707 36.8119 31.3839 36.0763 29.5391 35.8714V21.9609C29.5391 21.3794 30.0122 20.9062 30.5938 20.9062H45.7109V26.8828C45.7109 27.4653 46.1832 27.9375 46.7656 27.9375H52.7422V51.6328C52.7422 52.2144 52.2691 52.6875 51.6875 52.6875Z" fill="#464646"/>
<path d="M48.875 31.5938H33.4062C32.8238 31.5938 32.3516 32.066 32.3516 32.6484C32.3516 33.2309 32.8238 33.7031 33.4062 33.7031H48.875C49.4575 33.7031 49.9297 33.2309 49.9297 32.6484C49.9297 32.066 49.4575 31.5938 48.875 31.5938Z" fill="#464646"/>
<path d="M32.6755 42.6605C32.2636 42.2487 31.5958 42.2487 31.1839 42.6605L27.0078 46.8366L25.6442 45.473C25.2324 45.0612 24.5646 45.0612 24.1527 45.473C23.7408 45.8848 23.7408 46.5526 24.1527 46.9645L26.262 49.0739C26.468 49.2798 26.7379 49.3828 27.0078 49.3828C27.2778 49.3828 27.5477 49.2798 27.7536 49.0739L32.6755 44.152C33.0873 43.7402 33.0873 43.0724 32.6755 42.6605Z" fill="#464646"/>
</g>
<path d="M0.921875 0.796875H72.9219H0.921875ZM72.9219 72.7969H0.921875H72.9219ZM0.921875 72.7969V0.796875V72.7969ZM68.9219 0.796875C72.2356 0.796875 74.9219 3.48317 74.9219 6.79688V66.7969C74.9219 70.1106 72.2356 72.7969 68.9219 72.7969C70.0264 72.7969 70.9219 71.006 70.9219 68.7969V4.79688C70.9219 2.58774 70.0264 0.796875 68.9219 0.796875Z" fill="#F5CB00" mask="url(#path-1-outside-1_1048_63)"/>
<defs>
<clipPath id="clip0_1048_63">
<rect width="36" height="36" fill="white" transform="translate(18.9219 18.7969)"/>
</clipPath>
</defs>
</svg>
