<svg width="36" height="36" viewBox="0 0 36 36" fill="none" xmlns="http://www.w3.org/2000/svg">
<rect width="36" height="36" rx="4" fill="#0E0E0E"/>
<path d="M24.0797 18.4192L17.8997 24.6092C17.0895 25.3293 16.0348 25.7125 14.9514 25.6806C13.868 25.6487 12.8377 25.2041 12.0712 24.4377C11.3048 23.6712 10.8602 22.6409 10.8283 21.5575C10.7964 20.4741 11.1797 19.4194 11.8997 18.6092L19.8997 10.6092C20.3773 10.1555 21.0109 9.90257 21.6697 9.90257C22.3284 9.90257 22.962 10.1555 23.4397 10.6092C23.905 11.0808 24.1659 11.7167 24.1659 12.3792C24.1659 13.0418 23.905 13.6776 23.4397 14.1492L16.5397 21.0392C16.4714 21.1128 16.3893 21.1721 16.298 21.214C16.2068 21.2558 16.1082 21.2792 16.008 21.2829C15.9077 21.2866 15.8076 21.2705 15.7136 21.2356C15.6195 21.2007 15.5332 21.1475 15.4597 21.0792C15.3861 21.0109 15.3268 20.9288 15.285 20.8376C15.2431 20.7464 15.2197 20.6478 15.216 20.5475C15.2123 20.4472 15.2284 20.3472 15.2633 20.2531C15.2982 20.159 15.3514 20.0728 15.4197 19.9992L20.5497 14.8792C20.738 14.6909 20.8438 14.4355 20.8438 14.1692C20.8438 13.9029 20.738 13.6475 20.5497 13.4592C20.3614 13.2709 20.106 13.1651 19.8397 13.1651C19.5734 13.1651 19.318 13.2709 19.1297 13.4592L13.9997 18.5992C13.743 18.8539 13.5392 19.1569 13.4002 19.4908C13.2612 19.8246 13.1896 20.1826 13.1896 20.5442C13.1896 20.9059 13.2612 21.2639 13.4002 21.5977C13.5392 21.9315 13.743 22.2345 13.9997 22.4892C14.524 22.9887 15.2205 23.2673 15.9447 23.2673C16.6689 23.2673 17.3653 22.9887 17.8897 22.4892L24.7797 15.5892C25.5746 14.7362 26.0073 13.6079 25.9867 12.4421C25.9662 11.2763 25.4939 10.164 24.6694 9.3395C23.8449 8.51503 22.7326 8.04275 21.5668 8.02219C20.401 8.00162 19.2727 8.43436 18.4197 9.22924L10.4197 17.2292C9.34087 18.4241 8.7647 19.9891 8.8112 21.5982C8.85771 23.2073 9.5233 24.7365 10.6693 25.867C11.8153 26.9975 13.3533 27.6423 14.963 27.6669C16.5726 27.6916 18.1296 27.0942 19.3097 25.9992L25.4997 19.8192C25.5929 19.726 25.6669 19.6153 25.7173 19.4935C25.7678 19.3717 25.7938 19.2411 25.7938 19.1092C25.7938 18.9774 25.7678 18.8468 25.7173 18.725C25.6669 18.6032 25.5929 18.4925 25.4997 18.3992C25.4064 18.306 25.2957 18.232 25.1739 18.1816C25.0521 18.1311 24.9215 18.1051 24.7897 18.1051C24.6578 18.1051 24.5272 18.1311 24.4054 18.1816C24.2836 18.232 24.1729 18.306 24.0797 18.3992V18.4192Z" fill="#F5CB00"/>
</svg>
