<svg width="73" height="25" viewBox="0 0 73 25" fill="none" xmlns="http://www.w3.org/2000/svg">
<path d="M10.11 18.1406H8.11C8.03533 19.3993 7.774 20.3753 7.326 21.0686C6.88867 21.762 6.16333 22.1086 5.15 22.1086C4.702 22.1086 3.85933 22.0233 2.622 21.8526V20.4926C3.66733 20.6633 4.47267 20.7486 5.038 20.7486C5.40067 20.7486 5.694 20.6846 5.918 20.5566C6.142 20.4286 6.31267 20.1726 6.43 19.7886C6.54733 19.4153 6.606 18.866 6.606 18.1406H4.414C3.17667 18.1406 2.36067 17.762 1.966 17.0046C1.582 16.2473 1.39 15.3086 1.39 14.1886C1.40067 13.1326 1.51267 12.29 1.726 11.6606C1.95 11.0313 2.31267 10.5726 2.814 10.2846C3.326 9.98596 4.01933 9.83662 4.894 9.83662C5.38467 9.83662 5.94467 9.87396 6.574 9.94862C7.214 10.0126 7.73667 10.0873 8.142 10.1726V16.7806H10.11V18.1406ZM2.91 14.1406C2.91 14.9086 3.038 15.5433 3.294 16.0446C3.55 16.5353 4.08867 16.7806 4.91 16.7806H6.622V11.3086C6.09933 11.234 5.63533 11.1966 5.23 11.1966C4.366 11.1966 3.76333 11.426 3.422 11.8846C3.09133 12.3326 2.92067 13.0846 2.91 14.1406ZM23.5174 16.7806V18.1406H10.1094V16.7806H12.3814V10.1406H13.8854V12.7006C14.3654 12.1033 14.7974 11.618 15.1814 11.2446C15.576 10.8713 16.0347 10.5673 16.5574 10.3326C17.08 10.098 17.6827 9.98062 18.3654 9.98062C19.7094 9.98062 20.6587 10.3966 21.2134 11.2286C21.7787 12.05 22.0614 13.0153 22.0614 14.1246V16.7806H23.5174ZM18.1254 11.3406C16.664 11.3406 15.2507 12.434 13.8854 14.6206V16.7806H20.5574V14.3806C20.5574 13.5166 20.3494 12.7966 19.9334 12.2206C19.5174 11.634 18.9147 11.3406 18.1254 11.3406ZM16.6374 7.08462H18.0934V8.65262H16.6374V7.08462ZM32.0436 16.7806V18.1406H23.5156V16.7806H26.2836C26.0383 16.4606 25.825 16.0393 25.6436 15.5166C25.473 14.994 25.3876 14.418 25.3876 13.7886C25.3876 12.9993 25.537 12.3166 25.8356 11.7406C26.1343 11.1646 26.5503 10.7273 27.0836 10.4286C27.617 10.1193 28.225 9.96462 28.9076 9.96462C29.313 9.96462 29.761 10.0233 30.2516 10.1406C30.7423 10.2473 31.1796 10.402 31.5636 10.6046L31.4996 11.9806C31.2863 11.8526 30.929 11.714 30.4276 11.5646C29.9263 11.4153 29.473 11.3406 29.0676 11.3406C28.417 11.3406 27.8943 11.5593 27.4996 11.9966C27.105 12.434 26.9076 13.058 26.9076 13.8686C26.9076 14.498 27.0196 15.0686 27.2436 15.5806C27.4676 16.082 27.745 16.482 28.0756 16.7806H32.0436Z" fill="#0E0E0E"/>
<g clip-path="url(#clip0_387_6456)">
<path d="M58.6088 11.7015C60.197 11.7015 61.5721 11.1319 62.696 10.008C63.8196 8.88426 64.3894 7.50932 64.3894 5.92089C64.3894 4.333 63.8197 2.95788 62.6958 1.8338C61.5719 0.710265 60.1968 0.140625 58.6088 0.140625C57.0203 0.140625 55.6454 0.710265 54.5217 1.83398C53.3979 2.9577 52.8281 4.33282 52.8281 5.92089C52.8281 7.50932 53.3979 8.88444 54.5217 10.0082C55.6457 11.1317 57.0209 11.7015 58.6088 11.7015ZM55.5163 2.82842C56.3785 1.96618 57.39 1.54706 58.6088 1.54706C59.8273 1.54706 60.839 1.96618 61.7014 2.82842C62.5636 3.69085 62.983 4.70251 62.983 5.92089C62.983 7.13963 62.5636 8.15111 61.7014 9.01353C60.839 9.87596 59.8273 10.2951 58.6088 10.2951C57.3904 10.2951 56.3789 9.87577 55.5163 9.01353C54.6539 8.15129 54.2346 7.13963 54.2346 5.92089C54.2346 4.70251 54.6539 3.69085 55.5163 2.82842Z" fill="#0E0E0E"/>
<path d="M68.7248 18.5962C68.6923 18.1286 68.6268 17.6185 68.5303 17.0798C68.4329 16.537 68.3075 16.024 68.1573 15.555C68.002 15.0704 67.7913 14.5917 67.5304 14.1331C67.2599 13.657 66.942 13.2424 66.5854 12.9013C66.2124 12.5444 65.7557 12.2575 65.2276 12.0482C64.7014 11.84 64.1182 11.7346 63.4944 11.7346C63.2494 11.7346 63.0124 11.8351 62.5548 12.133C62.2732 12.3166 61.9438 12.5291 61.5761 12.764C61.2618 12.9643 60.8359 13.152 60.3098 13.3219C59.7965 13.488 59.2754 13.5722 58.7609 13.5722C58.2467 13.5722 57.7256 13.488 57.212 13.3219C56.6865 13.1522 56.2604 12.9645 55.9466 12.7642C55.5824 12.5314 55.2528 12.319 54.967 12.1328C54.5098 11.8349 54.2728 11.7344 54.0278 11.7344C53.4038 11.7344 52.8208 11.84 52.2947 12.0484C51.767 12.2573 51.3102 12.5442 50.9368 12.9015C50.5801 13.2428 50.2623 13.6572 49.992 14.1331C49.7314 14.5917 49.5205 15.0702 49.3652 15.5552C49.2153 16.0242 49.0898 16.537 48.9924 17.0798C48.8958 17.6177 48.8304 18.128 48.798 18.5968C48.7661 19.0551 48.75 19.5321 48.75 20.014C48.75 21.2668 49.1483 22.281 49.9336 23.029C50.7092 23.7671 51.7353 24.1414 52.9836 24.1414H64.5397C65.7876 24.1414 66.8137 23.7671 67.5895 23.029C68.375 22.2816 68.7733 21.267 68.7733 20.0138C68.7731 19.5303 68.7568 19.0533 68.7248 18.5962ZM66.6198 22.0101C66.1073 22.4978 65.4268 22.735 64.5395 22.735H52.9836C52.0961 22.735 51.4156 22.4978 50.9033 22.0102C50.4007 21.5318 50.1564 20.8786 50.1564 20.014C50.1564 19.5643 50.1713 19.1203 50.2009 18.694C50.2299 18.2758 50.289 17.8164 50.3767 17.3282C50.4633 16.8461 50.5735 16.3937 50.7046 15.9841C50.8304 15.5913 51.002 15.2024 51.2148 14.8278C51.4178 14.4707 51.6515 14.1644 51.9093 13.9175C52.1504 13.6866 52.4544 13.4977 52.8126 13.356C53.1438 13.2249 53.516 13.1531 53.9202 13.1423C53.9694 13.1685 54.0571 13.2184 54.1992 13.3111C54.4883 13.4995 54.8216 13.7145 55.19 13.9498C55.6053 14.2145 56.1403 14.4537 56.7795 14.66C57.433 14.8713 58.0995 14.9786 58.7611 14.9786C59.4226 14.9786 60.0893 14.8713 60.7425 14.6602C61.3822 14.4535 61.9171 14.2145 62.3329 13.9494C62.7099 13.7084 63.0338 13.4997 63.323 13.3111C63.4651 13.2186 63.5528 13.1685 63.602 13.1423C64.0063 13.1531 64.3786 13.2249 64.71 13.356C65.068 13.4977 65.3719 13.6868 65.6131 13.9175C65.8709 14.1642 66.1045 14.4705 66.3076 14.8279C66.5205 15.2024 66.6923 15.5915 66.8179 15.9839C66.9492 16.394 67.0596 16.8463 67.146 17.3281C67.2335 17.8171 67.2929 18.2767 67.3218 18.6942V18.6946C67.3516 19.1192 67.3667 19.563 67.3668 20.014C67.3667 20.8788 67.1224 21.5318 66.6198 22.0101Z" fill="#0E0E0E"/>
</g>
<defs>
<clipPath id="clip0_387_6456">
<rect width="24" height="24" fill="white" transform="translate(48.75 0.140625)"/>
</clipPath>
</defs>
</svg>
