<svg width="168" height="51" viewBox="0 0 168 51" fill="none" xmlns="http://www.w3.org/2000/svg">
<path d="M164.257 1.5H3.74303C2.2281 1.5 1 2.72802 1 4.24286V46.7571C1 48.272 2.2281 49.5 3.74303 49.5H164.257C165.772 49.5 167 48.272 167 46.7571V4.24286C167 2.72802 165.772 1.5 164.257 1.5Z" stroke="white" stroke-width="2"/>
<path d="M60.3986 13.7438C60.3986 14.6886 60.1625 15.5153 59.572 16.1057C58.8633 16.8143 58.0366 17.1686 56.9737 17.1686C55.9108 17.1686 55.084 16.8143 54.3754 16.1057C53.6668 15.3971 53.3125 14.5705 53.3125 13.5076C53.3125 12.4448 53.6668 11.6182 54.3754 10.9095C55.084 10.201 55.9108 9.84668 56.9737 9.84668C57.4461 9.84668 57.9185 9.96476 58.3909 10.201C58.8633 10.4371 59.2176 10.6734 59.4538 11.0276L58.8633 11.6181C58.3909 11.0276 57.8004 10.7915 56.9737 10.7915C56.265 10.7915 55.5564 11.0276 55.084 11.6181C54.4935 12.0905 54.2573 12.7991 54.2573 13.6257C54.2573 14.4524 54.4935 15.161 55.084 15.6334C55.6745 16.1057 56.265 16.46 56.9737 16.46C57.8004 16.46 58.3909 16.2238 58.9814 15.6334C59.3357 15.279 59.572 14.8067 59.572 14.2162H56.9737V13.3896H60.3986C60.3986 13.3896 60.3986 13.5076 60.3986 13.7438Z" fill="white" stroke="white" stroke-width="0.2" stroke-miterlimit="10"/>
<path d="M65.8309 10.7915H62.6421V13.0353H65.5946V13.8619H62.6421V16.1057H65.8309V16.9324H61.6973V9.84668H65.8309V10.7915Z" fill="white" stroke="white" stroke-width="0.2" stroke-miterlimit="10"/>
<path d="M69.7283 16.9324H68.7832V10.6734H66.7754V9.84668H71.7355V10.6734H69.7283V16.9324Z" fill="white" stroke="white" stroke-width="0.2" stroke-miterlimit="10"/>
<path d="M75.3926 16.9539V9.86816H76.3369V16.9539H75.3926Z" fill="white" stroke="white" stroke-width="0.2" stroke-miterlimit="10"/>
<path d="M80.1221 16.9324H79.1778V10.6734H77.1699V9.84668H82.0121V10.6734H80.0042V16.9324H80.1221Z" fill="white" stroke="white" stroke-width="0.2" stroke-miterlimit="10"/>
<path d="M91.3416 16.1057C90.6332 16.8143 89.8062 17.1686 88.7433 17.1686C87.6804 17.1686 86.854 16.8143 86.145 16.1057C85.4366 15.3971 85.082 14.5705 85.082 13.5076C85.082 12.4448 85.4366 11.6182 86.145 10.9095C86.854 10.201 87.6804 9.84668 88.7433 9.84668C89.8062 9.84668 90.6332 10.201 91.3416 10.9095C92.05 11.6182 92.4046 12.4448 92.4046 13.5076C92.4046 14.4524 92.05 15.3971 91.3416 16.1057ZM86.854 15.5153C87.3265 15.9877 88.0349 16.3419 88.7433 16.3419C89.4524 16.3419 90.1607 16.1057 90.6332 15.5153C91.1057 15.0429 91.4596 14.3343 91.4596 13.5076C91.4596 12.6809 91.2237 11.9724 90.6332 11.5C90.1607 11.0276 89.4524 10.6734 88.7433 10.6734C88.0349 10.6734 87.3265 10.9095 86.854 11.5C86.3815 11.9724 86.027 12.6809 86.027 13.5076C86.027 14.2162 86.2636 14.9248 86.854 15.5153Z" fill="white" stroke="white" stroke-width="0.2" stroke-miterlimit="10"/>
<path d="M93.7031 16.9324V9.84668H94.766L98.1907 15.3971V13.98V9.84668H99.1357V16.9324H98.1907L94.5295 11.1458V12.5629V16.9324H93.7031Z" fill="white" stroke="white" stroke-width="0.2" stroke-miterlimit="10"/>
<path d="M84.8447 27.3249C82.0105 27.3249 79.7667 29.4506 79.7667 32.403C79.7667 35.2372 82.0105 37.481 84.8447 37.481C87.6789 37.481 89.9234 35.3553 89.9234 32.403C89.9234 29.4506 87.6789 27.3249 84.8447 27.3249ZM84.8447 35.3553C83.3093 35.3553 82.0105 34.0563 82.0105 32.2849C82.0105 30.5134 83.3093 29.2144 84.8447 29.2144C86.3801 29.2144 87.6789 30.3954 87.6789 32.2849C87.6789 34.1744 86.3801 35.3553 84.8447 35.3553ZM73.8609 27.3249C71.0267 27.3249 68.7828 29.4506 68.7828 32.403C68.7828 35.2372 71.0267 37.481 73.8609 37.481C76.6958 37.481 78.9396 35.3553 78.9396 32.403C78.9396 29.4506 76.6958 27.3249 73.8609 27.3249ZM73.8609 35.3553C72.3262 35.3553 71.0267 34.0563 71.0267 32.2849C71.0267 30.5134 72.3262 29.2144 73.8609 29.2144C75.3963 29.2144 76.6958 30.3954 76.6958 32.2849C76.6958 34.1744 75.3963 35.3553 73.8609 35.3553ZM60.7518 28.8601V30.9858H65.8302C65.7121 32.1668 65.2397 33.1115 64.6492 33.702C63.9406 34.4105 62.7595 35.2372 60.7518 35.2372C57.5631 35.2372 55.201 32.7572 55.201 29.5687C55.201 26.3801 57.6811 23.9001 60.7518 23.9001C62.4053 23.9001 63.7044 24.6087 64.6492 25.4354L66.1845 23.9001C64.8854 22.7192 63.2319 21.7744 60.8699 21.7744C56.6182 21.7744 52.957 25.3173 52.957 29.5687C52.957 33.8201 56.6182 37.363 60.8699 37.363C63.2319 37.363 64.8854 36.6544 66.3026 35.1192C67.7199 33.702 68.1922 31.6944 68.1922 30.1592C68.1922 29.6868 68.1922 29.2144 68.0742 28.8601H60.7518ZM114.371 30.5134C113.898 29.3325 112.717 27.3249 110.119 27.3249C107.521 27.3249 105.395 29.3325 105.395 32.403C105.395 35.2372 107.521 37.481 110.355 37.481C112.599 37.481 114.016 36.0639 114.489 35.2372L112.835 34.0563C112.245 34.8829 111.536 35.4734 110.355 35.4734C109.174 35.4734 108.465 35.0011 107.874 33.9382L114.607 31.1039L114.371 30.5134ZM107.521 32.1668C107.521 30.2773 109.056 29.2144 110.119 29.2144C110.945 29.2144 111.772 29.6868 112.008 30.2773L107.521 32.1668ZM101.969 37.0087H104.213V22.2468H101.969V37.0087ZM98.4268 28.3877C97.8357 27.7972 96.8914 27.2068 95.7098 27.2068C93.2301 27.2068 90.8677 29.4506 90.8677 32.2849C90.8677 35.1192 93.1122 37.2449 95.7098 37.2449C96.8914 37.2449 97.8357 36.6544 98.3082 36.0639H98.4268V36.7725C98.4268 38.662 97.3639 39.7248 95.7098 39.7248C94.411 39.7248 93.466 38.7801 93.2301 37.9534L91.3402 38.7801C91.9306 40.0791 93.3481 41.7325 95.8285 41.7325C98.4268 41.7325 100.553 40.1972 100.553 36.5363V27.5611H98.4268V28.3877ZM95.8285 35.3553C94.2931 35.3553 92.9936 34.0563 92.9936 32.2849C92.9936 30.5134 94.2931 29.2144 95.8285 29.2144C97.3639 29.2144 98.5448 30.5134 98.5448 32.2849C98.5448 34.0563 97.3639 35.3553 95.8285 35.3553ZM124.645 22.2468H119.331V37.0087H121.575V31.4582H124.645C127.125 31.4582 129.488 29.6868 129.488 26.8525C129.488 24.0182 127.125 22.2468 124.645 22.2468ZM124.763 29.4506H121.575V24.3725H124.763C126.417 24.3725 127.362 25.7897 127.362 26.8525C127.244 28.0335 126.299 29.4506 124.763 29.4506ZM138.345 27.3249C136.691 27.3249 135.038 28.0335 134.448 29.5687L136.456 30.3954C136.928 29.5687 137.636 29.3325 138.463 29.3325C139.644 29.3325 140.707 30.0411 140.825 31.222V31.3401C140.471 31.1039 139.526 30.7497 138.581 30.7497C136.456 30.7497 134.33 31.9306 134.33 34.0563C134.33 36.0639 136.101 37.363 137.991 37.363C139.526 37.363 140.235 36.6544 140.825 35.9459H140.943V37.1268H143.069V31.4582C142.833 28.742 140.825 27.3249 138.345 27.3249ZM138.109 35.3553C137.4 35.3553 136.338 35.0011 136.338 34.0563C136.338 32.8754 137.636 32.5211 138.699 32.5211C139.644 32.5211 140.117 32.7573 140.707 32.9935C140.471 34.4106 139.29 35.3553 138.109 35.3553ZM150.509 27.5611L148.03 33.9382H147.912L145.313 27.5611H142.951L146.849 36.5363L144.604 41.4963H146.849L152.872 27.5611H150.509ZM130.668 37.0087H132.912V22.2468H130.668V37.0087Z" fill="white"/>
<path d="M16.109 39.9609C15.6366 39.7248 15.4004 39.1343 15.4004 38.5438C15.4004 38.4257 15.4004 38.1895 15.4004 38.0714C15.4004 29.3324 15.4004 20.5933 15.4004 11.9724C15.4004 11.5 15.5185 11.1458 15.6366 10.6734C15.7547 10.4372 15.9909 10.201 16.2271 9.96484C21.3055 15.0429 26.2658 20.121 31.2261 25.1991C26.1477 29.9228 21.1874 34.8829 16.109 39.9609Z" fill="white"/>
<path d="M36.1876 20.0028C34.7703 21.4199 33.235 22.837 31.8178 24.3723C27.0937 19.5304 22.2515 14.6885 17.5273 9.8466C17.5273 9.8466 17.5273 9.72852 17.6454 9.72852C23.7868 13.1532 29.9281 16.578 36.1876 20.0028Z" fill="white"/>
<path d="M17.5273 39.9609C22.2515 35.2371 27.0937 30.5134 31.8178 25.7896C33.1169 27.0886 34.5341 28.3877 36.0695 29.8047C29.9281 33.2295 23.7868 36.6543 17.6454 39.9609H17.5273Z" fill="white"/>
<path d="M36.8961 29.3327C35.3607 27.9156 33.9435 26.4984 32.4082 25.0813C33.9435 23.5461 35.4789 22.0108 37.0142 20.4756C37.4866 20.7117 37.959 20.948 38.4314 21.3022C39.6124 22.0108 40.9116 22.6013 42.0926 23.3098C42.4469 23.4279 42.6831 23.6642 42.9193 24.0184C43.3917 24.6089 43.3917 25.1994 42.9193 25.7899C42.6831 26.026 42.4469 26.2623 42.0926 26.3803C40.4392 27.4432 38.6677 28.388 36.8961 29.3327Z" fill="white"/>
</svg>
