<svg width="40" height="41" viewBox="0 0 40 41" fill="none" xmlns="http://www.w3.org/2000/svg">
<rect y="0.359375" width="40" height="40" rx="8" fill="#D8D8D8"/>
<path d="M33.4544 14.7751C33.7819 14.6555 34.0004 14.337 34 13.9799C33.9996 13.6228 33.7803 13.3048 33.4526 13.186L20.2729 8.40742C20.0964 8.34336 19.9037 8.34336 19.7271 8.40742L6.54742 13.186C6.21974 13.3047 6.00044 13.6228 6 13.9799C5.99956 14.337 6.21815 14.6555 6.54556 14.7751L11.7665 16.6825V22.1812C11.7665 23.0888 12.6878 23.8563 14.5049 24.4623C16.0887 24.9906 18.0403 25.2815 20.0001 25.2815C21.9598 25.2815 23.9114 24.9906 25.4952 24.4623C27.3123 23.8563 28.2336 23.0888 28.2336 22.1812V16.6825L30.3892 15.895V23.5145C29.4306 23.8628 28.7417 24.8029 28.7417 25.9058C28.7417 27.0086 29.4306 27.9488 30.3892 28.2971V31.5164C30.3892 31.982 30.7565 32.3594 31.2095 32.3594C31.6625 32.3594 32.0298 31.982 32.0298 31.5164V28.2971C32.9884 27.9488 33.6773 27.0087 33.6773 25.9058C33.6773 24.803 32.9884 23.8628 32.0298 23.5145V15.2956L33.4544 14.7751ZM31.2095 26.7557C30.7534 26.7557 30.3823 26.3744 30.3823 25.9057C30.3823 25.4371 30.7534 25.0558 31.2095 25.0558C31.6656 25.0558 32.0366 25.4371 32.0366 25.9057C32.0366 26.3744 31.6656 26.7557 31.2095 26.7557ZM20 10.0962L30.7225 13.9839L20 17.9011L9.27748 13.9839L20 10.0962ZM26.5929 22.0542C26.4357 22.217 25.8728 22.6071 24.6025 22.9795C23.2473 23.3768 21.6127 23.5956 20 23.5956C18.3873 23.5956 16.7528 23.3768 15.3975 22.9795C14.1272 22.6071 13.5643 22.2171 13.4071 22.0542V17.2818L19.7252 19.59C19.8141 19.6225 19.907 19.6387 19.9999 19.6387C20.0929 19.6387 20.1858 19.6225 20.2747 19.59L26.5928 17.2818V22.0542H26.5929Z" fill="white"/>
</svg>
