<svg width="29" height="24" viewBox="0 0 29 24" fill="none" xmlns="http://www.w3.org/2000/svg">
<path d="M27.9544 6.41575C28.2819 6.29616 28.5004 5.97758 28.5 5.6205C28.4996 5.26342 28.2803 4.94539 27.9526 4.82659L14.7729 0.048049C14.5964 -0.0160163 14.4037 -0.0160163 14.2271 0.048049L1.04742 4.82659C0.719735 4.94534 0.500438 5.26342 0.500001 5.6205C0.499563 5.97758 0.718149 6.29616 1.04556 6.41575L6.26652 8.3231V13.8219C6.26652 14.7294 7.18784 15.4969 9.00489 16.1029C10.5887 16.6312 12.5403 16.9221 14.5001 16.9221C16.4598 16.9221 18.4114 16.6312 19.9952 16.1029C21.8123 15.4969 22.7336 14.7295 22.7336 13.8219V8.3231L24.8892 7.5356V15.1551C23.9306 15.5034 23.2417 16.4436 23.2417 17.5464C23.2417 18.6493 23.9306 19.5894 24.8892 19.9378V23.157C24.8892 23.6226 25.2565 24 25.7095 24C26.1625 24 26.5298 23.6226 26.5298 23.157V19.9378C27.4884 19.5894 28.1773 18.6493 28.1773 17.5464C28.1773 16.4436 27.4884 15.5034 26.5298 15.1551V6.9362L27.9544 6.41575ZM25.7095 18.3964C25.2534 18.3964 24.8823 18.0151 24.8823 17.5464C24.8823 17.0777 25.2534 16.6964 25.7095 16.6964C26.1656 16.6964 26.5366 17.0777 26.5366 17.5464C26.5366 18.0151 26.1656 18.3964 25.7095 18.3964ZM14.5 1.73684L25.2225 5.62454L14.5 9.54169L3.77748 5.62449L14.5 1.73684ZM21.0929 13.6948C20.9357 13.8577 20.3728 14.2477 19.1025 14.6202C17.7473 15.0174 16.1127 15.2362 14.5 15.2362C12.8873 15.2362 11.2528 15.0174 9.8975 14.6202C8.62716 14.2477 8.06432 13.8577 7.90709 13.6948V8.92245L14.2252 11.2306C14.3141 11.2631 14.407 11.2793 14.4999 11.2793C14.5929 11.2793 14.6858 11.2631 14.7747 11.2306L21.0928 8.92245V13.6948H21.0929Z" fill="#464646"/>
</svg>
