<svg width="40" height="41" viewBox="0 0 40 41" fill="none" xmlns="http://www.w3.org/2000/svg">
<rect y="0.859375" width="40" height="40" rx="8" fill="#D8D8D8"/>
<path d="M33.4544 15.2751C33.7819 15.1555 34.0004 14.837 34 14.4799C33.9996 14.1228 33.7803 13.8048 33.4526 13.686L20.2729 8.90742C20.0964 8.84336 19.9037 8.84336 19.7271 8.90742L6.54742 13.686C6.21974 13.8047 6.00044 14.1228 6 14.4799C5.99956 14.837 6.21815 15.1555 6.54556 15.2751L11.7665 17.1825V22.6812C11.7665 23.5888 12.6878 24.3563 14.5049 24.9623C16.0887 25.4906 18.0403 25.7815 20.0001 25.7815C21.9598 25.7815 23.9114 25.4906 25.4952 24.9623C27.3123 24.3563 28.2336 23.5888 28.2336 22.6812V17.1825L30.3892 16.395V24.0145C29.4306 24.3628 28.7417 25.3029 28.7417 26.4058C28.7417 27.5086 29.4306 28.4488 30.3892 28.7971V32.0164C30.3892 32.482 30.7565 32.8594 31.2095 32.8594C31.6625 32.8594 32.0298 32.482 32.0298 32.0164V28.7971C32.9884 28.4488 33.6773 27.5087 33.6773 26.4058C33.6773 25.303 32.9884 24.3628 32.0298 24.0145V15.7956L33.4544 15.2751ZM31.2095 27.2557C30.7534 27.2557 30.3823 26.8744 30.3823 26.4057C30.3823 25.9371 30.7534 25.5558 31.2095 25.5558C31.6656 25.5558 32.0366 25.9371 32.0366 26.4057C32.0366 26.8744 31.6656 27.2557 31.2095 27.2557ZM20 10.5962L30.7225 14.4839L20 18.4011L9.27748 14.4839L20 10.5962ZM26.5929 22.5542C26.4357 22.717 25.8728 23.1071 24.6025 23.4795C23.2473 23.8768 21.6127 24.0956 20 24.0956C18.3873 24.0956 16.7528 23.8768 15.3975 23.4795C14.1272 23.1071 13.5643 22.7171 13.4071 22.5542V17.7818L19.7252 20.09C19.8141 20.1225 19.907 20.1387 19.9999 20.1387C20.0929 20.1387 20.1858 20.1225 20.2747 20.09L26.5928 17.7818V22.5542H26.5929Z" fill="white"/>
</svg>
