<svg width="27" height="25" viewBox="0 0 27 25" fill="none" xmlns="http://www.w3.org/2000/svg">
<path d="M2.0041 22.9155H11.3149L12.8982 24.5193C13.0513 24.6744 13.2519 24.7519 13.4526 24.7519C13.6532 24.7519 13.8538 24.6744 14.007 24.5193L15.5902 22.9155H24.9011C25.9921 22.9155 26.8797 22.0163 26.8797 20.9111V2.75633C26.8798 1.65112 25.9921 0.751923 24.9011 0.751923H2.0041C0.913057 0.751923 0.0253906 1.65112 0.0253906 2.75633V20.9112C0.0253906 22.0164 0.913057 22.9155 2.0041 22.9155ZM2.0041 3.01099C2.0041 2.78162 1.95945 2.44622 2.1858 2.44622H24.9011C25.1275 2.44622 25.114 2.52697 25.114 2.75633V20.9111C25.114 21.1404 24.7828 21.0835 24.5565 21.0835L15.5902 20.9111C15.3823 20.9111 14.8582 21.4109 14.7111 21.5598L13.4526 22.8346L12.0122 21.2637C12.307 21.5852 11.8651 21.1148 12.0122 21.2637H1.97673C1.7503 21.2637 1.97673 20.7481 1.97673 20.5187L2.0041 3.01099Z" fill="#0E0E0E"/>
<path d="M11.6166 18.6216C11.744 18.7516 11.9166 18.8245 12.0965 18.8245H12.1038C12.2864 18.8225 12.4605 18.7455 12.5868 18.6109L22.1379 8.42806C22.3931 8.15592 22.3885 7.72547 22.1276 7.45901L19.0754 4.34359C18.9442 4.20967 18.766 4.13575 18.5795 4.14088C18.394 4.14531 18.2184 4.22706 18.0935 4.36715L12.1765 11.0028L9.8113 8.58858C9.68397 8.45868 9.51137 8.38566 9.33136 8.38566C9.15136 8.38566 8.97875 8.45868 8.85142 8.58858L5.79937 11.7039C5.53432 11.9745 5.53432 12.4132 5.79937 12.6837L11.6166 18.6216ZM9.33136 10.0583L11.7196 12.4961C11.8509 12.63 12.0295 12.7032 12.2155 12.6988C12.401 12.6944 12.5766 12.6126 12.7015 12.4725L18.6186 5.8369L20.698 7.95943L12.086 17.1411L7.2392 12.1939L9.33136 10.0583Z" fill="#F5CB00"/>
</svg>
