<svg width="52" height="24" viewBox="0 0 52 24" fill="none" xmlns="http://www.w3.org/2000/svg">
<path d="M26.0371 0C19.4202 0 14.0371 5.38309 14.0371 12C14.0371 18.6169 19.4206 24 26.0371 24C32.6536 24 38.0371 18.6169 38.0371 12C38.0371 5.38309 32.654 0 26.0371 0Z" fill="#128807"/>
<path d="M31.3373 7.05293C31.5933 7.36739 31.8549 7.70188 32.1177 8.05119C32.1729 8.76344 32.1878 9.41599 32.2439 10.1294C32.2358 10.4347 32.1421 10.8397 32.0532 10.8781C32.0532 10.8781 31.9174 10.9563 31.8264 10.8697C31.7603 10.8433 31.4964 10.4295 31.4964 10.4295C31.3614 10.3057 31.2712 10.3409 31.1751 10.4295C30.9099 10.6855 30.7901 11.165 30.6099 11.495C30.5634 11.5687 30.4324 11.6316 30.287 11.4894C29.9841 11.076 30.0747 10.5196 30.0919 10.4335C30.0907 10.4383 30.0899 10.4427 30.0879 10.4507C29.759 10.8217 29.9044 11.4358 29.9789 11.5679C30.0875 11.7851 30.1752 11.9241 30.3863 12.031C30.5786 12.1724 30.7284 12.0843 30.811 11.985C31.0044 11.7847 31.0068 11.2719 31.0978 11.1702C31.1615 10.9839 31.3209 11.0159 31.399 11.0985C31.4743 11.207 31.5637 11.2775 31.6746 11.3364C31.8549 11.4954 32.0704 11.5247 32.2827 11.3793C32.4277 11.298 32.5219 11.1922 32.6068 10.9835C32.6977 10.7399 32.6529 9.46246 32.6324 8.75182C32.7686 8.9437 32.9032 9.13999 33.037 9.33828C33.0959 9.96199 33.1223 10.5765 33.1031 11.1654C33.0891 11.2823 33.5117 10.8156 33.5089 10.5945C33.5069 10.401 33.5093 10.2256 33.5089 10.0625C33.714 10.3898 33.9123 10.7227 34.0998 11.0592C34.2159 10.9975 34.1763 10.3397 34.1026 10.2488C33.9063 9.91953 33.6547 9.56341 33.46 9.28781C33.4216 8.9401 33.3691 8.52989 33.3455 8.40451C33.3082 8.20862 33.271 7.91419 33.2149 7.68185C33.1997 7.59092 33.1528 7.30089 33.1676 7.27325C33.1904 7.20836 33.277 7.27525 33.3198 7.19994C33.3835 7.13024 33.0987 6.39236 32.9541 6.18165C32.902 6.08711 32.8079 6.11996 32.6917 6.27338C32.584 6.37433 32.6232 6.60507 32.6645 6.82419C32.7714 7.38301 32.8672 7.95185 32.9429 8.51948C32.8027 8.31117 32.632 8.0596 32.4638 7.81685C32.4594 7.79361 32.4421 7.70749 32.4421 7.70628C32.4421 7.69627 32.4189 7.24922 32.3993 7.14266C32.3957 7.0994 32.3857 7.08698 32.4309 7.09259C32.479 7.13305 32.4854 7.13505 32.5155 7.14867C32.5639 7.15748 32.6064 7.07536 32.5771 6.99965C32.4269 6.72284 32.2771 6.44483 32.1269 6.16763C32.1089 6.15 32.0884 6.13118 32.0652 6.12757C32.042 6.12396 32.0163 6.13558 31.9879 6.17764C31.933 6.22571 31.8741 6.31264 31.8761 6.42441C31.8893 6.62109 31.9246 6.82259 31.9378 7.01968C31.9426 7.04612 31.9474 7.07216 31.9522 7.09859C31.931 7.07175 31.9126 7.05052 31.9022 7.03971C31.5184 6.63672 32.0784 6.97401 31.8288 6.66235C31.6177 6.43081 31.556 6.35711 31.3758 6.2177C31.2852 6.15922 31.2304 6.04745 31.2007 6.23773C31.1891 6.40518 31.1767 6.59866 31.1879 6.73967C31.1859 6.81858 31.2672 6.966 31.3373 7.05293V7.05293Z" fill="white"/>
<path d="M21.8889 10.0154C21.8845 10.0883 22.09 10.1768 22.1025 10.3451C22.1317 10.4144 22.0584 10.6371 22.1197 10.6575C22.1758 10.6808 22.2539 10.5037 22.2831 10.3391C22.2995 10.2489 22.2126 9.93368 22.0652 9.8772C22.0428 9.87239 22.0187 9.86999 21.9951 9.87159C21.9238 9.8768 21.8601 9.91485 21.8889 10.0154V10.0154Z" fill="white"/>
<path d="M31.9539 8.79531C31.9491 8.79451 31.9435 8.79491 31.9379 8.79691C31.9379 8.79691 31.063 9.41902 31.0413 9.44106C30.9544 9.51797 30.9981 9.78917 31.0413 9.75792C31.1042 9.78196 31.9847 9.18508 31.9679 9.11538C32.0064 9.11738 32.0252 8.80813 31.9539 8.79531V8.79531Z" fill="white"/>
<path d="M33.5625 7.37703C33.5934 7.47157 33.5156 7.77641 33.5797 7.80445C33.6386 7.8361 33.7211 7.59374 33.752 7.36982C33.7688 7.24724 33.6783 6.81701 33.5241 6.74009C33.512 6.73689 33.4992 6.73489 33.4868 6.73448C33.3987 6.73128 33.3025 6.79818 33.3406 6.92957C33.3182 7.00128 33.5285 7.24403 33.5625 7.37703V7.37703Z" fill="white"/>
<path d="M31.4615 8.80181C31.4647 8.62435 31.4819 8.388 31.4915 8.24098C31.4955 8.1857 31.5088 8.12441 31.5616 8.11039C31.6149 8.09637 31.7071 8.16367 31.7079 8.10599C31.6982 7.99302 31.6754 7.82638 31.6117 7.74746C31.5789 7.69899 31.5252 7.67255 31.4699 7.67015C31.3774 7.66574 31.2784 7.72583 31.2532 7.85241C31.2536 7.92692 31.2868 7.96818 31.2804 8.03588C31.2708 8.07474 31.2308 8.09998 31.1354 8.05471C31.1502 8.04109 31.0737 7.93293 31.0737 7.93293C30.9996 7.88767 30.9003 7.93534 30.8358 7.9774C30.8001 8.04189 30.7741 8.15286 30.8141 8.26582C30.9211 8.46251 31.2868 8.7986 31.4615 8.80181V8.80181Z" fill="white"/>
<path d="M27.7413 9.96157L27.7429 9.95996C27.7429 9.95996 27.7441 9.95876 27.7445 9.95836L27.7461 9.95676C27.7461 9.95636 27.7461 9.95435 27.7461 9.95395C27.7465 9.95075 27.7461 9.94514 27.7445 9.93953L27.6611 9.89066L26.0219 9.88345C26.0015 9.87584 25.9867 9.86783 25.9775 9.86062C25.9767 9.86022 25.9751 9.85821 25.9747 9.85781C25.9743 9.85741 25.9735 9.85661 25.9735 9.85621C25.9731 9.85581 25.9723 9.85501 25.9719 9.85461C25.9719 9.85421 25.9707 9.8522 25.9707 9.8518C25.9707 9.8518 25.9695 9.8506 25.9691 9.8502C25.9691 9.8502 25.9691 9.849 25.9691 9.8486C25.9691 9.8486 25.9679 9.8474 25.9675 9.847C25.9675 9.847 25.9675 9.8458 25.9675 9.84539C25.9675 9.84539 25.9675 9.84419 25.9675 9.84379C25.9675 9.84379 25.9675 9.84259 25.9675 9.84219C25.9675 9.84179 25.9675 9.84099 25.9675 9.84059C25.9675 9.84059 25.9675 9.83939 25.9675 9.83899C25.9675 9.83899 25.9675 9.83778 25.9675 9.83738C25.9675 9.83738 25.9675 9.83618 25.9675 9.83578C25.9675 9.83578 25.9675 9.83458 25.9675 9.83418L25.9691 9.83258C25.9695 9.83178 25.9699 9.83057 25.9707 9.82977C25.9787 9.81896 25.9979 9.80894 26.0223 9.79973C26.4137 9.74645 27.1091 9.63228 27.1552 8.9637C27.148 8.61519 27.0062 8.38726 26.5788 8.32396C26.2647 8.3484 26.0408 8.65204 26.0768 8.98653C26.062 9.07667 26.1073 9.25333 26.0151 9.27336C25.4126 9.32824 24.7549 9.70599 24.7328 9.97599C24.7328 9.97599 24.7316 9.97599 24.7312 9.97599C24.7308 9.97639 24.73 9.97719 24.7296 9.97759C24.7292 9.97799 24.7276 9.97879 24.7268 9.97919C24.7264 9.97919 24.7244 9.97919 24.724 9.97919C24.7232 9.97959 24.7208 9.98039 24.7196 9.98079C24.7192 9.98079 24.7184 9.98079 24.7184 9.98079C24.7176 9.98079 24.716 9.98079 24.7156 9.98079C24.7152 9.98079 24.7144 9.98079 24.714 9.98079C24.7136 9.98079 24.7116 9.98079 24.7112 9.98079C24.7096 9.98039 24.7068 9.97959 24.7056 9.97919C24.6663 9.96837 24.6159 9.90348 24.6239 9.81295C24.6011 9.34586 24.4488 8.81749 24.2109 8.41049C24.126 8.32557 24.0887 8.29112 24.0647 8.28711C24.0639 8.28711 24.0627 8.28711 24.0619 8.28711C24.0611 8.28711 24.0591 8.28711 24.0575 8.28711C24.0571 8.28711 24.0563 8.28711 24.0559 8.28711H24.0547C24.0542 8.28711 24.0534 8.28711 24.053 8.28711C24.0506 8.28791 24.0482 8.28991 24.0458 8.29152C24.0446 8.29232 24.0426 8.29352 24.0414 8.29432C24.023 8.30834 24.0014 8.33999 23.9525 8.37444C23.8704 8.46777 23.8556 8.53307 23.8608 8.72014C23.8656 8.73977 24.0166 9.16039 24.1448 9.45602C24.2313 9.76327 24.311 10.115 24.2525 10.4471C24.0502 10.8861 23.6436 11.2799 23.2515 11.4942C23.0516 11.5583 22.8789 11.5363 22.8329 11.4926C22.8325 11.4922 22.8317 11.4914 22.8313 11.491C22.7163 11.4137 22.7139 11.2763 22.7207 11.2531C22.7207 11.2531 22.7207 11.2519 22.7207 11.2515C22.7211 11.2511 22.7219 11.2503 22.7223 11.2499C23.0532 11.0191 23.4317 10.8324 23.7278 10.2099C23.8151 9.97198 23.8419 9.82897 23.755 9.46123C23.721 9.32423 23.6793 9.21126 23.586 9.11432L23.5876 9.11272C23.644 9.08588 23.7903 9.19364 23.8127 9.12554C23.7782 8.95008 23.6593 8.71414 23.5243 8.59356C23.4065 8.4866 23.2779 8.47418 23.1702 8.57193C23.0484 8.63963 23.0227 8.88278 23.0812 9.0955C23.1461 9.25573 23.322 9.28377 23.447 9.60624V9.60785C23.4498 9.62788 23.4898 9.8486 23.4269 9.93753C23.3757 10.097 22.7191 10.6149 22.6726 10.6462C22.6722 10.6466 22.669 10.6486 22.6682 10.649C22.6678 10.6494 22.667 10.6502 22.6666 10.6506C22.6666 10.6506 22.6654 10.6518 22.665 10.6522C22.665 10.6522 22.6638 10.6534 22.6634 10.6538C22.6634 10.6538 22.6622 10.6538 22.6618 10.6538C22.6618 10.6538 22.6606 10.6538 22.6602 10.6538C22.6598 10.6534 22.659 10.6526 22.659 10.6522C22.659 10.6522 22.659 10.651 22.659 10.6506C22.6586 10.6502 22.6578 10.6482 22.6574 10.6478C22.6554 10.635 22.659 10.6021 22.6574 10.5488C22.653 10.4519 22.6931 10.2324 22.6902 10.1947C22.6902 10.1947 22.6902 10.1935 22.6902 10.1931C22.6898 10.1927 22.689 10.1919 22.689 10.1915C22.689 10.1915 22.689 10.1903 22.689 10.1899C22.6886 10.1899 22.6874 10.1899 22.6874 10.1899C22.4703 10.3301 22.3986 10.7599 22.359 10.8869C21.8094 11.2667 21.1852 11.5491 20.8259 11.9341C20.6388 12.2265 22.1158 11.5984 22.2873 11.5223C22.2889 11.5235 22.2901 11.5251 22.2917 11.5267C22.3241 11.5627 22.3269 11.6877 22.4251 11.8007C22.5785 12.0086 22.905 12.1368 23.2226 12.0574C23.755 11.8652 24.0619 11.5018 24.3743 11.0992C24.4188 11.0343 24.4889 10.9831 24.5538 11.0331C24.7685 11.5138 25.3874 11.8555 26.1874 11.8908C26.3725 11.6657 26.2839 11.5551 26.209 11.5078C26.1858 11.4926 25.8112 11.3464 25.7527 11.201C25.7163 11.0656 25.8052 10.9454 25.9835 10.8553C26.497 10.7932 27.0022 10.7243 27.4909 10.5669C27.4957 10.4026 27.5926 10.1571 27.6571 10.0505C27.7016 9.97919 27.7304 9.97198 27.7413 9.96157V9.96157ZM26.3893 8.93206C26.3905 8.92685 26.3925 8.92244 26.3949 8.91763C26.3957 8.91603 26.3965 8.91323 26.3977 8.91203C26.3977 8.91163 26.3989 8.91082 26.3989 8.91042C26.4009 8.90802 26.4037 8.90522 26.4061 8.90321C26.4165 8.8952 26.4313 8.88919 26.4478 8.88759C26.4834 8.88398 26.5303 8.896 26.5755 8.92204C26.6408 8.9597 26.6809 9.01698 26.6761 9.05824C26.6761 9.05944 26.6765 9.06145 26.6761 9.06265C26.6757 9.06385 26.6737 9.06585 26.6733 9.06705C26.6729 9.06825 26.6721 9.07026 26.6717 9.07146C26.6713 9.07226 26.6705 9.07346 26.6701 9.07426C26.6697 9.07507 26.6689 9.07667 26.6685 9.07707C26.6665 9.08067 26.6629 9.08428 26.6601 9.08708C26.6288 9.11633 26.5563 9.11232 26.4878 9.07266C26.4229 9.03541 26.3833 8.97772 26.3873 8.93646C26.3881 8.93526 26.3893 8.93326 26.3893 8.93206V8.93206ZM25.7339 10.5741C25.5581 10.6342 25.389 10.6814 25.3882 10.9354C25.4114 11.0612 25.4062 11.1273 25.387 11.1577C25.3854 11.1601 25.383 11.1629 25.3814 11.1649C25.381 11.1653 25.3802 11.1661 25.3798 11.1665C25.3794 11.1669 25.3786 11.1677 25.3782 11.1681C25.3778 11.1685 25.377 11.1693 25.377 11.1697L25.3754 11.1713C25.375 11.1717 25.373 11.1725 25.3726 11.1729C25.3702 11.1745 25.3666 11.1761 25.3638 11.1773C25.3614 11.1781 25.3578 11.1782 25.3554 11.179C25.3137 11.185 25.2528 11.1453 25.2075 11.1217C25.099 11.044 24.7949 10.8553 24.7513 10.4503C24.7453 10.3589 24.8134 10.28 24.9235 10.2724C24.9287 10.272 24.9335 10.2724 24.9391 10.2724H24.942C25.1246 10.3221 25.3938 10.3273 25.6274 10.3513C25.818 10.3622 25.9122 10.5116 25.7339 10.5741V10.5741Z" fill="white"/>
<path d="M25.1925 8.98806C25.3811 9.07819 25.831 9.02492 25.7216 8.73409C25.7216 8.70725 25.7144 8.61672 25.7116 8.59228C25.6924 8.54741 25.6567 8.53059 25.6227 8.5362C25.5886 8.54221 25.5558 8.57025 25.5438 8.61631C25.5362 8.64676 25.5582 8.69723 25.531 8.71246C25.5153 8.72848 25.454 8.71927 25.4564 8.63514C25.4564 8.6083 25.4368 8.57906 25.4248 8.56184C25.4128 8.55382 25.4064 8.55182 25.3847 8.55182C25.3583 8.55302 25.3575 8.55983 25.3431 8.58186C25.3371 8.6043 25.3287 8.62673 25.3287 8.65197C25.3255 8.68201 25.315 8.69203 25.293 8.69643C25.2686 8.69643 25.2742 8.69924 25.2542 8.68642C25.2421 8.6736 25.2269 8.66839 25.2269 8.64636C25.2269 8.62353 25.2225 8.58707 25.2153 8.57185C25.2049 8.55823 25.1869 8.55222 25.168 8.54741C25.0651 8.54781 25.0587 8.66479 25.0647 8.70965C25.0571 8.71806 25.0519 8.92957 25.1925 8.98806V8.98806Z" fill="white"/>
<path d="M32.0011 16.8342C31.8885 16.851 31.572 16.883 31.572 16.883C31.2063 16.8394 30.9379 16.835 30.5265 16.8197C30.5645 16.7717 30.6314 16.5762 30.5493 16.5057C30.5281 16.4881 30.496 16.478 30.452 16.4813C30.4516 16.4813 30.4508 16.4813 30.4504 16.4813C30.45 16.4813 30.448 16.4813 30.4476 16.4813C30.4472 16.4813 30.4464 16.48 30.446 16.4796C30.4448 16.4792 30.4428 16.4788 30.4416 16.478C30.4392 16.4764 30.4364 16.4732 30.4344 16.4708C30.434 16.47 30.432 16.4688 30.4316 16.468C30.4107 16.4376 30.3995 16.3635 30.3855 16.3447C30.3855 16.3447 30.3843 16.3434 30.3839 16.343C30.3839 16.343 30.3827 16.3418 30.3827 16.3414C30.3823 16.341 30.3803 16.3402 30.3799 16.3398C30.3795 16.3398 30.3787 16.3398 30.3783 16.3398C30.3783 16.3398 30.3771 16.3398 30.3767 16.3398C30.3763 16.3402 30.3755 16.341 30.3755 16.341C30.1035 16.4107 30.1119 16.6932 30.2865 16.8173C27.4139 16.8173 23.0051 16.7685 22.0597 16.7685C21.5309 16.7685 19.8572 16.7052 19.8252 16.7052C20.1841 17.2299 20.7041 17.3369 21.3843 17.3477C22.6602 17.3477 28.5724 17.3321 30.2549 17.3321C30.1351 17.5444 30.2657 17.8861 30.3594 17.949C30.3614 17.9502 30.3647 17.9522 30.3667 17.9534C30.3703 17.955 30.3747 17.957 30.3783 17.9578C30.3795 17.9582 30.3815 17.9578 30.3827 17.9578C30.494 17.9843 30.5429 17.9033 30.5806 17.8444C30.7612 17.8605 31.7783 17.8749 31.8713 17.8428C31.8717 17.8428 31.8725 17.8416 31.8729 17.8412C31.9358 17.9338 31.9982 18.0215 32.118 18.0063C32.3275 17.9614 32.493 17.9386 32.4982 17.5128C32.4986 17.514 32.4769 16.7889 32.0011 16.8342V16.8342ZM31.796 17.6117C31.794 17.6125 31.7907 17.6141 31.7887 17.6145C31.7871 17.6149 31.7847 17.6145 31.7831 17.6145C31.7815 17.6145 31.7791 17.6149 31.7775 17.6145C31.6413 17.6109 31.5624 17.6081 31.4262 17.6045C31.4262 17.5977 31.4254 17.5905 31.4234 17.5845C31.391 17.4887 31.157 17.4951 31.1021 17.57C31.1013 17.5712 31.1001 17.5733 31.0993 17.5745C31.0985 17.5761 31.0973 17.5785 31.0965 17.5801C31.0957 17.5821 31.0941 17.5853 31.0937 17.5873C31.0929 17.5901 31.0925 17.5945 31.0921 17.5973C31.0917 17.6009 31.0905 17.6053 31.0905 17.6089C30.9066 17.6309 30.7408 17.6029 30.5569 17.5961C30.5029 17.5288 30.5093 17.4074 30.5726 17.3782C30.573 17.3778 30.5734 17.3786 30.5738 17.3782C30.9928 17.3986 31.3866 17.3822 31.806 17.4026C31.8725 17.4587 31.8392 17.5881 31.796 17.6117V17.6117Z" fill="white"/>
<path d="M26.8756 11.7893C26.8756 11.7965 26.9493 11.8598 27.0362 11.8093C27.2193 11.7396 27.3335 11.6715 27.5898 11.6158C27.6571 11.6146 27.6531 11.4343 27.547 11.4279C27.408 11.4347 27.2798 11.442 27.1412 11.5513C27.0559 11.5709 27.041 11.5189 27.0222 11.4724C27.0006 11.3566 27.0711 11.2753 27.0567 11.1884C27.0607 11.1924 27.0134 11.1499 26.9533 11.1467C26.9333 11.1455 26.912 11.1487 26.89 11.1595C26.8856 11.1595 26.6969 11.2873 26.636 11.3763C26.5988 11.4043 26.6032 11.4291 26.6144 11.478C26.6432 11.5445 26.6941 11.5237 26.7522 11.4924C26.8291 11.482 26.866 11.5321 26.86 11.6242C26.8243 11.7396 26.8756 11.7821 26.8756 11.7893V11.7893Z" fill="white"/>
<path d="M33.2103 11.7421C33.1747 11.7012 33.0938 11.7256 33.0397 11.7192C33.014 11.7192 32.9291 11.7068 32.9696 11.6319C33.0032 11.5854 33.0156 11.5574 33.0385 11.5001C33.0641 11.444 33.0417 11.406 32.9496 11.3755C32.9027 11.3671 32.8702 11.3643 32.8362 11.3655C32.8021 11.3667 32.7661 11.3711 32.7144 11.3755C32.6583 11.3875 32.6387 11.412 32.6283 11.4801C32.6323 11.5834 32.6956 11.5782 32.7601 11.6191C32.7977 11.6667 32.8218 11.71 32.7573 11.7881C32.696 11.8442 32.6523 11.8754 32.591 11.9315C32.5622 11.9808 32.5442 12.0569 32.6327 12.0805C32.7961 12.1266 33.1747 11.8807 33.1747 11.8754C33.236 11.8294 33.2155 11.7421 33.2103 11.7421V11.7421Z" fill="white"/>
<path d="M30.2846 11.2534C30.416 11.2542 30.5682 10.9526 30.6331 10.6537C30.6687 10.2423 30.6095 9.99197 30.5986 9.75002C30.5878 9.50806 30.325 7.54638 30.2718 7.36332C30.2073 7.01721 30.5277 7.31765 30.4925 7.11655C30.3819 6.86298 30.1055 6.49364 30.0194 6.27332C29.9869 6.21443 29.9829 6.15955 29.9561 6.16436C29.9401 6.16716 29.9164 6.1916 29.8728 6.24888C29.765 6.6018 29.727 6.89022 29.7682 7.10934C30.0458 8.55747 30.3298 9.8758 30.2846 11.2534V11.2534Z" fill="white"/>
<path d="M34.3844 7.4225C34.372 7.33116 34.3315 7.12126 34.3472 7.09402C34.3724 7.02992 34.4986 7.10043 34.5438 7.02672C34.6099 6.95942 34.217 6.45588 34.0792 6.24076C34.0515 6.18669 34.0347 6.14222 34.0103 6.14462C33.9914 6.14663 33.9682 6.17707 33.9329 6.25198C33.8476 6.39139 33.8184 6.64095 33.8524 6.86168C34.0575 8.24771 34.2097 9.59008 34.241 10.8187C34.2234 10.9353 34.2182 10.9973 34.1637 11.1444C34.0427 11.2994 33.9093 11.4937 33.7835 11.5874C33.6577 11.6811 33.3905 11.7705 33.3028 11.8398C33.0256 12 33.024 12.1847 33.2483 12.1911C33.6349 12.1462 34.092 12.1146 34.4072 11.6391C34.4914 11.5057 34.5907 11.1444 34.5951 10.9232C34.6248 9.62693 34.5787 8.35947 34.3844 7.4225V7.4225Z" fill="white"/>
<path d="M31.829 10.4817C31.8879 10.5134 32.0425 10.3231 32.0369 10.0843C32.0541 9.96176 31.9932 9.5099 31.839 9.43298C31.8214 9.42818 31.8018 9.42657 31.7829 9.42858C31.7024 9.43859 31.6259 9.5147 31.6612 9.63648C31.6391 9.70819 31.7705 9.95815 31.8046 10.0911C31.8354 10.1861 31.7653 10.4533 31.829 10.4817V10.4817Z" fill="white"/>
<path d="M19.6576 6.64439C19.8463 6.73452 20.2004 6.69647 20.1856 6.39202C20.1856 6.36518 20.1796 6.27465 20.1768 6.25022C20.1575 6.20535 20.1223 6.18852 20.0882 6.19453C20.0542 6.20054 20.0213 6.22858 20.0093 6.27465C20.0017 6.30509 20.0225 6.35557 19.9949 6.37079C19.9793 6.38682 19.9192 6.376 19.9216 6.29188C19.9216 6.26504 19.902 6.237 19.8899 6.22017C19.8779 6.21256 19.8699 6.21016 19.8483 6.21016C19.8218 6.21136 19.8226 6.21817 19.8082 6.2402C19.8018 6.26263 19.7934 6.28466 19.7934 6.3103C19.7902 6.34035 19.7782 6.35036 19.7561 6.35477C19.7317 6.35477 19.7373 6.35757 19.7173 6.34475C19.7057 6.33194 19.6916 6.32673 19.6916 6.30469C19.6916 6.28186 19.6856 6.24541 19.6788 6.23018C19.6684 6.21656 19.652 6.20935 19.6328 6.20455C19.5298 6.20495 19.5222 6.32352 19.5282 6.36799C19.521 6.376 19.517 6.58591 19.6576 6.64439V6.64439Z" fill="white"/>
<path d="M22.509 7.6293C22.4858 7.6269 22.4553 7.63531 22.4201 7.65654C22.253 7.74668 22.1885 8.01467 22.2923 8.1713C22.3892 8.3095 22.5431 8.25863 22.5635 8.25863C22.7269 8.27906 22.8247 7.95178 22.8247 7.95178C22.8247 7.95178 22.8295 7.85964 22.6352 8.0335C22.5535 8.04872 22.5423 8.01948 22.5218 7.97341C22.5046 7.88808 22.5086 7.80196 22.5475 7.71663C22.5659 7.66576 22.5479 7.63331 22.509 7.6293Z" fill="white"/>
<path d="M29.2989 10.9599C28.9952 11.2768 28.5578 11.6677 28.0811 11.8476C28.0298 11.9053 28.2085 12.1504 28.4396 12.15C28.8262 12.1052 29.1659 11.8881 29.4808 11.3168C29.5649 11.1834 29.7131 10.8982 29.7175 10.6771C29.7471 9.38078 29.6522 8.3729 29.4579 7.43593C29.4455 7.3446 29.4539 7.23684 29.4695 7.2092C29.4944 7.17915 29.5793 7.21 29.6246 7.13589C29.6907 7.06859 29.4483 6.50937 29.3105 6.29385C29.2829 6.23977 29.266 6.19691 29.2416 6.19932C29.2228 6.20132 29.1995 6.23056 29.1643 6.30547C29.0794 6.44488 29.0213 6.68763 29.0281 6.91517C29.2124 8.19184 29.2688 9.30868 29.3894 10.5853C29.399 10.7091 29.381 10.8882 29.2989 10.9599V10.9599Z" fill="white"/>
<path d="M18.7888 9.04492C18.3353 9.05333 17.6719 9.63899 17.6543 9.96427C18.1326 9.73473 18.6025 9.51361 19.0884 9.27566C19.0099 9.15869 19.0836 9.05333 18.7888 9.04492V9.04492Z" fill="white"/>
<path d="M17.9093 11.4497C17.7899 11.6917 17.7407 11.5262 17.7299 11.3908C17.7114 11.1344 17.7363 10.8981 17.7643 10.711C17.7791 10.6153 17.7787 10.5816 17.7671 10.582C17.7559 10.5824 17.7327 10.6165 17.7026 10.6553C17.433 11.0848 17.409 11.7261 17.5576 11.9176C17.6365 12.0081 17.7671 12.0478 17.8633 12.0193C18.0327 11.946 18.1072 11.6027 18.0668 11.4773C18.0103 11.3884 17.9658 11.3744 17.9093 11.4497V11.4497Z" fill="white"/>
<path d="M17.9606 8.6538C18.5114 8.70667 18.2074 7.72243 18.4069 7.54377C18.4445 7.45564 18.5142 7.45404 18.5202 7.5654V8.40143C18.515 8.67343 18.6941 8.75394 18.8331 8.81003C18.9777 8.79881 19.0734 8.80282 19.1299 8.94342C19.1523 9.42533 19.176 9.90844 19.1988 10.3907C19.1988 10.3907 19.5329 10.4869 19.5489 9.57755C19.565 9.04357 19.4428 8.59571 19.5145 8.49196C19.5169 8.38981 19.6479 8.385 19.738 8.43468C19.8818 8.53642 19.9459 8.66141 20.1698 8.61093C20.5103 8.5172 20.7154 8.35175 20.7206 8.09017C20.7006 7.84181 20.6718 7.59304 20.5644 7.34428C20.5796 7.29901 20.4991 7.18164 20.5143 7.13637C20.5756 7.23211 20.6682 7.2241 20.6894 7.13637C20.6313 6.94529 20.5412 6.76222 20.3954 6.68331C20.2748 6.57715 20.0985 6.59958 20.034 6.82111C20.004 7.07628 20.1266 7.37873 20.3125 7.62589C20.3521 7.72243 20.407 7.88307 20.3826 8.02728C20.2836 8.08376 20.1859 8.06013 20.1029 7.9728C20.1029 7.9728 19.8317 7.7697 19.8317 7.72483C19.9039 7.26416 19.8474 7.21168 19.8073 7.08389C19.7793 6.90763 19.6959 6.85155 19.6278 6.73098C19.5601 6.65927 19.468 6.65927 19.4243 6.73098C19.3046 6.93888 19.3607 7.38473 19.4472 7.58423C19.5097 7.7681 19.6058 7.88267 19.5605 7.88267C19.5233 7.98642 19.446 7.96238 19.3899 7.84261C19.3102 7.59504 19.2938 7.2261 19.2938 7.05946C19.2697 6.85316 19.2429 6.41251 19.1075 6.30075C19.0714 6.25147 19.0286 6.23425 18.9869 6.23906C18.9336 6.24546 18.8836 6.28873 18.8591 6.34681C18.8503 6.55151 18.8491 6.75621 18.8719 6.94489C18.9649 7.27577 18.9945 7.567 19.0398 7.9059C19.0522 8.35977 18.7778 8.10219 18.7902 7.87706C18.8535 7.58463 18.8367 7.12475 18.7802 7.00778C18.7353 6.89121 18.6837 6.86237 18.5751 6.8816C18.489 6.87639 18.2658 7.11915 18.2038 7.52134C18.2038 7.52134 18.1517 7.72764 18.1292 7.91151C18.0988 8.11901 17.961 8.26603 17.8653 7.88267C17.7823 7.60386 17.7315 6.91725 17.5929 7.07788C17.5524 7.61347 17.5051 8.55685 17.9606 8.6538V8.6538Z" fill="white"/>
<path d="M18.1451 6.63178C18.174 6.70388 18.1163 6.93582 18.1768 6.95745C18.2321 6.98149 18.3086 6.79682 18.3374 6.62617C18.3534 6.53283 18.3414 6.21276 18.1239 6.14707C18.1127 6.14466 18.1015 6.14306 18.0894 6.14266C18.0061 6.14025 17.9144 6.19193 17.9504 6.29168C17.9296 6.34656 18.1131 6.53043 18.1451 6.63178Z" fill="white"/>
<path d="M21.2895 10.805C21.4858 10.1512 21.2855 9.65811 21.3512 9.59722C21.3516 9.59682 21.3536 9.59602 21.354 9.59562C21.3548 9.59522 21.3564 9.59442 21.3568 9.59402C21.3576 9.59362 21.3588 9.59281 21.3597 9.59241C21.3621 9.59201 21.3657 9.59121 21.3681 9.59081C21.6104 9.852 21.9505 9.62406 22.025 9.53353C22.0571 9.48826 22.1368 9.45902 22.1929 9.5179C22.3819 9.6537 22.7132 9.58961 22.7825 9.35006C22.8226 9.11572 22.8562 8.87456 22.8643 8.62419C22.7413 8.66225 22.6419 8.69109 22.6019 8.73315C22.5923 8.74357 22.5854 8.75519 22.583 8.76761C22.5722 8.83691 22.5622 8.90621 22.5514 8.97551C22.5502 8.98112 22.5486 8.98633 22.5458 8.99113C22.5406 8.99954 22.5318 9.00756 22.523 9.01276C22.4793 9.0364 22.4036 9.02278 22.3996 8.95989C22.3411 8.6935 22.0999 8.65905 21.9533 9.07165C21.8548 9.15137 21.6753 9.16699 21.6565 9.04721C21.6805 8.77041 21.5688 8.73315 21.3452 8.86375C21.2735 8.31534 21.2022 7.79137 21.1301 7.24297C21.2235 7.24017 21.3088 7.30786 21.3941 7.20131C21.302 6.91449 21.1069 6.33083 20.9967 6.27635C20.9959 6.27595 20.9947 6.27515 20.9939 6.27475C20.9891 6.26874 20.9831 6.26313 20.9783 6.25913C20.9763 6.25752 20.9731 6.25472 20.9711 6.25352C20.9691 6.25232 20.9659 6.25031 20.9639 6.24911C20.9595 6.24671 20.9539 6.2447 20.9494 6.2435C20.9394 6.2407 20.9298 6.2395 20.9194 6.2407C20.8922 6.2443 20.8617 6.25993 20.8261 6.26794C20.7091 6.30519 20.5993 6.40654 20.6338 6.60363C20.7724 7.44487 20.8625 8.08701 21.0007 8.92864C21.022 9.02719 20.9394 9.15698 20.8329 9.14376C20.6518 9.02118 20.6069 8.77321 20.2981 8.78363C20.0746 8.78643 19.8194 9.02959 19.7873 9.26393C19.7501 9.45021 19.7369 9.6521 19.7873 9.81474C19.9444 10.0038 20.1331 9.98379 20.2981 9.94093C20.4339 9.88524 20.5457 9.75105 20.5933 9.78309H20.5949V9.7847C20.6246 9.83637 20.5921 10.2742 19.9552 10.6123C19.5638 10.7882 19.2522 10.8302 19.0847 10.5106C18.981 10.3107 19.0923 9.55035 18.8368 9.72621C18.0804 11.6751 20.6081 11.9475 20.8906 9.80633C20.909 9.74584 20.9647 9.68535 21.0039 9.70017C21.0212 9.70738 21.0368 9.73102 21.0428 9.77468C20.9843 11.7131 19.0875 11.8461 18.765 11.236C18.6853 11.0922 18.6613 10.7725 18.6533 10.5807C18.6389 10.4645 18.6096 10.3976 18.576 10.3712C18.4991 10.3135 18.3957 10.4641 18.3737 10.7253C18.3416 10.9356 18.3508 10.9933 18.3508 11.1956C18.4518 12.7274 20.8926 12.0696 21.2895 10.805V10.805ZM20.3466 9.48025V9.48185C20.3462 9.48265 20.3458 9.48426 20.345 9.48466C20.3261 9.50909 20.2592 9.49908 20.2116 9.49908C20.1539 9.49667 20.1258 9.48706 20.091 9.44019C20.0746 9.38811 20.1246 9.33684 20.1471 9.29838C20.1471 9.29798 20.1483 9.29718 20.1483 9.29678C20.1507 9.29318 20.1547 9.28877 20.1583 9.28516C20.1755 9.26954 20.2052 9.25472 20.2372 9.25071C20.2432 9.24991 20.2496 9.24911 20.256 9.24911C20.3005 9.24951 20.3474 9.27154 20.3722 9.33363C20.3946 9.39092 20.3734 9.45061 20.3466 9.48025Z" fill="white"/>
<path d="M28.4188 8.01736C28.6075 8.10749 28.9632 8.06783 28.948 7.76338C28.948 7.73654 28.9408 7.64601 28.938 7.62158C28.9188 7.57671 28.8831 7.55989 28.8491 7.56549C28.815 7.5715 28.7822 7.60075 28.7701 7.64721C28.7625 7.67766 28.7846 7.72653 28.7573 7.74175C28.7417 7.75778 28.6804 7.74856 28.6828 7.66444C28.6828 7.6376 28.6632 7.60836 28.6512 7.59113C28.6392 7.58352 28.6311 7.58112 28.6095 7.58112C28.5831 7.58232 28.5839 7.58913 28.5695 7.61116C28.5634 7.63359 28.555 7.65603 28.555 7.68126C28.5518 7.71131 28.5414 7.72132 28.5194 7.72573C28.4949 7.72573 28.4993 7.72853 28.4793 7.71571C28.4673 7.7029 28.4537 7.69769 28.4537 7.67565C28.4537 7.65282 28.4477 7.61637 28.4409 7.60115C28.4304 7.58753 28.414 7.58152 28.3948 7.57671C28.2918 7.57711 28.2858 7.69408 28.2914 7.73895C28.2834 7.74776 28.2782 7.95927 28.4188 8.01736V8.01736Z" fill="white"/>
<path d="M28.5454 6.83826C28.6127 7.02693 28.4941 7.2068 28.5642 7.23283C28.6287 7.26208 28.7185 7.03815 28.7521 6.83145C28.791 6.664 28.6716 6.3215 28.5025 6.25059C28.4897 6.24739 28.4761 6.24659 28.4625 6.24619C28.3659 6.24338 28.2586 6.30427 28.3002 6.42565C28.2758 6.49135 28.5082 6.71527 28.5454 6.83826V6.83826Z" fill="white"/>
<path d="M21.5098 7.743H21.5114C21.5118 7.743 21.5126 7.7442 21.513 7.7446H21.5146C21.5146 7.7446 21.5158 7.7458 21.5162 7.7462C21.5519 7.77023 21.9937 7.76983 22.0426 7.7478C22.043 7.7478 22.0438 7.7466 22.0438 7.7462H22.0454C22.0454 7.7462 22.0454 7.745 22.0454 7.7446C22.1972 7.68851 22.9175 6.86531 22.9175 6.86531C22.8802 6.83326 22.8458 6.80963 22.8085 6.77798C22.7685 6.74353 22.7725 6.70948 22.8085 6.67463C22.9868 6.57088 22.9303 6.34254 22.8374 6.23879C22.76 6.20434 22.6875 6.19232 22.6222 6.19593C22.557 6.19913 22.4993 6.21796 22.45 6.2432C22.325 6.36297 22.2954 6.55525 22.3939 6.67503C22.4897 6.7203 22.5854 6.81684 22.5217 6.87011C22.2505 7.15974 21.5447 7.64365 21.509 7.73218C21.5086 7.73298 21.5078 7.73418 21.5078 7.73498V7.73779V7.73939C21.5078 7.74019 21.5086 7.74179 21.509 7.74219C21.5086 7.74179 21.5094 7.74259 21.5098 7.743V7.743ZM22.5778 6.4523C22.5806 6.4515 22.5834 6.4511 22.5862 6.4507C22.6303 6.44629 22.6835 6.48675 22.7096 6.54404C22.7372 6.60493 22.7236 6.66341 22.6779 6.67463C22.6327 6.68584 22.5738 6.64538 22.5461 6.58409C22.5185 6.52321 22.5325 6.46352 22.5778 6.4523Z" fill="white"/>
<path d="M26.79 6.90888C27.1064 7.33431 27.4109 7.76174 27.7049 8.20398C27.751 8.53247 27.785 8.85374 27.8067 9.17341C27.8543 9.87484 27.8687 10.7481 27.8255 11.4868C27.9569 11.492 28.1676 11.2745 28.2413 10.956C28.2894 10.5154 28.2241 9.61686 28.2197 9.35687C28.2165 9.24912 28.21 9.12013 28.2024 8.98553C28.5445 9.54435 28.8762 10.1368 29.2019 10.787C29.3205 10.7305 29.2944 10.0619 29.2247 9.96817C28.964 9.40695 28.6038 8.85294 28.4889 8.64022C28.4476 8.56331 28.3062 8.3486 28.1387 8.10103C28.1079 7.74772 28.0742 7.44848 28.0526 7.35794C27.9989 6.9846 28.206 7.40001 28.1776 7.18289C28.1103 6.80994 27.9044 6.55637 27.6612 6.21467C27.5827 6.1037 27.5843 6.08087 27.4634 6.24191C27.3908 6.40615 27.392 6.54275 27.4133 6.67054C27.3816 6.62447 27.342 6.56919 27.2855 6.50149C27.0756 6.32122 27.0628 6.31161 26.8881 6.16459C26.8332 6.12574 26.7287 6.06565 26.6486 6.07286C26.6005 6.07727 26.5624 6.10531 26.548 6.17621C26.5288 6.34286 26.5388 6.43339 26.5668 6.57199C26.5889 6.66453 26.7235 6.81915 26.79 6.90888V6.90888ZM27.4597 6.88365C27.4678 6.9197 27.4758 6.95575 27.4814 6.99261C27.4994 7.07193 27.515 7.15084 27.5315 7.22936C27.4618 7.13362 27.4041 7.0559 27.3796 7.02866C27.2222 6.84159 27.3828 6.90568 27.4597 6.88365V6.88365Z" fill="white"/>
<path d="M23.5753 8.22724C23.7956 8.31857 23.9355 7.89916 24.0256 7.43968C24.0873 7.3107 24.1345 7.29587 24.1662 7.36237C24.1582 7.97287 24.2099 8.10947 24.3669 8.29454C24.717 8.56494 25.0066 8.32859 25.0295 8.30616C25.0523 8.28332 25.3019 8.03376 25.3019 8.03376C25.3627 7.97006 25.4429 7.96606 25.5286 8.02214C25.6119 8.09785 25.6011 8.22844 25.7798 8.31897C25.93 8.37906 26.2505 8.3334 26.325 8.20441C26.4251 8.03295 26.4491 7.97407 26.4956 7.90877C26.5669 7.81383 26.6891 7.8559 26.6891 7.88594C26.6779 7.93882 26.6058 7.99129 26.6546 8.08663C26.7396 8.15033 26.7592 8.10947 26.8097 8.09505C26.9875 8.01012 27.1209 7.62476 27.1209 7.62476C27.1289 7.48095 27.0468 7.49176 26.9947 7.52141C26.9266 7.56307 26.9222 7.57709 26.8541 7.61875C26.7672 7.63157 26.599 7.68885 26.5156 7.55986C26.4307 7.40483 26.4299 7.18852 26.365 7.03189C26.365 7.02067 26.2513 6.78593 26.3566 6.7707C26.4095 6.78072 26.5237 6.80996 26.5417 6.71462C26.5974 6.62169 26.4215 6.3585 26.3021 6.2255C26.1984 6.11174 26.055 6.09772 25.9164 6.21389C25.819 6.30322 25.8334 6.40296 25.8146 6.4979C25.7898 6.60646 25.7946 6.74146 25.9051 6.88527C26.0021 7.07635 26.1783 7.32191 26.1203 7.66842C26.1203 7.66842 26.0177 7.83346 25.8378 7.81183C25.7629 7.79541 25.6404 7.76296 25.5755 7.28265C25.5262 6.91892 25.5879 6.40977 25.4337 6.17102C25.3988 6.08089 25.3688 5.99356 25.3191 6.00037C25.289 6.00438 25.2526 6.04284 25.2013 6.13537C25.1649 6.23191 25.0074 6.37853 25.1212 6.68057C25.2141 6.87205 25.2522 7.18291 25.2101 7.52982C25.1456 7.62836 25.1312 7.66241 25.0467 7.76056C24.9281 7.88794 24.7995 7.8555 24.701 7.80783C24.6088 7.74573 24.5363 7.71369 24.4943 7.5166C24.5019 7.20214 24.5203 6.68778 24.4626 6.57842C24.3781 6.40937 24.2383 6.46986 24.1786 6.52114C23.8918 6.78312 23.7504 7.22577 23.6639 7.57829C23.5845 7.83506 23.4996 7.76055 23.4403 7.6572C23.2953 7.5214 23.2853 6.46025 23.1102 6.6345C22.8294 7.43568 23.2701 8.31256 23.5753 8.22724V8.22724Z" fill="white"/>
<path d="M24.8119 6.7175C24.9205 6.42467 24.9209 6.29969 24.9281 6.1755C24.9112 6.08097 24.87 6.0353 24.8235 6.0393C24.777 6.04331 24.725 6.09779 24.6829 6.20274C24.6469 6.28246 24.6024 6.70027 24.61 6.70027C24.5808 6.82446 24.7394 6.87733 24.8119 6.7175V6.7175Z" fill="white"/>
<path d="M23.6768 6.64916C23.7385 6.6039 23.7593 6.57465 23.7802 6.49854C23.8058 6.37075 23.6456 6.55903 23.6251 6.41682C23.5895 6.28463 23.6916 6.23055 23.7886 6.10276C23.7906 6.04267 23.7918 5.9934 23.7529 5.9922C23.7353 5.9918 23.7084 6.00141 23.6712 6.02385C23.5875 6.07993 23.4208 6.25338 23.416 6.45248C23.4108 6.56504 23.3896 6.56464 23.4633 6.63594C23.5166 6.71286 23.5694 6.70525 23.6768 6.64916V6.64916Z" fill="white"/>
</svg>
