<svg width="21" height="15" viewBox="0 0 21 15" fill="none" xmlns="http://www.w3.org/2000/svg">
<path d="M5.5 10H8.5C8.76522 10 9.01957 9.89464 9.20711 9.70711C9.39464 9.51957 9.5 9.26522 9.5 9C9.5 8.73478 9.39464 8.48043 9.20711 8.29289C9.01957 8.10536 8.76522 8 8.5 8H5.5C5.23478 8 4.98043 8.10536 4.79289 8.29289C4.60536 8.48043 4.5 8.73478 4.5 9C4.5 9.26522 4.60536 9.51957 4.79289 9.70711C4.98043 9.89464 5.23478 10 5.5 10ZM17.5 0H3.5C2.70435 0 1.94129 0.316071 1.37868 0.87868C0.816071 1.44129 0.5 2.20435 0.5 3V12C0.5 12.7956 0.816071 13.5587 1.37868 14.1213C1.94129 14.6839 2.70435 15 3.5 15H17.5C18.2956 15 19.0587 14.6839 19.6213 14.1213C20.1839 13.5587 20.5 12.7956 20.5 12V3C20.5 2.20435 20.1839 1.44129 19.6213 0.87868C19.0587 0.316071 18.2956 0 17.5 0ZM18.5 12C18.5 12.2652 18.3946 12.5196 18.2071 12.7071C18.0196 12.8946 17.7652 13 17.5 13H3.5C3.23478 13 2.98043 12.8946 2.79289 12.7071C2.60536 12.5196 2.5 12.2652 2.5 12V6H18.5V12ZM18.5 4H2.5V3C2.5 2.73478 2.60536 2.48043 2.79289 2.29289C2.98043 2.10536 3.23478 2 3.5 2H17.5C17.7652 2 18.0196 2.10536 18.2071 2.29289C18.3946 2.48043 18.5 2.73478 18.5 3V4Z" fill="#464646"/>
</svg>
