<svg width="75" height="73" viewBox="0 0 75 73" fill="none" xmlns="http://www.w3.org/2000/svg">
<mask id="path-1-outside-1_1048_177" maskUnits="userSpaceOnUse" x="0.921875" y="0.796875" width="74" height="72" fill="black">
<rect fill="white" x="0.921875" y="0.796875" width="74" height="72"/>
<path d="M0.921875 4.79688C0.921875 2.58774 2.71274 0.796875 4.92188 0.796875H68.9219C71.131 0.796875 72.9219 2.58774 72.9219 4.79688V68.7969C72.9219 71.006 71.131 72.7969 68.9219 72.7969H4.92188C2.71274 72.7969 0.921875 71.006 0.921875 68.7969V4.79688Z"/>
</mask>
<path d="M0.921875 4.79688C0.921875 2.58774 2.71274 0.796875 4.92188 0.796875H68.9219C71.131 0.796875 72.9219 2.58774 72.9219 4.79688V68.7969C72.9219 71.006 71.131 72.7969 68.9219 72.7969H4.92188C2.71274 72.7969 0.921875 71.006 0.921875 68.7969V4.79688Z" fill="#989898" fill-opacity="0.15"/>
<g clip-path="url(#clip0_1048_177)">
<path d="M19.9766 54.7969H39.1024C39.6849 54.7969 40.1571 54.3248 40.1571 53.7422V51.4922C40.1571 50.1173 39.2751 48.9448 38.0477 48.5094V47.137C38.0477 45.4673 36.6892 44.1091 35.0196 44.1091H24.0594C22.3897 44.1091 21.0312 45.4673 21.0312 47.137V48.5094C19.8038 48.9448 18.9219 50.1173 18.9219 51.4922V53.7422C18.9219 54.3248 19.394 54.7969 19.9766 54.7969ZM24.0594 46.2185H35.0196C35.5261 46.2185 35.9383 46.6305 35.9383 47.137V48.3282H23.1409V47.137C23.1409 46.6305 23.5529 46.2185 24.0594 46.2185ZM21.0312 51.4922C21.0312 50.9105 21.5045 50.4375 22.0859 50.4375H36.9927C37.5745 50.4375 38.0477 50.9105 38.0477 51.4922V52.6875H21.0312V51.4922Z" fill="#464646"/>
<path d="M31.0717 40.7541C32.1178 42.1436 34.1047 42.4314 35.5027 41.3789C36.4338 40.678 36.8669 39.5585 36.7401 38.4769C37.647 38.3225 38.5234 38.0701 39.3567 37.7298L49.2318 50.8461C50.2782 52.2364 52.2654 52.5229 53.6628 51.471C55.0565 50.4215 55.3369 48.4338 54.2874 47.0399L44.4126 33.9236C44.9696 33.2169 45.4544 32.4448 45.8535 31.6162C46.87 32.0425 48.0639 31.9219 48.9846 31.2287C50.3785 30.1792 50.6589 28.1915 49.6094 26.7976L44.5343 20.0567C43.4848 18.6628 41.4971 18.3826 40.1032 19.4321C39.1721 20.133 38.739 21.2522 38.8659 22.3338C34.8916 23.0109 31.5031 25.5616 29.753 29.1934C28.7384 28.768 27.5497 28.8833 26.6214 29.5821C25.2242 30.634 24.9446 32.616 25.9965 34.0131L31.0717 40.7541ZM42.9468 35.4839L44.3552 37.3546L42.6699 38.6233L41.2615 36.7529C41.8583 36.3785 42.4219 35.9539 42.9468 35.4839ZM52.3939 49.7857C51.9292 50.1356 51.2667 50.0422 50.9168 49.5775L43.9386 40.3086L45.6239 39.0399L52.6021 48.3086C52.952 48.7733 52.8584 49.4357 52.3939 49.7857ZM41.3722 21.1174C41.8383 20.7664 42.5005 20.8625 42.8493 21.3256L47.9241 28.0665C48.274 28.531 48.1807 29.1937 47.7159 29.5434C47.2504 29.8941 46.5898 29.801 46.2391 29.3352L41.164 22.5942C40.8141 22.1295 40.9074 21.467 41.3722 21.1174ZM39.8289 24.3279C40.2856 24.9349 43.7392 29.5222 44.2036 30.1388C42.7641 33.638 39.5391 36.0668 35.7774 36.4829L31.4026 30.6716C32.8438 27.1684 36.0636 24.7445 39.8289 24.3279ZM27.8903 31.2674C28.3547 30.9175 29.0158 31.0089 29.3671 31.4756L34.4423 38.2165C34.4423 38.2165 34.4423 38.2165 34.4423 38.2168C34.7919 38.6812 34.6985 39.3437 34.2341 39.6936C33.7693 40.0433 33.1069 39.9499 32.757 39.4854L27.6818 32.7445C27.3314 32.2787 27.4245 31.6181 27.8903 31.2674Z" fill="#464646"/>
</g>
<path d="M0.921875 0.796875H72.9219H0.921875ZM72.9219 72.7969H0.921875H72.9219ZM0.921875 72.7969V0.796875V72.7969ZM68.9219 0.796875C72.2356 0.796875 74.9219 3.48317 74.9219 6.79688V66.7969C74.9219 70.1106 72.2356 72.7969 68.9219 72.7969C70.0264 72.7969 70.9219 71.006 70.9219 68.7969V4.79688C70.9219 2.58774 70.0264 0.796875 68.9219 0.796875Z" fill="#F5CB00" mask="url(#path-1-outside-1_1048_177)"/>
<defs>
<clipPath id="clip0_1048_177">
<rect width="36.0001" height="36" fill="white" transform="translate(18.9219 18.7969)"/>
</clipPath>
</defs>
</svg>
