<svg width="25" height="25" viewBox="0 0 25 25" fill="none" xmlns="http://www.w3.org/2000/svg">
<g clip-path="url(#clip0_387_5306)">
<path d="M18.6334 9.41623L18.989 9.8903C19.1075 10.0088 19.226 10.1274 19.3445 10.1274C19.4631 10.1274 19.5816 10.1274 19.7001 10.0088L22.3075 7.63846C22.5446 7.4014 22.5446 7.04589 22.3075 6.80883L16.7372 0.764402C16.6186 0.645896 16.5001 0.527344 16.3816 0.527344C16.2631 0.527344 16.026 0.527344 15.9075 0.645849L13.3001 3.01624C13.0631 3.25329 13.0631 3.60881 13.3001 3.84587L13.6557 4.31994L9.38902 8.23103L9.03346 7.75697C8.7964 7.51991 8.44089 7.51991 8.20383 7.75697L5.59643 10.1274C5.47793 10.2459 5.35938 10.3644 5.35938 10.4829C5.35938 10.6014 5.35938 10.8385 5.47788 10.957L11.0482 17.1199C11.1667 17.2384 11.2853 17.357 11.4038 17.357C11.5223 17.357 11.6409 17.357 11.7594 17.2385L14.3668 14.8681C14.4853 14.7496 14.6038 14.631 14.6038 14.5125C14.6038 14.394 14.6038 14.157 14.4853 14.0385L14.1298 13.5644L14.9594 12.7348L21.8334 20.2014C21.9519 20.3199 22.0705 20.4385 22.189 20.4385C22.3075 20.4385 22.4261 20.4385 22.5446 20.32L24.3223 18.6607C24.5594 18.4237 24.5594 18.0681 24.3223 17.8311L17.4482 10.3644L18.6334 9.41623ZM16.3816 1.83104L21.2409 7.04584L19.4631 8.5866L19.1075 8.11253L15.0779 3.72731L14.7223 3.25325L16.3816 1.83104ZM11.6409 15.8162L6.78158 10.6014L8.55935 8.94211L9.38898 9.89025L12.9445 13.8013L13.3001 14.2754L11.6409 15.8162ZM10.2186 9.06067L14.6038 5.03101L17.8038 8.46804L16.5001 9.65324L14.7223 11.431L13.4186 12.6162L10.2186 9.06067ZM23.2556 18.0681L22.426 18.8977L16.026 11.9051L16.8557 11.0755L23.2556 18.0681Z" fill="#0E0E0E"/>
<path d="M17.0926 23.1653V20.7949C17.0926 20.4394 16.8556 20.2024 16.5 20.2024H14.7223V18.4246C14.7223 18.069 14.4852 17.832 14.1297 17.832H3.46296C3.1074 17.832 2.87039 18.0691 2.87039 18.4246V20.2024H1.09257C0.737058 20.2024 0.5 20.4394 0.5 20.795V23.1654C0.5 23.5209 0.737058 23.758 1.09257 23.758H16.5C16.8556 23.758 17.0926 23.5209 17.0926 23.1653ZM4.05553 19.0172H13.537V20.2024H4.05553V19.0172ZM15.9074 22.5728H1.68519V21.3876H3.46296H14.1296H15.9074V22.5728H15.9074Z" fill="#0E0E0E"/>
</g>
<defs>
<clipPath id="clip0_387_5306">
<rect width="24" height="24" fill="white" transform="translate(0.5 0.140625)"/>
</clipPath>
</defs>
</svg>
