<svg width="40" height="41" viewBox="0 0 40 41" fill="none" xmlns="http://www.w3.org/2000/svg">
<rect y="0.859375" width="40" height="40" rx="8" fill="#D8D8D8"/>
<g clip-path="url(#clip0_387_6152)">
<path d="M26.1334 18.135L26.489 18.609C26.6075 18.7276 26.726 18.8461 26.8445 18.8461C26.9631 18.8461 27.0816 18.8461 27.2001 18.7276L29.8075 16.3572C30.0446 16.1202 30.0446 15.7646 29.8075 15.5276L24.2372 9.48315C24.1186 9.36465 24.0001 9.24609 23.8816 9.24609C23.7631 9.24609 23.526 9.24609 23.4075 9.3646L20.8001 11.735C20.5631 11.972 20.5631 12.3276 20.8001 12.5646L21.1557 13.0387L16.889 16.9498L16.5335 16.4757C16.2964 16.2387 15.9409 16.2387 15.7038 16.4757L13.0964 18.8461C12.9779 18.9646 12.8594 19.0832 12.8594 19.2017C12.8594 19.3202 12.8594 19.5572 12.9779 19.6757L18.5482 25.8387C18.6667 25.9572 18.7853 26.0757 18.9038 26.0757C19.0223 26.0757 19.1409 26.0757 19.2594 25.9572L21.8668 23.5868C21.9853 23.4683 22.1038 23.3498 22.1038 23.2313C22.1038 23.1128 22.1038 22.8757 21.9853 22.7572L21.6298 22.2831L22.4594 21.4535L29.3334 28.9202C29.4519 29.0387 29.5705 29.1572 29.689 29.1572C29.8075 29.1572 29.9261 29.1572 30.0446 29.0387L31.8223 27.3795C32.0594 27.1424 32.0594 26.7869 31.8223 26.5498L24.9482 19.0831L26.1334 18.135ZM23.8816 10.5498L28.7409 15.7646L26.9631 17.3053L26.6075 16.8313L22.5779 12.4461L22.2223 11.972L23.8816 10.5498ZM19.1409 24.535L14.2816 19.3201L16.0593 17.6609L16.889 18.609L20.4445 22.5201L20.8001 22.9942L19.1409 24.535ZM17.7186 17.7794L22.1038 13.7498L25.3038 17.1868L24.0001 18.372L22.2223 20.1498L20.9186 21.3349L17.7186 17.7794ZM30.7556 26.7868L29.926 27.6164L23.526 20.6239L24.3557 19.7942L30.7556 26.7868Z" fill="white"/>
<path d="M24.5926 31.8841V29.5137C24.5926 29.1581 24.3556 28.9211 24 28.9211H22.2223V27.1434C22.2223 26.7878 21.9852 26.5508 21.6297 26.5508H10.963C10.6074 26.5508 10.3704 26.7878 10.3704 27.1434V28.9211H8.59257C8.23706 28.9211 8 29.1582 8 29.5137V31.8841C8 32.2397 8.23706 32.4767 8.59257 32.4767H24C24.3556 32.4767 24.5926 32.2396 24.5926 31.8841ZM11.5555 27.7359H21.037V28.9211H11.5555V27.7359ZM23.4074 31.2915H9.18519V30.1063H10.963H21.6296H23.4074V31.2915H23.4074Z" fill="white"/>
</g>
<defs>
<clipPath id="clip0_387_6152">
<rect width="24" height="24" fill="white" transform="translate(8 8.85938)"/>
</clipPath>
</defs>
</svg>
