<svg width="138" height="45" viewBox="0 0 138 45" fill="none" xmlns="http://www.w3.org/2000/svg">
<rect y="0.140625" width="138" height="44" rx="8" fill="#F5CB00"/>
<path d="M39.124 28.1406H37.092V28.3486C37.092 29.49 36.788 30.402 36.18 31.0846C35.572 31.7673 34.6973 32.1086 33.556 32.1086H29.348C28.5693 32.1086 27.86 31.9646 27.22 31.6766C26.58 31.3886 26.0733 30.9833 25.7 30.4606C25.3267 29.9486 25.14 29.362 25.14 28.7006C25.14 28.05 25.2787 26.8713 25.556 25.1646L26.724 25.3566C26.4893 26.9246 26.372 27.9486 26.372 28.4286C26.372 28.93 26.5 29.378 26.756 29.7726C27.0227 30.1673 27.3747 30.4713 27.812 30.6846C28.26 30.898 28.7453 31.0046 29.268 31.0046L33.492 31.0206C34.2493 31.0206 34.8307 30.7753 35.236 30.2846C35.652 29.8046 35.86 29.1913 35.86 28.4446C35.86 28.306 35.8547 28.2046 35.844 28.1406H35.46C34.628 28.1406 33.972 27.986 33.492 27.6766L34.004 26.7646C34.196 26.8926 34.3987 26.9726 34.612 27.0046C34.836 27.026 35.156 27.0366 35.572 27.0366H39.124V28.1406ZM29.492 33.2606H30.708V34.6046H29.492V33.2606ZM31.492 33.2606H32.708V34.6046H31.492V33.2606ZM44.629 19.9806C45.9303 19.9806 46.8903 20.3006 47.509 20.9406C48.1277 21.5806 48.437 22.6473 48.437 24.1406V28.1406H39.125V27.0366H41.765C41.6157 26.1193 41.541 25.186 41.541 24.2366C41.541 23.522 41.5837 22.818 41.669 22.1246C41.7543 21.4206 41.8503 20.85 41.957 20.4126C42.213 20.306 42.5863 20.21 43.077 20.1246C43.5677 20.0286 44.085 19.9806 44.629 19.9806ZM42.773 24.2366C42.773 24.7593 42.7943 25.282 42.837 25.8046C42.8903 26.3166 42.9437 26.7273 42.997 27.0366H47.205V24.1246C47.205 23.0366 46.9757 22.258 46.517 21.7886C46.0583 21.3193 45.3597 21.0846 44.421 21.0846C43.8983 21.0846 43.4343 21.138 43.029 21.2446C42.8583 22.1726 42.773 23.17 42.773 24.2366ZM53.5666 27.0366V28.1406H50.8306V16.6526H52.0626V27.0366H53.5666ZM63.0345 27.0366V28.1406H53.5625V27.0366H59.9785V22.7006C59.9785 22.1673 59.8398 21.7673 59.5625 21.5006C59.2852 21.2233 58.8692 21.0846 58.3145 21.0846C57.8345 21.0846 56.8852 21.17 55.4665 21.3406L55.0185 21.3886L54.9705 20.4766C56.5812 20.146 57.7865 19.9806 58.5865 19.9806C60.3358 19.9806 61.2105 20.8926 61.2105 22.7166V27.0366H63.0345ZM68.5353 19.9806C69.8366 19.9806 70.7966 20.3006 71.4153 20.9406C72.0339 21.5806 72.3433 22.6473 72.3433 24.1406V28.1406H63.0312V27.0366H65.6713C65.5219 26.1193 65.4473 25.186 65.4473 24.2366C65.4473 23.522 65.4899 22.818 65.5753 22.1246C65.6606 21.4206 65.7566 20.85 65.8633 20.4126C66.1193 20.306 66.4926 20.21 66.9833 20.1246C67.4739 20.0286 67.9913 19.9806 68.5353 19.9806ZM66.6793 24.2366C66.6793 24.7593 66.7006 25.282 66.7433 25.8046C66.7966 26.3166 66.8499 26.7273 66.9033 27.0366H71.1112V24.1246C71.1112 23.0366 70.8819 22.258 70.4233 21.7886C69.9646 21.3193 69.2659 21.0846 68.3273 21.0846C67.8046 21.0846 67.3406 21.138 66.9353 21.2446C66.7646 22.1726 66.6793 23.17 66.6793 24.2366Z" fill="#0E0E0E"/>
<g clip-path="url(#clip0_387_6180)">
<path d="M107.633 19.4162L107.989 19.8903C108.107 20.0088 108.226 20.1274 108.345 20.1274C108.463 20.1274 108.582 20.1274 108.7 20.0088L111.308 17.6385C111.545 17.4014 111.545 17.0459 111.308 16.8088L105.737 10.7644C105.619 10.6459 105.5 10.5273 105.382 10.5273C105.263 10.5273 105.026 10.5273 104.908 10.6458L102.3 13.0162C102.063 13.2533 102.063 13.6088 102.3 13.8459L102.656 14.3199L98.389 18.231L98.0335 17.757C97.7964 17.5199 97.4409 17.5199 97.2038 17.757L94.5964 20.1274C94.4779 20.2459 94.3594 20.3644 94.3594 20.4829C94.3594 20.6014 94.3594 20.8385 94.4779 20.957L100.048 27.1199C100.167 27.2384 100.285 27.357 100.404 27.357C100.522 27.357 100.641 27.357 100.759 27.2385L103.367 24.8681C103.485 24.7496 103.604 24.631 103.604 24.5125C103.604 24.394 103.604 24.157 103.485 24.0385L103.13 23.5644L103.959 22.7348L110.833 30.2014C110.952 30.3199 111.071 30.4385 111.189 30.4385C111.308 30.4385 111.426 30.4385 111.545 30.32L113.322 28.6607C113.559 28.4237 113.559 28.0681 113.322 27.8311L106.448 20.3644L107.633 19.4162ZM105.382 11.831L110.241 17.0458L108.463 18.5866L108.108 18.1125L104.078 13.7273L103.722 13.2532L105.382 11.831ZM100.641 25.8162L95.7816 20.6014L97.5593 18.9421L98.389 19.8902L101.945 23.8013L102.3 24.2754L100.641 25.8162ZM99.2186 19.0607L103.604 15.031L106.804 18.468L105.5 19.6532L103.722 21.431L102.419 22.6162L99.2186 19.0607ZM112.256 28.0681L111.426 28.8977L105.026 21.9051L105.856 21.0755L112.256 28.0681Z" fill="#0E0E0E"/>
<path d="M106.093 33.1653V30.7949C106.093 30.4394 105.856 30.2024 105.5 30.2024H103.722V28.4246C103.722 28.069 103.485 27.832 103.13 27.832H92.463C92.1074 27.832 91.8704 28.0691 91.8704 28.4246V30.2024H90.0926C89.7371 30.2024 89.5 30.4394 89.5 30.795V33.1654C89.5 33.5209 89.7371 33.758 90.0926 33.758H105.5C105.856 33.758 106.093 33.5209 106.093 33.1653ZM93.0555 29.0172H102.537V30.2024H93.0555V29.0172ZM104.907 32.5728H90.6852V31.3876H92.463H103.13H104.907V32.5728H104.907Z" fill="#0E0E0E"/>
</g>
<defs>
<clipPath id="clip0_387_6180">
<rect width="24" height="24" fill="white" transform="translate(89.5 10.1406)"/>
</clipPath>
</defs>
</svg>
