<svg width="25" height="24" viewBox="0 0 25 24" fill="none" xmlns="http://www.w3.org/2000/svg">
<g clip-path="url(#clip0_392_5694)">
<path d="M22.3939 4.46094H2.35608C1.2637 4.46094 0.375 5.34964 0.375 6.44197V17.561C0.375 18.6534 1.2637 19.5421 2.35608 19.5421H22.394C23.4863 19.5421 24.375 18.6534 24.375 17.561V6.44197C24.375 5.34964 23.4863 4.46094 22.3939 4.46094ZM22.9688 17.5611C22.9688 17.8781 22.7109 18.1359 22.3939 18.1359H2.35608C2.03911 18.1359 1.78125 17.8781 1.78125 17.5611V6.44197C1.78125 6.125 2.03911 5.86714 2.35608 5.86714H22.394C22.7109 5.86714 22.9688 6.125 22.9688 6.44197V17.5611H22.9688Z" fill="#464646"/>
<path d="M8.61617 11.5323C8.97692 11.1107 9.19508 10.5635 9.19508 9.96641C9.19508 8.63656 8.11316 7.55469 6.78336 7.55469C5.45356 7.55469 4.37164 8.63656 4.37164 9.96641C4.37164 10.5635 4.58975 11.1107 4.95055 11.5323C4.07609 12.1228 3.5 13.1231 3.5 14.2553V15.7448C3.5 16.1331 3.81481 16.4479 4.20312 16.4479H9.36359C9.75191 16.4479 10.0667 16.1331 10.0667 15.7448V14.2553C10.0667 13.123 9.49063 12.1228 8.61617 11.5323ZM5.77784 9.96641C5.77784 9.41197 6.22892 8.96094 6.78331 8.96094C7.3377 8.96094 7.78878 9.41197 7.78878 9.96641C7.78878 10.5208 7.3377 10.9719 6.78331 10.9719C6.22892 10.9719 5.77784 10.5208 5.77784 9.96641ZM8.66042 15.0417H4.9062V14.2553C4.9062 13.2202 5.74827 12.3781 6.78331 12.3781C7.81836 12.3781 8.66042 13.2202 8.66042 14.2553V15.0417Z" fill="#464646"/>
<path d="M13.4639 9.88281H17.238C17.6263 9.88281 17.9411 9.568 17.9411 9.17969C17.9411 8.79137 17.6263 8.47656 17.238 8.47656H13.4639C13.0756 8.47656 12.7607 8.79137 12.7607 9.17969C12.7607 9.568 13.0756 9.88281 13.4639 9.88281Z" fill="#464646"/>
<path d="M20.8473 11.2969H13.4639C13.0756 11.2969 12.7607 11.6117 12.7607 12C12.7607 12.3883 13.0756 12.7031 13.4639 12.7031H20.8473C21.2356 12.7031 21.5505 12.3883 21.5505 12C21.5505 11.6117 21.2356 11.2969 20.8473 11.2969Z" fill="#464646"/>
<path d="M20.8473 14.1211H13.4639C13.0756 14.1211 12.7607 14.4359 12.7607 14.8242C12.7607 15.2125 13.0756 15.5273 13.4639 15.5273H20.8473C21.2356 15.5273 21.5505 15.2125 21.5505 14.8242C21.5505 14.4359 21.2356 14.1211 20.8473 14.1211Z" fill="#464646"/>
</g>
<defs>
<clipPath id="clip0_392_5694">
<rect width="24" height="24" fill="white" transform="translate(0.375)"/>
</clipPath>
</defs>
</svg>
