<svg width="75" height="73" viewBox="0 0 75 73" fill="none" xmlns="http://www.w3.org/2000/svg">
<mask id="path-1-outside-1_1048_244" maskUnits="userSpaceOnUse" x="0.921875" y="0.796875" width="74" height="72" fill="black">
<rect fill="white" x="0.921875" y="0.796875" width="74" height="72"/>
<path d="M0.921875 4.79688C0.921875 2.58774 2.71274 0.796875 4.92188 0.796875H68.9219C71.131 0.796875 72.9219 2.58774 72.9219 4.79688V68.7969C72.9219 71.006 71.131 72.7969 68.9219 72.7969H4.92188C2.71274 72.7969 0.921875 71.006 0.921875 68.7969V4.79688Z"/>
</mask>
<path d="M0.921875 4.79688C0.921875 2.58774 2.71274 0.796875 4.92188 0.796875H68.9219C71.131 0.796875 72.9219 2.58774 72.9219 4.79688V68.7969C72.9219 71.006 71.131 72.7969 68.9219 72.7969H4.92188C2.71274 72.7969 0.921875 71.006 0.921875 68.7969V4.79688Z" fill="#F0F0F0"/>
<g clip-path="url(#clip0_1048_244)">
<path d="M33.847 46.2358L29.605 50.4779C27.8463 52.2365 24.9983 52.2365 23.2411 50.4782C21.4835 48.7207 21.4835 45.8724 23.2407 44.1152L31.7263 35.6296C33.4835 33.8723 36.3318 33.8723 38.089 35.6296C38.6748 36.2154 39.6246 36.2154 40.2103 35.6296C40.7961 35.0438 40.7961 34.094 40.2103 33.5083C37.2815 30.5794 32.5338 30.5794 29.605 33.5083L21.1195 41.9938C18.1906 44.9226 18.1906 49.6703 21.1195 52.5991C24.0479 55.5295 28.796 55.5295 31.7264 52.5991L35.9684 48.3571C36.5542 47.7713 36.5542 46.8215 35.9684 46.2357C35.3826 45.65 34.4328 45.65 33.847 46.2358Z" fill="#464646"/>
<path d="M52.7254 20.9935C49.7966 18.0647 45.0473 18.0647 42.1185 20.9935L37.029 26.083C36.4432 26.6688 36.4432 27.6186 37.029 28.2044C37.6147 28.7901 38.5645 28.7901 39.1503 28.2044L44.2398 23.1148C45.997 21.3576 48.8468 21.3576 50.6041 23.1148C52.3613 24.872 52.3613 27.7203 50.6041 29.4775L41.271 38.8106C39.5138 40.5679 36.6655 40.5679 34.9083 38.8106C34.3226 38.2249 33.3728 38.2249 32.787 38.8106C32.2012 39.3964 32.2012 40.3462 32.787 40.932C35.7158 43.8608 40.4635 43.8608 43.3924 40.932L52.7254 31.5989C55.6542 28.6701 55.6542 23.9223 52.7254 20.9935Z" fill="#464646"/>
</g>
<path d="M0.921875 0.796875H72.9219H0.921875ZM72.9219 72.7969H0.921875H72.9219ZM0.921875 72.7969V0.796875V72.7969ZM68.9219 0.796875C72.2356 0.796875 74.9219 3.48317 74.9219 6.79688V66.7969C74.9219 70.1106 72.2356 72.7969 68.9219 72.7969C70.0264 72.7969 70.9219 71.006 70.9219 68.7969V4.79688C70.9219 2.58774 70.0264 0.796875 68.9219 0.796875Z" fill="#F5CB00" mask="url(#path-1-outside-1_1048_244)"/>
<defs>
<clipPath id="clip0_1048_244">
<rect width="36" height="36" fill="white" transform="translate(18.9219 18.7969)"/>
</clipPath>
</defs>
</svg>
