<svg width="40" height="41" viewBox="0 0 40 41" fill="none" xmlns="http://www.w3.org/2000/svg">
<rect y="0.791016" width="40" height="40" rx="4" fill="#F5CB00"/>
<path d="M32 12.541V29.041C32 31.1088 30.3178 32.791 28.25 32.791H18.8281C16.7603 32.791 15.0781 31.1088 15.0781 29.041V27.166C15.0781 26.6482 15.4978 26.2285 16.0156 26.2285C16.5334 26.2285 16.9531 26.6482 16.9531 27.166V29.041C16.9531 30.0748 17.7943 30.916 18.8281 30.916H28.25C29.2838 30.916 30.125 30.0748 30.125 29.041V12.541C30.125 11.5072 29.2838 10.666 28.25 10.666H18.8281C17.7943 10.666 16.9531 11.5072 16.9531 12.541V14.416C16.9531 14.9338 16.5334 15.3535 16.0156 15.3535C15.4978 15.3535 15.0781 14.9338 15.0781 14.416V12.541C15.0781 10.4732 16.7603 8.79102 18.8281 8.79102H28.25C30.3178 8.79102 32 10.4732 32 12.541ZM18.5897 23.2192C18.2222 23.5839 18.2198 24.1776 18.5844 24.545C18.7677 24.7298 19.0089 24.8223 19.25 24.8223C19.4888 24.8223 19.7275 24.7316 19.9103 24.5504L22.0264 22.4509C22.4728 22.0079 22.7188 21.4185 22.7188 20.791C22.7188 20.1635 22.4728 19.5741 22.0264 19.1312L19.9103 17.0317C19.5428 16.6671 18.9492 16.6693 18.5844 17.037C18.2198 17.4045 18.2222 17.9981 18.5897 18.3627L20.0923 19.8535H8.9375C8.41968 19.8535 8 20.2732 8 20.791C8 21.3088 8.41968 21.7285 8.9375 21.7285H20.0923L18.5897 23.2192Z" fill="white"/>
</svg>
