<svg width="25" height="24" viewBox="0 0 25 24" fill="none" xmlns="http://www.w3.org/2000/svg">
<path d="M22.9688 5.67188V4.26562H14.3634C14.1512 3.66731 13.6764 3.19252 13.0781 2.98031V0H11.6719V2.98031C11.0736 3.19252 10.5988 3.66731 10.3866 4.26562H1.78125V5.67188H3.53906L0.375 13.2656V13.4062C0.375 15.3448 1.95211 16.9219 3.89062 16.9219H5.29688C7.23539 16.9219 8.8125 15.3448 8.8125 13.4062V13.2656L5.64844 5.67188H10.3866C10.5988 6.27019 11.0736 6.74498 11.6719 6.95719V17.0395C10.2765 17.3239 9.18005 18.4376 8.91937 19.8413C7.28709 20.1444 6.04688 21.5781 6.04688 23.2969V24H18.7032V23.2969C18.7032 21.5781 17.463 20.1444 15.8307 19.8412C15.57 18.4375 14.4735 17.3238 13.0781 17.0395V6.95719C13.6764 6.74498 14.1512 6.27019 14.3634 5.67188H19.1016L15.9375 13.2656V13.4062C15.9375 15.3448 17.5146 16.9219 19.4531 16.9219H20.8594C22.7979 16.9219 24.375 15.3448 24.375 13.4062V13.2656L21.2109 5.67188H22.9688ZM4.59375 6.79688L7.05469 12.7031H2.13281L4.59375 6.79688ZM5.29688 15.5156H3.89062C2.97403 15.5156 2.19244 14.9277 1.90219 14.1089H7.28531C6.99506 14.9277 6.21347 15.5156 5.29688 15.5156ZM20.1562 6.79688L22.6172 12.7031H17.6953L20.1562 6.79688ZM20.8594 15.5156H19.4531C18.5365 15.5156 17.7549 14.9277 17.4647 14.1089H22.8478C22.5576 14.9277 21.776 15.5156 20.8594 15.5156ZM17.1764 22.5938H7.57359C7.8638 21.7753 8.64581 21.1875 9.5625 21.1875H15.1875C16.1042 21.1875 16.8862 21.7753 17.1764 22.5938ZM14.3634 19.7812H10.3866C10.6768 18.9629 11.4584 18.375 12.375 18.375C13.2916 18.375 14.0732 18.9629 14.3634 19.7812ZM12.375 5.67188C11.9873 5.67188 11.6719 5.35645 11.6719 4.96875C11.6719 4.58105 11.9873 4.26562 12.375 4.26562C12.7627 4.26562 13.0781 4.58105 13.0781 4.96875C13.0781 5.35645 12.7627 5.67188 12.375 5.67188Z" fill="#464646"/>
</svg>
