<svg width="139" height="45" viewBox="0 0 139 45" fill="none" xmlns="http://www.w3.org/2000/svg">
<rect x="0.5" y="0.140625" width="138" height="44" rx="8" fill="#F5CB00"/>
<path d="M42.86 28.1406H40.86C40.7853 29.3993 40.524 30.3753 40.076 31.0686C39.6387 31.762 38.9133 32.1086 37.9 32.1086C37.452 32.1086 36.6093 32.0233 35.372 31.8526V30.4926C36.4173 30.6633 37.2227 30.7486 37.788 30.7486C38.1507 30.7486 38.444 30.6846 38.668 30.5566C38.892 30.4286 39.0627 30.1726 39.18 29.7886C39.2973 29.4153 39.356 28.866 39.356 28.1406H37.164C35.9267 28.1406 35.1107 27.762 34.716 27.0046C34.332 26.2473 34.14 25.3086 34.14 24.1886C34.1507 23.1326 34.2627 22.29 34.476 21.6606C34.7 21.0313 35.0627 20.5726 35.564 20.2846C36.076 19.986 36.7693 19.8366 37.644 19.8366C38.1347 19.8366 38.6947 19.874 39.324 19.9486C39.964 20.0126 40.4867 20.0873 40.892 20.1726V26.7806H42.86V28.1406ZM35.66 24.1406C35.66 24.9086 35.788 25.5433 36.044 26.0446C36.3 26.5353 36.8387 26.7806 37.66 26.7806H39.372V21.3086C38.8493 21.234 38.3853 21.1966 37.98 21.1966C37.116 21.1966 36.5133 21.426 36.172 21.8846C35.8413 22.3326 35.6707 23.0846 35.66 24.1406ZM56.2674 26.7806V28.1406H42.8594V26.7806H45.1314V20.1406H46.6354V22.7006C47.1154 22.1033 47.5474 21.618 47.9314 21.2446C48.326 20.8713 48.7847 20.5673 49.3074 20.3326C49.83 20.098 50.4327 19.9806 51.1154 19.9806C52.4594 19.9806 53.4087 20.3966 53.9634 21.2286C54.5287 22.05 54.8114 23.0153 54.8114 24.1246V26.7806H56.2674ZM50.8754 21.3406C49.414 21.3406 48.0007 22.434 46.6354 24.6206V26.7806H53.3074V24.3806C53.3074 23.5166 53.0994 22.7966 52.6834 22.2206C52.2674 21.634 51.6647 21.3406 50.8754 21.3406ZM49.3874 17.0846H50.8434V18.6526H49.3874V17.0846ZM64.7936 26.7806V28.1406H56.2656V26.7806H59.0336C58.7883 26.4606 58.575 26.0393 58.3936 25.5166C58.223 24.994 58.1376 24.418 58.1376 23.7886C58.1376 22.9993 58.287 22.3166 58.5856 21.7406C58.8843 21.1646 59.3003 20.7273 59.8336 20.4286C60.367 20.1193 60.975 19.9646 61.6576 19.9646C62.063 19.9646 62.511 20.0233 63.0016 20.1406C63.4923 20.2473 63.9296 20.402 64.3136 20.6046L64.2496 21.9806C64.0363 21.8526 63.679 21.714 63.1776 21.5646C62.6763 21.4153 62.223 21.3406 61.8176 21.3406C61.167 21.3406 60.6443 21.5593 60.2496 21.9966C59.855 22.434 59.6576 23.058 59.6576 23.8686C59.6576 24.498 59.7696 25.0686 59.9936 25.5806C60.2176 26.082 60.495 26.482 60.8256 26.7806H64.7936Z" fill="#0E0E0E"/>
<g clip-path="url(#clip0_387_5312)">
<path d="M91.3588 21.7015C92.947 21.7015 94.3221 21.1319 95.446 20.008C96.5696 18.8843 97.1394 17.5093 97.1394 15.9209C97.1394 14.333 96.5697 12.9579 95.4458 11.8338C94.3219 10.7103 92.9468 10.1406 91.3588 10.1406C89.7703 10.1406 88.3954 10.7103 87.2717 11.834C86.1479 12.9577 85.5781 14.3328 85.5781 15.9209C85.5781 17.5093 86.1479 18.8844 87.2717 20.0082C88.3957 21.1317 89.7709 21.7015 91.3588 21.7015ZM88.2663 12.8284C89.1285 11.9662 90.14 11.5471 91.3588 11.5471C92.5773 11.5471 93.589 11.9662 94.4514 12.8284C95.3136 13.6908 95.733 14.7025 95.733 15.9209C95.733 17.1396 95.3136 18.1511 94.4514 19.0135C93.589 19.876 92.5773 20.2951 91.3588 20.2951C90.1404 20.2951 89.1289 19.8758 88.2663 19.0135C87.4039 18.1513 86.9846 17.1396 86.9846 15.9209C86.9846 14.7025 87.4039 13.6908 88.2663 12.8284Z" fill="#0E0E0E"/>
<path d="M101.475 28.5962C101.442 28.1286 101.377 27.6185 101.28 27.0798C101.183 26.537 101.057 26.024 100.907 25.555C100.752 25.0704 100.541 24.5917 100.28 24.1331C100.01 23.657 99.692 23.2424 99.3354 22.9013C98.9624 22.5444 98.5057 22.2575 97.9776 22.0482C97.4514 21.84 96.8682 21.7346 96.2444 21.7346C95.9994 21.7346 95.7624 21.8351 95.3048 22.133C95.0232 22.3166 94.6938 22.5291 94.3261 22.764C94.0118 22.9643 93.5859 23.152 93.0598 23.3219C92.5465 23.488 92.0254 23.5722 91.5109 23.5722C90.9967 23.5722 90.4756 23.488 89.962 23.3219C89.4365 23.1522 89.0104 22.9645 88.6966 22.7642C88.3324 22.5314 88.0028 22.319 87.717 22.1328C87.2598 21.8349 87.0228 21.7344 86.7778 21.7344C86.1538 21.7344 85.5708 21.84 85.0447 22.0484C84.517 22.2573 84.0602 22.5442 83.6868 22.9015C83.3301 23.2428 83.0123 23.6572 82.742 24.1331C82.4814 24.5917 82.2705 25.0702 82.1152 25.5552C81.9653 26.0242 81.8398 26.537 81.7424 27.0798C81.6458 27.6177 81.5804 28.128 81.548 28.5968C81.5161 29.0551 81.5 29.5321 81.5 30.014C81.5 31.2668 81.8983 32.281 82.6836 33.029C83.4592 33.7671 84.4853 34.1414 85.7336 34.1414H97.2897C98.5376 34.1414 99.5637 33.7671 100.34 33.029C101.125 32.2816 101.523 31.267 101.523 30.0138C101.523 29.5303 101.507 29.0533 101.475 28.5962ZM99.3698 32.0101C98.8573 32.4978 98.1768 32.735 97.2895 32.735H85.7336C84.8461 32.735 84.1656 32.4978 83.6533 32.0102C83.1507 31.5318 82.9064 30.8786 82.9064 30.014C82.9064 29.5643 82.9213 29.1203 82.9509 28.694C82.9799 28.2758 83.039 27.8164 83.1267 27.3282C83.2133 26.8461 83.3235 26.3937 83.4546 25.9841C83.5804 25.5913 83.752 25.2024 83.9648 24.8278C84.1678 24.4707 84.4015 24.1644 84.6593 23.9175C84.9004 23.6866 85.2044 23.4977 85.5626 23.356C85.8938 23.2249 86.266 23.1531 86.6702 23.1423C86.7194 23.1685 86.8071 23.2184 86.9492 23.3111C87.2383 23.4995 87.5716 23.7145 87.94 23.9498C88.3553 24.2145 88.8903 24.4537 89.5295 24.66C90.183 24.8713 90.8495 24.9786 91.5111 24.9786C92.1726 24.9786 92.8393 24.8713 93.4925 24.6602C94.1322 24.4535 94.6671 24.2145 95.0829 23.9494C95.4599 23.7084 95.7838 23.4997 96.073 23.3111C96.2151 23.2186 96.3028 23.1685 96.352 23.1423C96.7563 23.1531 97.1286 23.2249 97.46 23.356C97.818 23.4977 98.1219 23.6868 98.3631 23.9175C98.6209 24.1642 98.8545 24.4705 99.0576 24.8279C99.2705 25.2024 99.4423 25.5915 99.5679 25.9839C99.6992 26.394 99.8096 26.8463 99.896 27.3281C99.9835 27.8171 100.043 28.2767 100.072 28.6942V28.6946C100.102 29.1192 100.117 29.563 100.117 30.014C100.117 30.8788 99.8724 31.5318 99.3698 32.0101Z" fill="#0E0E0E"/>
</g>
<defs>
<clipPath id="clip0_387_5312">
<rect width="24" height="24" fill="white" transform="translate(81.5 10.1406)"/>
</clipPath>
</defs>
</svg>
