<svg width="21" height="25" viewBox="0 0 21 25" fill="none" xmlns="http://www.w3.org/2000/svg">
<path d="M18.1107 24.752H3.3415C2.60705 24.752 1.90269 24.4602 1.38335 23.9409C0.864023 23.4215 0.572266 22.7172 0.572266 21.9827V9.7058C0.573076 9.08039 0.784794 8.47353 1.17319 7.98334L6.09226 1.79873C6.35075 1.47159 6.68013 1.2074 7.05557 1.02608C7.43101 0.844755 7.84272 0.751027 8.25965 0.75196H18.1107C18.8452 0.75196 19.5495 1.04372 20.0689 1.56305C20.5882 2.08238 20.88 2.78674 20.88 3.52119V21.9827C20.88 22.7172 20.5882 23.4215 20.0689 23.9409C19.5495 24.4602 18.8452 24.752 18.1107 24.752ZM8.25965 2.59811C8.12068 2.59812 7.98351 2.6295 7.85836 2.68991C7.73321 2.75033 7.62332 2.83822 7.53688 2.94704L2.61873 9.13165C2.48967 9.29527 2.41914 9.49741 2.41842 9.7058V21.9827C2.41842 22.2275 2.51567 22.4623 2.68878 22.6354C2.86189 22.8085 3.09668 22.9058 3.3415 22.9058H18.1107C18.3555 22.9058 18.5903 22.8085 18.7634 22.6354C18.9365 22.4623 19.0338 22.2275 19.0338 21.9827V3.52119C19.0338 3.27637 18.9365 3.04159 18.7634 2.86848C18.5903 2.69537 18.3555 2.59811 18.1107 2.59811H8.25965Z" fill="#0E0E0E"/>
<path d="M6.11084 9.98237H1.61546C1.37064 9.98237 1.13586 9.88512 0.962745 9.71201C0.789635 9.5389 0.692383 9.30411 0.692383 9.05929C0.692383 8.81448 0.789635 8.57969 0.962745 8.40658C1.13586 8.23347 1.37064 8.13622 1.61546 8.13622H6.11084C6.35566 8.13622 6.59045 8.03897 6.76356 7.86585C6.93667 7.69274 7.03392 7.45796 7.03392 7.21314V1.70237C7.03392 1.45756 7.13117 1.22277 7.30428 1.04966C7.47739 0.876549 7.71218 0.779297 7.957 0.779297C8.20181 0.779297 8.4366 0.876549 8.60971 1.04966C8.78282 1.22277 8.88007 1.45756 8.88007 1.70237V7.21314C8.88007 7.94759 8.58832 8.65195 8.06898 9.17128C7.54965 9.69061 6.84529 9.98237 6.11084 9.98237Z" fill="#0E0E0E"/>
<path d="M14.418 17.3676H7.03343C6.78861 17.3676 6.55383 17.2704 6.38071 17.0973C6.2076 16.9242 6.11035 16.6894 6.11035 16.4446C6.11035 16.1997 6.2076 15.965 6.38071 15.7918C6.55383 15.6187 6.78861 15.5215 7.03343 15.5215H14.418C14.6629 15.5215 14.8976 15.6187 15.0708 15.7918C15.2439 15.965 15.3411 16.1997 15.3411 16.4446C15.3411 16.6894 15.2439 16.9242 15.0708 17.0973C14.8976 17.2704 14.6629 17.3676 14.418 17.3676Z" fill="#0E0E0E"/>
<path d="M14.418 21.06H7.03343C6.78861 21.06 6.55383 20.9628 6.38071 20.7897C6.2076 20.6165 6.11035 20.3818 6.11035 20.1369C6.11035 19.8921 6.2076 19.6573 6.38071 19.4842C6.55383 19.3111 6.78861 19.2139 7.03343 19.2139H14.418C14.6629 19.2139 14.8976 19.3111 15.0708 19.4842C15.2439 19.6573 15.3411 19.8921 15.3411 20.1369C15.3411 20.3818 15.2439 20.6165 15.0708 20.7897C14.8976 20.9628 14.6629 21.06 14.418 21.06Z" fill="#0E0E0E"/>
<path d="M13.4952 12.7518H12.1106C11.8658 12.7518 11.631 12.6545 11.4579 12.4814C11.2848 12.3083 11.1875 12.0735 11.1875 11.8287C11.1875 11.5839 11.2848 11.3491 11.4579 11.176C11.631 11.0029 11.8658 10.9056 12.1106 10.9056H13.4952C13.6176 10.9056 13.735 10.857 13.8215 10.7705C13.9081 10.6839 13.9567 10.5665 13.9567 10.4441C13.9567 10.3217 13.9081 10.2043 13.8215 10.1178C13.735 10.0312 13.6176 9.98257 13.4952 9.98257C12.8832 9.98257 12.2962 9.73944 11.8634 9.30666C11.4306 8.87389 11.1875 8.28692 11.1875 7.67488C11.1875 7.06284 11.4306 6.47587 11.8634 6.04309C12.2962 5.61032 12.8832 5.36719 13.4952 5.36719H14.8798C15.1246 5.36719 15.3594 5.46444 15.5325 5.63755C15.7056 5.81066 15.8029 6.04545 15.8029 6.29026C15.8029 6.53508 15.7056 6.76987 15.5325 6.94298C15.3594 7.11609 15.1246 7.21334 14.8798 7.21334H13.4952C13.3728 7.21334 13.2554 7.26197 13.1688 7.34852C13.0823 7.43508 13.0337 7.55247 13.0337 7.67488C13.0337 7.79729 13.0823 7.91468 13.1688 8.00124C13.2554 8.08779 13.3728 8.13642 13.4952 8.13642C14.1072 8.13642 14.6942 8.37955 15.127 8.81232C15.5598 9.2451 15.8029 9.83207 15.8029 10.4441C15.8029 11.0561 15.5598 11.6431 15.127 12.0759C14.6942 12.5087 14.1072 12.7518 13.4952 12.7518Z" fill="#F5CB00"/>
<path d="M13.4953 7.21357C13.2505 7.21357 13.0157 7.11631 12.8426 6.9432C12.6695 6.77009 12.5723 6.5353 12.5723 6.29049V5.36741C12.5723 5.1226 12.6695 4.88781 12.8426 4.7147C13.0157 4.54159 13.2505 4.44434 13.4953 4.44434C13.7402 4.44434 13.9749 4.54159 14.1481 4.7147C14.3212 4.88781 14.4184 5.1226 14.4184 5.36741V6.29049C14.4184 6.5353 14.3212 6.77009 14.1481 6.9432C13.9749 7.11631 13.7402 7.21357 13.4953 7.21357Z" fill="#F5CB00"/>
<path d="M13.4953 13.6755C13.2505 13.6755 13.0157 13.5782 12.8426 13.4051C12.6695 13.232 12.5723 12.9972 12.5723 12.7524V11.8293C12.5723 11.5845 12.6695 11.3497 12.8426 11.1766C13.0157 11.0035 13.2505 10.9062 13.4953 10.9062C13.7402 10.9062 13.9749 11.0035 14.1481 11.1766C14.3212 11.3497 14.4184 11.5845 14.4184 11.8293V12.7524C14.4184 12.9972 14.3212 13.232 14.1481 13.4051C13.9749 13.5782 13.7402 13.6755 13.4953 13.6755Z" fill="#F5CB00"/>
</svg>
