<svg width="40" height="41" viewBox="0 0 40 41" fill="none" xmlns="http://www.w3.org/2000/svg">
<rect y="0.791016" width="40" height="40" rx="4" fill="#F5CB00"/>
<g clip-path="url(#clip0_127_94)">
<path d="M31.7472 13.6846L27.0599 8.99698C26.928 8.86508 26.7492 8.79102 26.5627 8.79102H15.7812C14.6181 8.79102 13.6719 9.73728 13.6719 10.9004V20.174C10.5122 20.525 8.04688 23.2112 8.04688 26.4629C8.04688 29.9522 10.8857 32.791 14.375 32.791H29.8438C31.0069 32.791 31.9531 31.8447 31.9531 30.6816V14.1818C31.9531 13.9953 31.8791 13.8165 31.7472 13.6846ZM27.2656 11.1916L28.7933 12.7193L29.5525 13.4785H27.2656V11.1916ZM9.45312 26.4629C9.45312 23.749 11.6611 21.541 14.375 21.541C17.0889 21.541 19.2969 23.749 19.2969 26.4629C19.2969 29.1768 17.0889 31.3848 14.375 31.3848C11.6611 31.3848 9.45312 29.1768 9.45312 26.4629ZM29.8438 31.3848H18.3476C19.6115 30.3627 20.4752 28.8648 20.6639 27.166H27.9688C28.3571 27.166 28.6719 26.8512 28.6719 26.4629C28.6719 26.0746 28.3571 25.7598 27.9688 25.7598H20.6638C20.5492 24.7276 20.1855 23.7695 19.6341 22.9473H27.9688C28.3571 22.9473 28.6719 22.6325 28.6719 22.2441C28.6719 21.8558 28.3571 21.541 27.9688 21.541H18.3476C17.4326 20.801 16.308 20.3106 15.0781 20.174V10.9004C15.0781 10.5127 15.3935 10.1973 15.7812 10.1973H25.8594V14.1816C25.8594 14.57 26.1742 14.8848 26.5625 14.8848H30.5469V30.6816C30.5469 31.0693 30.2315 31.3848 29.8438 31.3848Z" fill="white"/>
<path d="M27.9688 17.3223H17.6562C17.2679 17.3223 16.9531 17.6371 16.9531 18.0254C16.9531 18.4137 17.2679 18.7285 17.6562 18.7285H27.9688C28.3571 18.7285 28.6719 18.4137 28.6719 18.0254C28.6719 17.6371 28.3571 17.3223 27.9688 17.3223Z" fill="white"/>
<path d="M17.1691 24.7001C16.8945 24.4255 16.4493 24.4255 16.1747 24.7001L13.3906 27.4841L12.4816 26.575C12.207 26.3005 11.7618 26.3005 11.4872 26.575C11.2126 26.8496 11.2126 27.2948 11.4872 27.5694L12.8934 28.9756C13.0307 29.1129 13.2107 29.1816 13.3906 29.1816C13.5706 29.1816 13.7506 29.1129 13.8878 28.9756L17.1691 25.6944C17.4436 25.4198 17.4436 24.9746 17.1691 24.7001Z" fill="white"/>
</g>
<defs>
<clipPath id="clip0_127_94">
<rect width="24" height="24" fill="white" transform="translate(8 8.79102)"/>
</clipPath>
</defs>
</svg>
