<svg width="25" height="24" viewBox="0 0 25 24" fill="none" xmlns="http://www.w3.org/2000/svg">
<path d="M11.2302 5.07319C11.6449 5.02485 12.0685 5 12.5 5C17.164 5 20.8999 7.90264 22.5 12C22.1054 13.0104 21.5809 13.9482 20.9447 14.7877M7.01962 6.51944C4.97955 7.76406 3.40111 9.69259 2.5 12C4.10014 16.0974 7.83603 19 12.5 19C14.5376 19 16.398 18.446 17.9806 17.4804M10.3788 9.87859C9.83582 10.4215 9.5 11.1715 9.5 12C9.5 13.6569 10.8431 15 12.5 15C13.3285 15 14.0785 14.6642 14.6214 14.1212" stroke="#464646" stroke-width="2" stroke-linecap="round" stroke-linejoin="round"/>
<path d="M4.5 4L20.5 20" stroke="#464646" stroke-width="2" stroke-linecap="round"/>
</svg>
