<svg width="24" height="24" viewBox="0 0 24 24" fill="none" xmlns="http://www.w3.org/2000/svg">
<path d="M20.9347 4.89356L16.2474 0.205969C16.1155 0.0741094 15.9367 0 15.7502 0H4.96875C3.80564 0 2.85938 0.946266 2.85938 2.10938V21.8906C2.85938 23.0537 3.80564 24 4.96875 24H19.0312C20.1944 24 21.1406 23.0537 21.1406 21.8906V5.39077C21.1406 5.2043 21.0666 5.02542 20.9347 4.89356ZM16.4531 2.40061L18.74 4.6875H16.4531V2.40061ZM19.0312 22.5938H4.96875C4.58105 22.5938 4.26562 22.2783 4.26562 21.8906V2.10938C4.26562 1.72167 4.58105 1.40625 4.96875 1.40625H15.0469V5.39062C15.0469 5.77894 15.3617 6.09375 15.75 6.09375H19.7344V21.8906C19.7344 22.2783 19.419 22.5938 19.0312 22.5938Z" fill="#0E0E0E"/>
<path d="M16.3681 14.995H14.6775L12.8121 11.7642L13.6574 10.3001C14.0033 9.70097 14.0033 8.98561 13.6574 8.3865C13.3115 7.78739 12.692 7.42969 12.0002 7.42969C11.3084 7.42969 10.6889 7.78734 10.343 8.3865C9.99704 8.98561 9.99708 9.70097 10.343 10.3001L11.1883 11.7642L9.32297 14.995H7.63243C6.94065 14.995 6.32115 15.3526 5.97526 15.9517C5.62932 16.5509 5.62937 17.2662 5.97526 17.8653C6.3211 18.4644 6.9406 18.822 7.63238 18.8221H7.63243C8.32421 18.8221 8.94376 18.4644 9.28965 17.8653L10.1349 16.4012H13.8655L14.7108 17.8653C15.0568 18.4644 15.6763 18.8221 16.3681 18.8221C17.0598 18.8221 17.6793 18.4644 18.0252 17.8653C18.3711 17.2662 18.3711 16.5509 18.0252 15.9517C17.6793 15.3526 17.0598 14.995 16.3681 14.995ZM8.07179 17.1622C7.9396 17.3911 7.72051 17.4158 7.63243 17.4158C7.54435 17.4158 7.32526 17.3911 7.19311 17.1622C7.06093 16.9333 7.1491 16.7311 7.19311 16.6549C7.23713 16.5786 7.36805 16.4012 7.63243 16.4012H8.51115L8.07179 17.1622ZM11.5609 9.08963C11.6049 9.01336 11.7359 8.83594 12.0002 8.83594C12.2646 8.83594 12.3956 9.01331 12.4396 9.08963C12.4836 9.16589 12.5718 9.36797 12.4396 9.59695L12.0002 10.3579L11.5609 9.59695C11.4287 9.36797 11.5169 9.16589 11.5609 9.08963ZM10.9468 14.995L12.0002 13.1704L13.0537 14.995H10.9468ZM16.8074 17.1622C16.6752 17.3911 16.4561 17.4158 16.3681 17.4158C16.28 17.4158 16.0609 17.3911 15.9287 17.1622L15.4893 16.4012H16.3681C16.6324 16.4012 16.7633 16.5786 16.8074 16.6549C16.8514 16.7311 16.9396 16.9333 16.8074 17.1622Z" fill="#F5CB00"/>
</svg>
