<svg width="26" height="24" viewBox="0 0 26 24" fill="none" xmlns="http://www.w3.org/2000/svg">
<path d="M13.6016 19.7783C13.6016 20.2638 13.2081 20.6572 12.7227 20.6572C12.2372 20.6572 11.8438 20.2638 11.8438 19.7783C11.8438 19.2929 12.2372 18.8994 12.7227 18.8994C13.2081 18.8994 13.6016 19.2929 13.6016 19.7783ZM20.1494 3.38672V20.6133C20.1494 22.0673 18.9667 23.25 17.5127 23.25H7.93262C6.47871 23.25 5.2959 22.0673 5.2959 20.6133V3.38672C5.2959 1.93268 6.47871 0.75 7.93262 0.75H17.5127C18.9667 0.75 20.1494 1.93268 20.1494 3.38672ZM7.05371 3.38672V16.2188H18.3916V3.38672C18.3916 2.90208 17.9973 2.50781 17.5127 2.50781H7.93262C7.44812 2.50781 7.05371 2.90208 7.05371 3.38672ZM18.3916 20.6133V17.9766H7.05371V20.6133C7.05371 21.0979 7.44812 21.4922 7.93262 21.4922H17.5127C17.9973 21.4922 18.3916 21.0979 18.3916 20.6133Z" fill="#464646"/>
</svg>
