<svg width="24" height="24" viewBox="0 0 24 24" fill="none" xmlns="http://www.w3.org/2000/svg">
<path d="M16.6667 11.3327H12.6667V7.33268C12.6667 7.15587 12.5965 6.9863 12.4715 6.86128C12.3465 6.73625 12.1769 6.66602 12.0001 6.66602C11.8233 6.66602 11.6537 6.73625 11.5287 6.86128C11.4037 6.9863 11.3334 7.15587 11.3334 7.33268V11.3327H7.33341C7.1566 11.3327 6.98703 11.4029 6.86201 11.5279C6.73699 11.653 6.66675 11.8225 6.66675 11.9993C6.66675 12.1762 6.73699 12.3457 6.86201 12.4708C6.98703 12.5958 7.1566 12.666 7.33341 12.666H11.3334V16.666C11.3334 16.8428 11.4037 17.0124 11.5287 17.1374C11.6537 17.2624 11.8233 17.3327 12.0001 17.3327C12.1769 17.3327 12.3465 17.2624 12.4715 17.1374C12.5965 17.0124 12.6667 16.8428 12.6667 16.666V12.666H16.6667C16.8436 12.666 17.0131 12.5958 17.1382 12.4708C17.2632 12.3457 17.3334 12.1762 17.3334 11.9993C17.3334 11.8225 17.2632 11.653 17.1382 11.5279C17.0131 11.4029 16.8436 11.3327 16.6667 11.3327Z" fill="#F5CB00"/>
<rect x="1" y="1" width="22" height="22" rx="1" stroke="url(#paint0_linear_343_1473)" stroke-width="2"/>
<defs>
<linearGradient id="paint0_linear_343_1473" x1="12.0342" y1="-1.13597" x2="12.0342" y2="15.5403" gradientUnits="userSpaceOnUse">
<stop stop-color="#212121"/>
<stop offset="0.3441" stop-color="#1B1B1B"/>
<stop offset="0.8239" stop-color="#080808"/>
<stop offset="1"/>
</linearGradient>
</defs>
</svg>
