<svg width="25" height="25" viewBox="0 0 25 25" fill="none" xmlns="http://www.w3.org/2000/svg">
<g clip-path="url(#clip0_253_2937)">
<path d="M22.9434 10.4663C22.372 9.12206 22.2473 7.71656 22.5722 6.28855C22.8194 5.2025 23.248 4.50835 23.251 4.50359L23.5485 4.03521L20.4692 0.871094L20.0373 1.03686C19.2037 1.35649 17.983 1.53981 16.688 1.53981C15.457 1.53981 14.2755 1.37076 13.4461 1.07583L13.2108 0.992214L12.9757 1.07583C12.1464 1.37076 10.9648 1.53981 9.73386 1.53981C8.43886 1.53981 7.21815 1.35649 6.38459 1.03686L5.9528 0.871094L2.87358 4.03521L3.17089 4.50359C3.1879 4.53048 4.85723 7.22256 3.47863 10.4663C2.93322 11.7496 1.8168 15.0419 3.22413 17.8904C4.13417 19.7323 5.8959 20.9997 8.46027 21.6576L8.49394 21.6653C9.37178 21.8449 11.8231 22.5929 12.6127 23.8784L13.211 24.8521L13.8091 23.8784C14.5957 22.598 17.0495 21.8466 17.9281 21.6653L17.9618 21.6576C20.5261 20.9997 22.2879 19.7323 23.1979 17.8904C24.6052 15.0419 23.4886 11.7496 22.9434 10.4663ZM21.939 17.2686C21.2203 18.7235 19.7698 19.7411 17.6281 20.2936C17.3521 20.352 14.7126 20.9409 13.211 22.4061C11.7093 20.9409 9.06971 20.352 8.79399 20.2936C6.65226 19.7411 5.20175 18.7235 4.48289 17.2686C3.33317 14.9415 4.30122 12.1204 4.77087 11.0155C6.07374 7.94947 5.13442 5.31356 4.62432 4.24927L6.32695 2.49981C7.27213 2.7876 8.461 2.94385 9.73386 2.94385C11.0303 2.94385 12.253 2.77919 13.2108 2.47749C14.1688 2.779 15.3915 2.94385 16.688 2.94385C17.9609 2.94385 19.1497 2.7876 20.0951 2.49981L21.7975 4.24927C21.2874 5.31356 20.3481 7.94965 21.6512 11.0155C22.1208 12.1204 23.0889 14.9415 21.939 17.2686Z" fill="#0E0E0E"/>
<path d="M13.2108 5.25586L11.214 9.30185L6.74902 9.95044L9.97992 13.0997L9.21734 17.5468L13.2108 15.4471L17.2043 17.5468L16.4417 13.0997L19.6724 9.95044L15.2076 9.30185L13.2108 5.25586ZM14.933 12.6096L15.3396 14.9802L13.2108 13.861L11.0821 14.9802L11.4886 12.6096L9.76641 10.9309L12.1464 10.5849L13.2108 8.42839L14.2753 10.5849L16.6552 10.9309L14.933 12.6096Z" fill="#F5CB00"/>
</g>
<defs>
<clipPath id="clip0_253_2937">
<rect width="23.981" height="24" fill="white" transform="translate(0.899414 0.251953)"/>
</clipPath>
</defs>
</svg>
