<svg width="40" height="41" viewBox="0 0 40 41" fill="none" xmlns="http://www.w3.org/2000/svg">
<rect y="0.791016" width="40" height="40" rx="4" fill="#F5CB00"/>
<g clip-path="url(#clip0_127_90)">
<path d="M20 30.791C14.477 30.791 10 26.314 10 20.791C10 15.268 14.477 10.791 20 10.791C25.523 10.791 30 15.268 30 20.791C30 26.314 25.523 30.791 20 30.791ZM20 28.791C22.1217 28.791 24.1566 27.9482 25.6569 26.4479C27.1571 24.9476 28 22.9127 28 20.791C28 18.6693 27.1571 16.6345 25.6569 15.1342C24.1566 13.6339 22.1217 12.791 20 12.791C17.8783 12.791 15.8434 13.6339 14.3431 15.1342C12.8429 16.6345 12 18.6693 12 20.791C12 22.9127 12.8429 24.9476 14.3431 26.4479C15.8434 27.9482 17.8783 28.791 20 28.791ZM19 23.791H21V25.791H19V23.791ZM21 22.146V22.791H19V21.291C19 21.0258 19.1054 20.7714 19.2929 20.5839C19.4804 20.3964 19.7348 20.291 20 20.291C20.2841 20.291 20.5623 20.2103 20.8023 20.0583C21.0423 19.9064 21.2343 19.6894 21.3558 19.4326C21.4773 19.1758 21.5234 18.8898 21.4887 18.6079C21.454 18.3259 21.34 18.0596 21.1598 17.8399C20.9797 17.6203 20.7409 17.4562 20.4712 17.367C20.2015 17.2777 19.912 17.2669 19.6364 17.3357C19.3608 17.4046 19.1104 17.5502 18.9144 17.7558C18.7183 17.9614 18.5847 18.2184 18.529 18.497L16.567 18.104C16.6886 17.4961 16.9695 16.9314 17.3809 16.4676C17.7923 16.0038 18.3195 15.6576 18.9086 15.4643C19.4977 15.2711 20.1275 15.2377 20.7337 15.3676C21.3399 15.4976 21.9007 15.7861 22.3588 16.2038C22.8169 16.6216 23.1559 17.1534 23.3411 17.7451C23.5263 18.3367 23.5511 18.967 23.4129 19.5713C23.2747 20.1757 22.9785 20.7325 22.5545 21.1849C22.1306 21.6372 21.5941 21.9689 21 22.146Z" fill="white"/>
</g>
<defs>
<clipPath id="clip0_127_90">
<rect width="24" height="24" fill="white" transform="translate(8 8.79102)"/>
</clipPath>
</defs>
</svg>
