<svg width="75" height="73" viewBox="0 0 75 73" fill="none" xmlns="http://www.w3.org/2000/svg">
<mask id="path-1-outside-1_1048_485" maskUnits="userSpaceOnUse" x="0.421875" y="0.796875" width="74" height="72" fill="black">
<rect fill="white" x="0.421875" y="0.796875" width="74" height="72"/>
<path d="M0.421875 4.79688C0.421875 2.58774 2.21274 0.796875 4.42188 0.796875H68.4219C70.631 0.796875 72.4219 2.58774 72.4219 4.79688V68.7969C72.4219 71.006 70.631 72.7969 68.4219 72.7969H4.42188C2.21274 72.7969 0.421875 71.006 0.421875 68.7969V4.79688Z"/>
</mask>
<path d="M0.421875 4.79688C0.421875 2.58774 2.21274 0.796875 4.42188 0.796875H68.4219C70.631 0.796875 72.4219 2.58774 72.4219 4.79688V68.7969C72.4219 71.006 70.631 72.7969 68.4219 72.7969H4.42188C2.21274 72.7969 0.421875 71.006 0.421875 68.7969V4.79688Z" fill="#F0F0F0"/>
<g clip-path="url(#clip0_1048_485)">
<path d="M52.2654 47.7826C53.6791 45.8577 54.4219 43.6209 54.4219 41.2634C54.4219 37.4896 52.4648 33.986 49.1631 31.7995C48.8585 28.4373 47.2886 25.3191 44.6637 22.9166C41.7611 20.26 37.9102 18.7969 33.8203 18.7969C29.7305 18.7969 25.8796 20.26 22.977 22.9167C20.0396 25.6051 18.4219 29.1895 18.4219 33.0095C18.4219 35.9477 19.3691 38.7334 21.1697 41.1168L18.5244 47.6604C18.3099 48.191 18.4384 48.7987 18.8494 49.1971C19.1172 49.4567 19.4701 49.5938 19.8285 49.5938C20.02 49.5937 20.2131 49.5546 20.3954 49.4742L27.94 46.1485C28.8872 46.5105 29.863 46.7813 30.8613 46.9606C31.8839 48.6424 33.3424 50.0665 35.1156 51.1032C37.0951 52.2605 39.3808 52.8789 41.7318 52.8967C41.7663 52.8992 41.8008 52.902 41.836 52.902C43.4614 52.902 45.0363 52.6212 46.5261 52.0666L52.4484 54.6773C52.6308 54.7578 52.8239 54.7969 53.0153 54.7969C53.3737 54.7969 53.7267 54.6599 53.9945 54.4002C54.4055 54.0018 54.5339 53.3941 54.3194 52.8635L52.2654 47.7826ZM49.3516 48.0789L50.4139 50.7069L47.1207 49.2552C46.7647 49.0983 46.3596 49.0958 46.0016 49.2485C44.7109 49.7992 43.3287 50.0814 41.8929 50.0888C41.8739 50.088 41.8552 50.0859 41.8359 50.0859C39.0646 50.0859 36.4465 49.0029 34.6174 47.2015C36.9365 47.0904 39.2097 46.4981 41.2364 45.4689C41.9289 45.1172 42.2051 44.2708 41.8534 43.5783C41.5017 42.8858 40.6553 42.6097 39.9627 42.9613C38.0971 43.9089 35.973 44.4097 33.8203 44.4097C31.9497 44.4097 30.1488 44.046 28.4679 43.3288C28.1101 43.1761 27.7048 43.1784 27.3488 43.3355L22.4299 45.5038L24.086 41.407C24.2824 40.9212 24.1925 40.3665 23.8525 39.9677C22.1398 37.9583 21.2344 35.5522 21.2344 33.0095C21.2344 26.7234 26.8804 21.6094 33.8203 21.6094C40.7602 21.6094 46.4062 26.7234 46.4062 33.0095C46.4062 35.0399 45.8094 37.0331 44.6799 38.7737C44.2572 39.4252 44.4427 40.296 45.0943 40.7187C45.7457 41.1416 46.6165 40.956 47.0394 40.3044C48.0416 38.7597 48.7112 37.0543 49.0209 35.2829C50.6682 36.8962 51.6094 39.0211 51.6094 41.2634C51.6094 43.227 50.9094 45.086 49.5851 46.6396C49.2451 47.0384 49.1552 47.5932 49.3516 48.0789ZM35.1563 40.2421C35.1563 41.0188 34.5267 41.6484 33.75 41.6484C32.9733 41.6484 32.3438 41.0188 32.3438 40.2421C32.3438 39.4655 32.9733 38.8359 33.75 38.8359C34.5267 38.8359 35.1563 39.4655 35.1563 40.2421ZM39.0926 29.706C39.0934 29.7255 39.0938 29.7451 39.0938 29.7648C39.0943 31.8817 37.8365 33.7868 35.8895 34.6179C35.4866 34.79 35.2262 35.1958 35.2262 35.6516V35.7422C35.2262 36.5188 34.5966 37.1484 33.8199 37.1484C33.0432 37.1484 32.4137 36.5188 32.4137 35.7422V35.6517C32.4137 34.0675 33.3445 32.6464 34.7852 32.0314C35.6819 31.6486 36.2655 30.778 36.281 29.8058C36.2806 29.7923 36.2804 29.7788 36.2804 29.7652C36.2804 28.4085 35.1767 27.3047 33.8199 27.3047C32.4632 27.3047 31.3594 28.4084 31.3594 29.7651C31.3594 30.5418 30.7298 31.1714 29.9531 31.1714C29.1765 31.1714 28.5469 30.5418 28.5469 29.7651C28.5469 26.8576 30.9124 24.4922 33.8199 24.4922C36.7077 24.4922 39.0609 26.8256 39.0926 29.706Z" fill="#464646"/>
</g>
<path d="M0.421875 0.796875H72.4219H0.421875ZM72.4219 72.7969H0.421875H72.4219ZM0.421875 72.7969V0.796875V72.7969ZM68.4219 0.796875C71.7356 0.796875 74.4219 3.48317 74.4219 6.79688V66.7969C74.4219 70.1106 71.7356 72.7969 68.4219 72.7969C69.5264 72.7969 70.4219 71.006 70.4219 68.7969V4.79688C70.4219 2.58774 69.5264 0.796875 68.4219 0.796875Z" fill="#F5CB00" mask="url(#path-1-outside-1_1048_485)"/>
<defs>
<clipPath id="clip0_1048_485">
<rect width="36" height="36" fill="white" transform="translate(18.4219 18.7969)"/>
</clipPath>
</defs>
</svg>
