<svg width="74" height="72" viewBox="0 0 74 72" fill="none" xmlns="http://www.w3.org/2000/svg">
<mask id="path-1-outside-1_330_4093" maskUnits="userSpaceOnUse" x="0" y="0" width="74" height="72" fill="black">
<rect fill="white" width="74" height="72"/>
<path d="M0 4C0 1.79086 1.79086 0 4 0H68C70.2091 0 72 1.79086 72 4V68C72 70.2091 70.2091 72 68 72H4C1.79086 72 0 70.2091 0 68V4Z"/>
</mask>
<path d="M0 4C0 1.79086 1.79086 0 4 0H68C70.2091 0 72 1.79086 72 4V68C72 70.2091 70.2091 72 68 72H4C1.79086 72 0 70.2091 0 68V4Z" fill="#F0F0F0"/>
<g clip-path="url(#clip0_330_4093)">
<path d="M51.8435 46.9857C53.2573 45.0608 54 42.8241 54 40.4666C54 36.6928 52.0429 33.1891 48.7412 31.0027C48.4367 27.6404 46.8667 24.5222 44.2418 22.1197C41.3393 19.4631 37.4883 18 33.3985 18C29.3086 18 25.4577 19.4631 22.5551 22.1198C19.6177 24.8082 18 28.3926 18 32.2127C18 35.1509 18.9472 37.9365 20.7478 40.32L18.1026 46.8635C17.888 47.3942 18.0165 48.0019 18.4275 48.4002C18.6954 48.6598 19.0482 48.7969 19.4066 48.7969C19.5981 48.7968 19.7912 48.7577 19.9736 48.6774L27.5182 45.3516C28.4653 45.7136 29.4411 45.9845 30.4394 46.1638C31.462 47.8455 32.9205 49.2697 34.6937 50.3063C36.6733 51.4636 38.9589 52.082 41.3099 52.0998C41.3445 52.1023 41.3789 52.1051 41.4141 52.1051C43.0395 52.1051 44.6144 51.8243 46.1042 51.2698L52.0265 53.8805C52.2089 53.9609 52.402 54 52.5934 54C52.9518 54 53.3048 53.863 53.5726 53.6033C53.9836 53.2049 54.1121 52.5972 53.8975 52.0666L51.8435 46.9857ZM48.9297 47.2821L49.992 49.91L46.6988 48.4583C46.3428 48.3014 45.9377 48.2989 45.5797 48.4517C44.289 49.0023 42.9069 49.2846 41.471 49.2919C41.452 49.2911 41.4333 49.289 41.4141 49.289C38.6428 49.289 36.0246 48.206 34.1955 46.4046C36.5146 46.2935 38.7878 45.7012 40.8145 44.672C41.507 44.3203 41.7832 43.4739 41.4315 42.7814C41.0799 42.0889 40.2334 41.8128 39.5409 42.1644C37.6752 43.112 35.5511 43.6128 33.3985 43.6128C31.5279 43.6128 29.727 43.2492 28.046 42.5319C27.6882 42.3792 27.2829 42.3815 26.9269 42.5386L22.008 44.707L23.6641 40.6101C23.8605 40.1243 23.7706 39.5696 23.4306 39.1708C21.7179 37.1615 20.8125 34.7554 20.8125 32.2127C20.8125 25.9265 26.4586 20.8125 33.3985 20.8125C40.3384 20.8125 45.9844 25.9265 45.9844 32.2127C45.9844 34.243 45.3875 36.2362 44.2581 37.9768C43.8353 38.6283 44.0208 39.4991 44.6724 39.9218C45.3238 40.3447 46.1947 40.1591 46.6175 39.5076C47.6198 37.9629 48.2893 36.2574 48.599 34.4861C50.2464 36.0993 51.1875 38.2242 51.1875 40.4666C51.1875 42.4301 50.4875 44.2892 49.1632 45.8427C48.8232 46.2415 48.7333 46.7963 48.9297 47.2821ZM34.7344 39.4453C34.7344 40.2219 34.1048 40.8515 33.3281 40.8515C32.5515 40.8515 31.9219 40.2219 31.9219 39.4453C31.9219 38.6686 32.5515 38.039 33.3281 38.039C34.1048 38.039 34.7344 38.6686 34.7344 39.4453ZM38.6707 28.9091C38.6715 28.9286 38.672 28.9482 38.672 28.968C38.6724 31.0848 37.4146 32.9899 35.4676 33.8211C35.0647 33.9931 34.8043 34.3989 34.8043 34.8547V34.9453C34.8043 35.7219 34.1747 36.3515 33.398 36.3515C32.6214 36.3515 31.9918 35.7219 31.9918 34.9453V34.8548C31.9918 33.2706 32.9227 31.8496 34.3634 31.2345C35.26 30.8517 35.8436 29.9812 35.8591 29.0089C35.8588 28.9954 35.8585 28.9819 35.8585 28.9683C35.8585 27.6116 34.7548 26.5079 33.398 26.5079C32.0414 26.5078 30.9375 27.6116 30.9375 28.9682C30.9375 29.7449 30.3079 30.3745 29.5313 30.3745C28.7546 30.3745 28.125 29.7449 28.125 28.9682C28.125 26.0607 30.4905 23.6953 33.398 23.6953C36.2858 23.6953 38.639 26.0288 38.6707 28.9091Z" fill="#464646"/>
</g>
<path d="M0 0H72H0ZM72 72H0H72ZM0 72V0V72ZM68 0C71.3137 0 74 2.68629 74 6V66C74 69.3137 71.3137 72 68 72C69.1046 72 70 70.2091 70 68V4C70 1.79086 69.1046 0 68 0Z" fill="#F5CB00" mask="url(#path-1-outside-1_330_4093)"/>
<defs>
<clipPath id="clip0_330_4093">
<rect width="36" height="36" fill="white" transform="translate(18 18)"/>
</clipPath>
</defs>
</svg>
