<svg width="24" height="24" viewBox="0 0 24 24" fill="none" xmlns="http://www.w3.org/2000/svg">
<path d="M0.552887 11.5105L23.4452 11.5105C23.7175 11.5105 23.9375 11.7305 23.9375 12.0028C23.9375 12.2751 23.7175 12.4951 23.4452 12.4951L1.74212 12.4951L4.72981 15.4828C4.92212 15.6751 4.92212 15.9874 4.72981 16.1797C4.5375 16.3721 4.22519 16.3721 4.03288 16.1797L0.203655 12.3505C0.0621166 12.209 0.0205784 11.9982 0.0975018 11.8136C0.174425 11.6305 0.354425 11.5105 0.552887 11.5105Z" fill="#F5CB00"/>
<path d="M4.38698 7.67672C4.51314 7.67672 4.63929 7.72441 4.73468 7.82134C4.92698 8.01365 4.92698 8.32595 4.73468 8.51826L0.900828 12.3521C0.708521 12.5444 0.396214 12.5444 0.203907 12.3521C0.0115991 12.1598 0.0115991 11.8475 0.203907 11.6552L4.03775 7.82134C4.13467 7.72441 4.26083 7.67672 4.38698 7.67672Z" fill="#F5CB00"/>
</svg>
