<svg width="40" height="41" viewBox="0 0 40 41" fill="none" xmlns="http://www.w3.org/2000/svg">
<rect y="0.791016" width="40" height="40" rx="4" fill="#F5CB00"/>
<path d="M18.9746 10.7639C14.0159 10.7639 9.97656 14.8032 9.97656 19.762C9.97656 24.7207 14.0159 28.7679 18.9746 28.7679C21.0926 28.7679 23.0406 28.0256 24.5801 26.7932L28.3281 30.5393C28.5173 30.7206 28.7699 30.8207 29.0319 30.818C29.2939 30.8153 29.5444 30.7101 29.7298 30.525C29.9152 30.3399 30.0207 30.0895 30.0238 29.8275C30.0268 29.5655 29.9271 29.3128 29.7461 29.1234L25.998 25.3753C27.2315 23.8334 27.9746 21.8824 27.9746 19.762C27.9746 14.8032 23.9333 10.7639 18.9746 10.7639ZM18.9746 12.7639C22.8524 12.7639 25.9727 15.8841 25.9727 19.762C25.9727 23.6398 22.8524 26.7679 18.9746 26.7679C15.0968 26.7679 11.9766 23.6398 11.9766 19.762C11.9766 15.8841 15.0968 12.7639 18.9746 12.7639Z" fill="white"/>
</svg>
