<svg width="25" height="25" viewBox="0 0 25 25" fill="none" xmlns="http://www.w3.org/2000/svg">
<path d="M18.5049 23.2515C17.0574 23.2515 15.8799 22.074 15.8799 20.6265V10.7767C14.4811 9.88499 13.6299 8.35124 13.6299 6.67199C13.6299 4.83449 14.6484 3.17249 16.2879 2.33324C16.5211 2.21474 16.7986 2.22449 17.0214 2.36099C17.2441 2.49824 17.3799 2.73974 17.3799 3.00149V6.24374L18.5049 6.69374L19.6299 6.24374V3.00149C19.6299 2.73974 19.7656 2.49824 19.9884 2.36099C20.2111 2.22449 20.4886 2.21474 20.7219 2.33324C22.3614 3.17324 23.3799 4.83449 23.3799 6.67274C23.3799 8.35124 22.5286 9.88499 21.1299 10.7775V20.6265C21.1299 22.074 19.9524 23.2515 18.5049 23.2515ZM15.8799 4.55099C15.4021 5.13974 15.1299 5.88224 15.1299 6.67199C15.1299 7.94249 15.8356 9.09374 16.9719 9.67574C17.2224 9.80399 17.3799 10.062 17.3799 10.3432V20.6265C17.3799 21.2467 17.8846 21.7515 18.5049 21.7515C19.1251 21.7515 19.6299 21.2467 19.6299 20.6265V10.3432C19.6299 10.062 19.7874 9.80399 20.0379 9.67574C21.1741 9.09374 21.8799 7.94324 21.8799 6.67274C21.8799 5.88299 21.6076 5.14049 21.1299 4.55174V6.75149C21.1299 7.05824 20.9431 7.33349 20.6589 7.44824L18.7839 8.19824C18.6046 8.27024 18.4059 8.27024 18.2266 8.19824L16.3516 7.44824C16.0666 7.33349 15.8799 7.05824 15.8799 6.75149V4.55099Z" fill="#0E0E0E"/>
<path d="M13.6854 23.252H12.0751C11.2959 23.252 10.6389 22.6437 10.5796 21.8675L10.4851 20.6412C9.97063 20.4852 9.47263 20.2782 8.99638 20.0232L8.06188 20.8235C7.47013 21.3312 6.57613 21.296 6.02563 20.7462L4.88563 19.6055C4.33513 19.055 4.30063 18.1602 4.80763 17.5685L5.60788 16.6347C5.35288 16.1585 5.14588 15.6605 4.98988 15.146L3.76438 15.0522C2.98813 14.9937 2.37988 14.3367 2.37988 13.5575V11.9465C2.37988 11.1672 2.98813 10.5102 3.76513 10.451L4.99063 10.3572C5.14663 9.84195 5.35363 9.34395 5.60863 8.86845L4.80763 7.9332C4.30063 7.3422 4.33513 6.4482 4.88638 5.8962L6.02488 4.75695C6.57613 4.2057 7.47088 4.17195 8.06188 4.67895L8.99638 5.4792C9.47263 5.2242 9.97063 5.0172 10.4851 4.8612L10.5796 3.63495C10.6389 2.8602 11.2959 2.25195 12.0744 2.25195H12.8799C13.2939 2.25195 13.6299 2.5872 13.6299 3.00195C13.6299 3.4167 13.2939 3.75195 12.8799 3.75195H12.0744L11.9394 5.5077C11.9139 5.8347 11.6791 6.10695 11.3604 6.18045C10.6351 6.3477 9.94513 6.63345 9.30988 7.0317C9.03313 7.20645 8.67388 7.1802 8.42413 6.96495L7.08538 5.8182L5.94688 6.9582L7.09363 8.2962C7.30738 8.5452 7.33363 8.90445 7.15963 9.18195C6.76213 9.81795 6.47563 10.508 6.30838 11.2325C6.23488 11.552 5.96188 11.7867 5.63488 11.8115L3.87988 11.9465V13.5575L5.63488 13.6925C5.96188 13.7172 6.23488 13.9527 6.30838 14.2715C6.47563 14.9967 6.76138 15.6867 7.15963 16.322C7.33363 16.5995 7.30663 16.9587 7.09363 17.2077L5.94688 18.5457L7.08613 19.6857L8.42413 18.539C8.67388 18.3245 9.03313 18.2982 9.30988 18.4722C9.94588 18.8697 10.6359 19.1562 11.3604 19.3235C11.6799 19.3977 11.9146 19.67 11.9394 19.9962L12.0744 21.752H13.6846C13.7161 21.3395 14.0754 21.0312 14.4901 21.062C14.9034 21.0935 15.2124 21.4542 15.1801 21.8675C15.1209 22.6437 14.4639 23.252 13.6854 23.252Z" fill="#0E0E0E"/>
<path d="M7.62988 12.7513C7.62988 10.1758 9.47038 7.99852 12.0061 7.57402C12.4134 7.50127 12.8019 7.78102 12.8694 8.18977C12.9376 8.59852 12.6624 8.98477 12.2536 9.05302C10.4439 9.35677 9.12988 10.9123 9.12988 12.7513C9.12988 15.341 11.7024 17.147 14.1301 16.2883C14.5186 16.1495 14.9491 16.3535 15.0879 16.7443C15.2259 17.135 15.0219 17.5633 14.6311 17.7013C11.2164 18.9095 7.62988 16.3633 7.62988 12.7513Z" fill="#F5CB00"/>
</svg>
