<svg width="23" height="25" viewBox="0 0 23 25" fill="none" xmlns="http://www.w3.org/2000/svg">
<path d="M21.3438 11.5116C21.3438 3.59759 21.3659 4.10177 21.2921 3.91971C21.45 3.52957 21.2326 3.09415 20.8338 2.9802L10.99 0.167695C10.8638 0.131602 10.73 0.131602 10.6038 0.167695L0.76 2.9802C0.458078 3.0664 0.25 3.3423 0.25 3.65627C0.25 3.97024 0.458078 4.2461 0.759953 4.33235L4.46875 5.39196C4.46875 5.42379 4.46875 5.45318 4.46875 5.4806C4.46875 5.71887 4.46875 5.79724 4.46875 5.79593C4.46875 6.18359 4.46875 6.99495 4.46875 8.5781C4.46875 11.3099 5.87819 13.6826 7.93141 14.8461L7.54352 15.6219C5.64587 15.7305 3.87283 16.539 2.51083 17.9261C1.05292 19.4109 0.25 21.3682 0.25 23.4375C0.25 23.8258 0.564812 24.1406 0.953125 24.1406H20.6406C21.0289 24.1406 21.3438 23.8258 21.3438 23.4375C21.3438 21.3682 20.5408 19.411 19.0829 17.9262C17.721 16.5392 15.948 15.7312 14.0505 15.6225L13.6623 14.8462C15.7156 13.6826 17.125 11.3099 17.125 8.57815C17.125 8.40476 17.125 5.43907 17.125 5.39201L19.9375 4.58843V11.5116C19.1191 11.8018 18.5312 12.5834 18.5312 13.5V14.9063C18.5312 15.2946 18.8461 15.6094 19.2344 15.6094H22.0469C22.4352 15.6094 22.75 15.2946 22.75 14.9063V13.5C22.75 12.5834 22.1621 11.8018 21.3438 11.5116ZM10.0938 22.7344H1.69394C2.02689 19.645 4.528 17.2079 7.61556 17.0269L10.0938 20.7442V22.7344ZM8.79573 16.262L9.23102 15.3914C9.73197 15.5336 10.2566 15.6094 10.7969 15.6094C11.3372 15.6094 11.8617 15.5336 12.3627 15.3914L12.798 16.262L10.7969 19.2637L8.79573 16.262ZM13.9782 17.0269C17.0658 17.2078 19.5669 19.645 19.8998 22.7344H11.5V20.7442L13.9782 17.0269ZM10.7969 14.2031C8.4115 14.2031 6.4173 12.2537 5.96931 9.67563C7.45422 10.3381 9.11397 10.6875 10.7969 10.6875C12.4797 10.6875 14.1394 10.3382 15.6244 9.67577C15.1764 12.2537 13.1822 14.2031 10.7969 14.2031ZM15.7034 7.78446C15.6625 7.98762 15.5421 8.1588 15.3735 8.24159C13.9892 8.92174 12.4066 9.28123 10.7969 9.28123C9.187 9.28123 7.60441 8.92165 6.22014 8.2414C5.99083 8.12876 5.875 7.86794 5.875 7.63057V5.79373C10.9779 7.25168 10.6562 7.17185 10.7969 7.17185C10.9375 7.17185 10.6149 7.25201 15.7188 5.79373C15.7188 7.81202 15.7243 7.68129 15.7034 7.78446ZM10.7969 5.73752L3.51255 3.65627L10.7969 1.57498L18.0812 3.65623L10.7969 5.73752ZM21.3438 14.2031H19.9375V13.5C19.9375 13.1123 20.2529 12.7969 20.6406 12.7969C21.0283 12.7969 21.3438 13.1123 21.3438 13.5V14.2031Z" fill="#0E0E0E"/>
</svg>
