<svg width="139" height="44" viewBox="0 0 139 44" fill="none" xmlns="http://www.w3.org/2000/svg">
<rect x="0.25" width="138" height="44" rx="8" fill="#F5CB00"/>
<path d="M28.246 26.896V28H27.734C27.542 28 27.3287 27.9413 27.094 27.824C26.8593 27.7067 26.6407 27.552 26.438 27.36V28H21.286C20.102 28 19.51 28.7307 19.51 30.192C19.51 30.864 19.654 31.8667 19.942 33.2L18.902 33.232C18.5713 31.696 18.406 30.5333 18.406 29.744C18.406 28.9653 18.534 28.368 18.79 27.952C19.0567 27.5253 19.3927 27.232 19.798 27.072C19.6273 26.176 19.542 25.184 19.542 24.096C19.542 23.3813 19.5847 22.6773 19.67 21.984C19.7553 21.28 19.8513 20.7093 19.958 20.272C20.214 20.1653 20.5873 20.0693 21.078 19.984C21.5687 19.888 22.086 19.84 22.63 19.84C23.9313 19.84 24.8913 20.16 25.51 20.8C26.1287 21.44 26.438 22.5067 26.438 24V26.272C26.79 26.688 27.222 26.896 27.734 26.896H28.246ZM25.206 26.896V23.984C25.206 22.896 24.9767 22.1173 24.518 21.648C24.0593 21.1787 23.3607 20.944 22.422 20.944C21.8993 20.944 21.4353 20.9973 21.03 21.104C20.8593 22.032 20.774 23.0293 20.774 24.096C20.774 24.6187 20.7953 25.1413 20.838 25.664C20.8913 26.176 20.9447 26.5867 20.998 26.896H25.206ZM33.482 26.896V28H28.25V26.896H30.218V16.512H31.45V26.896H33.482ZM41.9164 26.896V28H33.4844V26.896H36.4764C36.1777 26.5547 35.927 26.096 35.7244 25.52C35.5217 24.944 35.4204 24.304 35.4204 23.6C35.4204 22.48 35.7084 21.5733 36.2844 20.88C36.871 20.1867 37.7084 19.84 38.7964 19.84C39.2124 19.84 39.655 19.8987 40.1244 20.016C40.6044 20.1227 41.0417 20.2773 41.4364 20.48L41.3884 21.568C41.2284 21.4507 40.887 21.3173 40.3644 21.168C39.8417 21.0187 39.367 20.944 38.9404 20.944C38.2044 20.944 37.639 21.1893 37.2444 21.68C36.8497 22.1707 36.6524 22.8373 36.6524 23.68C36.6524 24.3733 36.775 25.0027 37.0204 25.568C37.2764 26.1227 37.591 26.5653 37.9644 26.896H41.9164ZM59.2023 26.896V28H50.9143C49.8903 28 49.0796 27.9147 48.4823 27.744C47.8849 27.5733 47.4476 27.3013 47.1703 26.928C46.9036 26.5547 46.7703 26.0427 46.7703 25.392C46.7703 24.5813 46.9356 23.3707 47.2663 21.76L48.2263 21.808L48.0663 23.088C48.0556 23.2053 48.0183 23.504 47.9543 23.984C47.9009 24.4533 47.8743 24.8267 47.8743 25.104C47.8743 25.5627 47.9649 25.92 48.1463 26.176C48.3383 26.432 48.6476 26.6187 49.0743 26.736C49.5116 26.8427 50.1196 26.896 50.8983 26.896H55.6343V20H56.8663V26.896H59.2023ZM51.5223 29.28H52.7383V30.624H51.5223V29.28ZM62.4031 16.512V28H59.2031V26.896H61.1711V16.512H62.4031ZM68.0198 26.896V28H65.2838V16.512H66.5158V26.896H68.0198ZM75.4236 19.84C76.0316 19.84 76.6023 19.9787 77.1356 20.256C77.6796 20.5333 78.1223 20.9867 78.4636 21.616C78.8156 22.2347 78.9916 23.024 78.9916 23.984V28H68.0156V26.896H69.5196V16.512H70.7516V23.52C71.413 22.4107 72.1116 21.52 72.8476 20.848C73.5836 20.176 74.4423 19.84 75.4236 19.84ZM75.1836 20.944C74.4263 20.944 73.7063 21.2693 73.0236 21.92C72.3516 22.56 71.8023 23.3173 71.3756 24.192C70.9596 25.056 70.7516 25.76 70.7516 26.304V26.896H77.7596V23.968C77.7596 23.264 77.6263 22.688 77.3596 22.24C77.1036 21.7813 76.7783 21.4507 76.3836 21.248C75.989 21.0453 75.589 20.944 75.1836 20.944Z" fill="#0E0E0E"/>
<g clip-path="url(#clip0_387_6753)">
<path d="M118.594 21.371C118.594 13.457 118.616 13.9611 118.542 13.7791C118.7 13.3889 118.483 12.9535 118.084 12.8396L108.24 10.0271C108.114 9.99098 107.98 9.99098 107.854 10.0271L98.01 12.8396C97.7081 12.9258 97.5 13.2017 97.5 13.5156C97.5 13.8296 97.7081 14.1055 98.01 14.1917L101.719 15.2513C101.719 15.2832 101.719 15.3126 101.719 15.34C101.719 15.5782 101.719 15.6566 101.719 15.6553C101.719 16.043 101.719 16.8543 101.719 18.4375C101.719 21.1693 103.128 23.542 105.181 24.7055L104.794 25.4813C102.896 25.5899 101.123 26.3984 99.7608 27.7855C98.3029 29.2703 97.5 31.2276 97.5 33.2969C97.5 33.6852 97.8148 34 98.2031 34H117.891C118.279 34 118.594 33.6852 118.594 33.2969C118.594 31.2276 117.791 29.2703 116.333 27.7856C114.971 26.3985 113.198 25.5906 111.3 25.4819L110.912 24.7056C112.966 23.542 114.375 21.1693 114.375 18.4375C114.375 18.2641 114.375 15.2984 114.375 15.2514L117.188 14.4478V21.371C116.369 21.6612 115.781 22.4428 115.781 23.3594V24.7656C115.781 25.154 116.096 25.4688 116.484 25.4688H119.297C119.685 25.4688 120 25.154 120 24.7656V23.3594C120 22.4428 119.412 21.6612 118.594 21.371ZM107.344 32.5938H98.9439C99.2769 29.5044 101.778 27.0673 104.866 26.8862L107.344 30.6036V32.5938ZM106.046 26.1214L106.481 25.2508C106.982 25.393 107.507 25.4688 108.047 25.4688C108.587 25.4688 109.112 25.393 109.613 25.2508L110.048 26.1214L108.047 29.1231L106.046 26.1214ZM111.228 26.8863C114.316 27.0672 116.817 29.5044 117.15 32.5938H108.75V30.6036L111.228 26.8863ZM108.047 24.0625C105.661 24.0625 103.667 22.113 103.219 19.535C104.704 20.1975 106.364 20.5469 108.047 20.5469C109.73 20.5469 111.389 20.1975 112.874 19.5351C112.426 22.1131 110.432 24.0625 108.047 24.0625ZM112.953 17.6438C112.912 17.847 112.792 18.0182 112.624 18.101C111.239 18.7811 109.657 19.1406 108.047 19.1406C106.437 19.1406 104.854 18.781 103.47 18.1008C103.241 17.9881 103.125 17.7273 103.125 17.4899V15.6531C108.228 17.1111 107.906 17.0312 108.047 17.0312C108.188 17.0312 107.865 17.1114 112.969 15.6531C112.969 17.6714 112.974 17.5407 112.953 17.6438ZM108.047 15.5969L100.763 13.5156L108.047 11.4344L115.331 13.5156L108.047 15.5969ZM118.594 24.0625H117.188V23.3594C117.188 22.9717 117.503 22.6563 117.891 22.6563C118.278 22.6563 118.594 22.9717 118.594 23.3594V24.0625Z" fill="#0E0E0E"/>
<path d="M113.672 29.6875H112.266C111.877 29.6875 111.562 30.0023 111.562 30.3906C111.562 30.7789 111.877 31.0938 112.266 31.0938H113.672C114.06 31.0938 114.375 30.7789 114.375 30.3906C114.375 30.0023 114.06 29.6875 113.672 29.6875Z" fill="#0E0E0E"/>
</g>
<defs>
<clipPath id="clip0_387_6753">
<rect width="24" height="24" fill="white" transform="translate(96.75 10)"/>
</clipPath>
</defs>
</svg>
