<svg width="139" height="45" viewBox="0 0 139 45" fill="none" xmlns="http://www.w3.org/2000/svg">
<rect x="0.25" y="0.5" width="138" height="44" rx="8" fill="#F5CB00"/>
<path d="M28.246 27.396V28.5H27.734C27.542 28.5 27.3287 28.4413 27.094 28.324C26.8593 28.2067 26.6407 28.052 26.438 27.86V28.5H21.286C20.102 28.5 19.51 29.2307 19.51 30.692C19.51 31.364 19.654 32.3667 19.942 33.7L18.902 33.732C18.5713 32.196 18.406 31.0333 18.406 30.244C18.406 29.4653 18.534 28.868 18.79 28.452C19.0567 28.0253 19.3927 27.732 19.798 27.572C19.6273 26.676 19.542 25.684 19.542 24.596C19.542 23.8813 19.5847 23.1773 19.67 22.484C19.7553 21.78 19.8513 21.2093 19.958 20.772C20.214 20.6653 20.5873 20.5693 21.078 20.484C21.5687 20.388 22.086 20.34 22.63 20.34C23.9313 20.34 24.8913 20.66 25.51 21.3C26.1287 21.94 26.438 23.0067 26.438 24.5V26.772C26.79 27.188 27.222 27.396 27.734 27.396H28.246ZM25.206 27.396V24.484C25.206 23.396 24.9767 22.6173 24.518 22.148C24.0593 21.6787 23.3607 21.444 22.422 21.444C21.8993 21.444 21.4353 21.4973 21.03 21.604C20.8593 22.532 20.774 23.5293 20.774 24.596C20.774 25.1187 20.7953 25.6413 20.838 26.164C20.8913 26.676 20.9447 27.0867 20.998 27.396H25.206ZM33.482 27.396V28.5H28.25V27.396H30.218V17.012H31.45V27.396H33.482ZM41.9164 27.396V28.5H33.4844V27.396H36.4764C36.1777 27.0547 35.927 26.596 35.7244 26.02C35.5217 25.444 35.4204 24.804 35.4204 24.1C35.4204 22.98 35.7084 22.0733 36.2844 21.38C36.871 20.6867 37.7084 20.34 38.7964 20.34C39.2124 20.34 39.655 20.3987 40.1244 20.516C40.6044 20.6227 41.0417 20.7773 41.4364 20.98L41.3884 22.068C41.2284 21.9507 40.887 21.8173 40.3644 21.668C39.8417 21.5187 39.367 21.444 38.9404 21.444C38.2044 21.444 37.639 21.6893 37.2444 22.18C36.8497 22.6707 36.6524 23.3373 36.6524 24.18C36.6524 24.8733 36.775 25.5027 37.0204 26.068C37.2764 26.6227 37.591 27.0653 37.9644 27.396H41.9164ZM59.2023 27.396V28.5H50.9143C49.8903 28.5 49.0796 28.4147 48.4823 28.244C47.8849 28.0733 47.4476 27.8013 47.1703 27.428C46.9036 27.0547 46.7703 26.5427 46.7703 25.892C46.7703 25.0813 46.9356 23.8707 47.2663 22.26L48.2263 22.308L48.0663 23.588C48.0556 23.7053 48.0183 24.004 47.9543 24.484C47.9009 24.9533 47.8743 25.3267 47.8743 25.604C47.8743 26.0627 47.9649 26.42 48.1463 26.676C48.3383 26.932 48.6476 27.1187 49.0743 27.236C49.5116 27.3427 50.1196 27.396 50.8983 27.396H55.6343V20.5H56.8663V27.396H59.2023ZM51.5223 29.78H52.7383V31.124H51.5223V29.78ZM62.4031 17.012V28.5H59.2031V27.396H61.1711V17.012H62.4031ZM68.0198 27.396V28.5H65.2838V17.012H66.5158V27.396H68.0198ZM75.4236 20.34C76.0316 20.34 76.6023 20.4787 77.1356 20.756C77.6796 21.0333 78.1223 21.4867 78.4636 22.116C78.8156 22.7347 78.9916 23.524 78.9916 24.484V28.5H68.0156V27.396H69.5196V17.012H70.7516V24.02C71.413 22.9107 72.1116 22.02 72.8476 21.348C73.5836 20.676 74.4423 20.34 75.4236 20.34ZM75.1836 21.444C74.4263 21.444 73.7063 21.7693 73.0236 22.42C72.3516 23.06 71.8023 23.8173 71.3756 24.692C70.9596 25.556 70.7516 26.26 70.7516 26.804V27.396H77.7596V24.468C77.7596 23.764 77.6263 23.188 77.3596 22.74C77.1036 22.2813 76.7783 21.9507 76.3836 21.748C75.989 21.5453 75.589 21.444 75.1836 21.444Z" fill="#0E0E0E"/>
<g clip-path="url(#clip0_387_6783)">
<path d="M118.594 21.871C118.594 13.957 118.616 14.4611 118.542 14.2791C118.7 13.8889 118.483 13.4535 118.084 13.3396L108.24 10.5271C108.114 10.491 107.98 10.491 107.854 10.5271L98.01 13.3396C97.7081 13.4258 97.5 13.7017 97.5 14.0156C97.5 14.3296 97.7081 14.6055 98.01 14.6917L101.719 15.7513C101.719 15.7832 101.719 15.8126 101.719 15.84C101.719 16.0782 101.719 16.1566 101.719 16.1553C101.719 16.543 101.719 17.3543 101.719 18.9375C101.719 21.6693 103.128 24.042 105.181 25.2055L104.794 25.9813C102.896 26.0899 101.123 26.8984 99.7608 28.2855C98.3029 29.7703 97.5 31.7276 97.5 33.7969C97.5 34.1852 97.8148 34.5 98.2031 34.5H117.891C118.279 34.5 118.594 34.1852 118.594 33.7969C118.594 31.7276 117.791 29.7703 116.333 28.2856C114.971 26.8985 113.198 26.0906 111.3 25.9819L110.912 25.2056C112.966 24.042 114.375 21.6693 114.375 18.9375C114.375 18.7641 114.375 15.7984 114.375 15.7514L117.188 14.9478V21.871C116.369 22.1612 115.781 22.9428 115.781 23.8594V25.2656C115.781 25.654 116.096 25.9688 116.484 25.9688H119.297C119.685 25.9688 120 25.654 120 25.2656V23.8594C120 22.9428 119.412 22.1612 118.594 21.871ZM107.344 33.0938H98.9439C99.2769 30.0044 101.778 27.5673 104.866 27.3862L107.344 31.1036V33.0938ZM106.046 26.6214L106.481 25.7508C106.982 25.893 107.507 25.9688 108.047 25.9688C108.587 25.9688 109.112 25.893 109.613 25.7508L110.048 26.6214L108.047 29.6231L106.046 26.6214ZM111.228 27.3863C114.316 27.5672 116.817 30.0044 117.15 33.0938H108.75V31.1036L111.228 27.3863ZM108.047 24.5625C105.661 24.5625 103.667 22.613 103.219 20.035C104.704 20.6975 106.364 21.0469 108.047 21.0469C109.73 21.0469 111.389 20.6975 112.874 20.0351C112.426 22.6131 110.432 24.5625 108.047 24.5625ZM112.953 18.1438C112.912 18.347 112.792 18.5182 112.624 18.601C111.239 19.2811 109.657 19.6406 108.047 19.6406C106.437 19.6406 104.854 19.281 103.47 18.6008C103.241 18.4881 103.125 18.2273 103.125 17.9899V16.1531C108.228 17.6111 107.906 17.5312 108.047 17.5312C108.188 17.5312 107.865 17.6114 112.969 16.1531C112.969 18.1714 112.974 18.0407 112.953 18.1438ZM108.047 16.0969L100.763 14.0156L108.047 11.9344L115.331 14.0156L108.047 16.0969ZM118.594 24.5625H117.188V23.8594C117.188 23.4717 117.503 23.1563 117.891 23.1563C118.278 23.1563 118.594 23.4717 118.594 23.8594V24.5625Z" fill="#0E0E0E"/>
<path d="M113.672 30.1875H112.266C111.877 30.1875 111.562 30.5023 111.562 30.8906C111.562 31.2789 111.877 31.5938 112.266 31.5938H113.672C114.06 31.5938 114.375 31.2789 114.375 30.8906C114.375 30.5023 114.06 30.1875 113.672 30.1875Z" fill="#0E0E0E"/>
</g>
<defs>
<clipPath id="clip0_387_6783">
<rect width="24" height="24" fill="white" transform="translate(96.75 10.5)"/>
</clipPath>
</defs>
</svg>
