<svg width="16" height="24" viewBox="0 0 16 24" fill="none" xmlns="http://www.w3.org/2000/svg">
<path d="M8.60156 19.7783C8.60156 20.2638 8.20811 20.6572 7.72266 20.6572C7.2372 20.6572 6.84375 20.2638 6.84375 19.7783C6.84375 19.2929 7.2372 18.8994 7.72266 18.8994C8.20811 18.8994 8.60156 19.2929 8.60156 19.7783ZM15.1494 3.38672V20.6133C15.1494 22.0673 13.9667 23.25 12.5127 23.25H2.93262C1.47871 23.25 0.295898 22.0673 0.295898 20.6133V3.38672C0.295898 1.93268 1.47871 0.75 2.93262 0.75H12.5127C13.9667 0.75 15.1494 1.93268 15.1494 3.38672ZM2.05371 3.38672V16.2188H13.3916V3.38672C13.3916 2.90208 12.9973 2.50781 12.5127 2.50781H2.93262C2.44812 2.50781 2.05371 2.90208 2.05371 3.38672ZM13.3916 20.6133V17.9766H2.05371V20.6133C2.05371 21.0979 2.44812 21.4922 2.93262 21.4922H12.5127C12.9973 21.4922 13.3916 21.0979 13.3916 20.6133Z" fill="#464646"/>
</svg>
