<svg width="21" height="21" viewBox="0 0 21 21" fill="none" xmlns="http://www.w3.org/2000/svg">
<path d="M3.25977 16.9999H7.49977C7.63137 17.0007 7.76183 16.9755 7.88367 16.9257C8.00551 16.8759 8.11633 16.8026 8.20977 16.7099L15.1298 9.77994L17.9698 6.99994C18.0635 6.90698 18.1379 6.79637 18.1887 6.67452C18.2394 6.55266 18.2656 6.42195 18.2656 6.28994C18.2656 6.15793 18.2394 6.02722 18.1887 5.90536C18.1379 5.7835 18.0635 5.6729 17.9698 5.57994L13.7298 1.28994C13.6368 1.19621 13.5262 1.12182 13.4043 1.07105C13.2825 1.02028 13.1518 0.994141 13.0198 0.994141C12.8878 0.994141 12.757 1.02028 12.6352 1.07105C12.5133 1.12182 12.4027 1.19621 12.3098 1.28994L9.48977 4.11994L2.54977 11.0499C2.45708 11.1434 2.38376 11.2542 2.33399 11.376C2.28423 11.4979 2.259 11.6283 2.25977 11.7599V15.9999C2.25977 16.2652 2.36512 16.5195 2.55266 16.707C2.7402 16.8946 2.99455 16.9999 3.25977 16.9999ZM13.0198 3.40994L15.8498 6.23994L14.4298 7.65994L11.5998 4.82994L13.0198 3.40994ZM4.25977 12.1699L10.1898 6.23994L13.0198 9.06994L7.08977 14.9999H4.25977V12.1699ZM19.2598 18.9999H1.25977C0.994549 18.9999 0.740195 19.1053 0.552659 19.2928C0.365122 19.4804 0.259766 19.7347 0.259766 19.9999C0.259766 20.2652 0.365122 20.5195 0.552659 20.707C0.740195 20.8946 0.994549 20.9999 1.25977 20.9999H19.2598C19.525 20.9999 19.7793 20.8946 19.9669 20.707C20.1544 20.5195 20.2598 20.2652 20.2598 19.9999C20.2598 19.7347 20.1544 19.4804 19.9669 19.2928C19.7793 19.1053 19.525 18.9999 19.2598 18.9999Z" fill="#464646"/>
</svg>
