<svg width="17" height="20" viewBox="0 0 17 20" fill="none" xmlns="http://www.w3.org/2000/svg">
<path d="M16.2598 6.94C16.2493 6.84813 16.2292 6.75763 16.1998 6.67V6.58C16.1517 6.47718 16.0875 6.38267 16.0098 6.3L10.0098 0.3C9.9271 0.222216 9.83259 0.158081 9.72977 0.11H9.63977L9.31977 0H3.25977C2.46412 0 1.70105 0.316071 1.13845 0.87868C0.575836 1.44129 0.259766 2.20435 0.259766 3V17C0.259766 17.7956 0.575836 18.5587 1.13845 19.1213C1.70105 19.6839 2.46412 20 3.25977 20H13.2598C14.0554 20 14.8185 19.6839 15.3811 19.1213C15.9437 18.5587 16.2598 17.7956 16.2598 17V7C16.2598 7 16.2598 7 16.2598 6.94ZM10.2598 3.41L12.8498 6H10.2598V3.41ZM14.2598 17C14.2598 17.2652 14.1544 17.5196 13.9669 17.7071C13.7793 17.8946 13.525 18 13.2598 18H3.25977C2.99455 18 2.7402 17.8946 2.55266 17.7071C2.36512 17.5196 2.25977 17.2652 2.25977 17V3C2.25977 2.73478 2.36512 2.48043 2.55266 2.29289C2.7402 2.10536 2.99455 2 3.25977 2H8.25977V7C8.25977 7.26522 8.36512 7.51957 8.55266 7.70711C8.7402 7.89464 8.99455 8 9.25977 8H14.2598V17Z" fill="#464646"/>
</svg>
