<svg width="25" height="24" viewBox="0 0 25 24" fill="none" xmlns="http://www.w3.org/2000/svg">
<path d="M12.5 24C19.1075 24 24.5 18.6071 24.5 12C24.5 5.3925 19.1071 0 12.5 0C5.89255 0 0.5 5.39292 0.5 12C0.5 18.6075 5.89292 24 12.5 24ZM16.06 21.9777C16.7399 21.1088 17.2611 20.0725 17.6525 19.0308H20.4166C19.2454 20.3484 17.7515 21.3723 16.06 21.9777ZM21.473 17.625H18.1071C18.5221 16.1162 18.7655 14.4433 18.8172 12.7031H23.0698C22.9513 14.5026 22.3817 16.1805 21.473 17.625ZM21.473 6.375C22.3817 7.81945 22.9513 9.49744 23.0698 11.2969H18.8172C18.7655 9.55669 18.5221 7.88381 18.1071 6.375H21.473ZM20.4165 4.96875H17.6525C17.2612 3.92789 16.7401 2.89144 16.06 2.02233C17.7515 2.62772 19.2454 3.65156 20.4165 4.96875ZM13.2031 1.52653C14.5829 1.9942 15.5728 3.6352 16.139 4.96875H13.2031V1.52653ZM13.2031 6.375H16.645C17.0921 7.85522 17.3551 9.53452 17.4105 11.2969H13.2031V6.375ZM13.2031 12.7027H17.4105C17.3551 14.4655 17.0921 16.1448 16.645 17.625H13.2031V12.7027ZM13.2031 19.0308H16.139C15.5719 20.367 14.5818 22.0062 13.2031 22.4735V19.0308ZM4.58347 19.0312H7.3475C7.73881 20.0721 8.25992 21.1086 8.94003 21.9777C7.24845 21.3723 5.75464 20.3484 4.58347 19.0312ZM11.7969 22.4735C10.4182 22.0062 9.42823 20.3672 8.86105 19.0312H11.7969V22.4735ZM11.7969 17.625H8.35498C7.90789 16.1448 7.64488 14.4655 7.58952 12.7031H11.7969V17.625ZM11.7969 11.2969H7.58952C7.64488 9.53452 7.90789 7.85522 8.35498 6.375H11.7969V11.2969ZM11.7969 1.52653V4.96875H8.86105C9.42819 3.63291 10.4181 1.99383 11.7969 1.52653ZM8.93998 2.02233C8.26006 2.89116 7.73895 3.92742 7.34745 4.96875H4.58347C5.75464 3.65156 7.24845 2.62767 8.93998 2.02233ZM3.52705 6.37453H6.89286C6.47792 7.88381 6.2345 9.55669 6.18275 11.2969H1.93016C2.04866 9.49744 2.61828 7.81945 3.52705 6.37453ZM1.93016 12.7031H6.18275C6.2345 14.4433 6.47792 16.1162 6.89286 17.625H3.52705C2.61828 16.1805 2.04866 14.5026 1.93016 12.7031Z" fill="#464646"/>
</svg>
