<svg width="40" height="41" viewBox="0 0 40 41" fill="none" xmlns="http://www.w3.org/2000/svg">
<rect y="0.644531" width="40" height="40" rx="8" fill="#0E0E0E"/>
<path d="M20 32.6445C26.6075 32.6445 32 27.2516 32 20.6445C32 14.037 26.6071 8.64453 20 8.64453C13.3925 8.64453 8 14.0375 8 20.6445C8 27.252 13.3929 32.6445 20 32.6445ZM23.56 30.6222C24.2399 29.7534 24.7611 28.7171 25.1525 27.6753H27.9166C26.7454 28.993 25.2515 30.0168 23.56 30.6222ZM28.973 26.2695H25.6071C26.0221 24.7607 26.2655 23.0878 26.3172 21.3477H30.5698C30.4513 23.1471 29.8817 24.8251 28.973 26.2695ZM28.973 15.0195C29.8817 16.464 30.4513 18.142 30.5698 19.9414H26.3172C26.2655 18.2012 26.0221 16.5283 25.6071 15.0195H28.973ZM27.9165 13.6133H25.1525C24.7612 12.5724 24.2401 11.536 23.56 10.6669C25.2515 11.2723 26.7454 12.2961 27.9165 13.6133ZM20.7031 10.1711C22.0829 10.6387 23.0728 12.2797 23.639 13.6133H20.7031V10.1711ZM20.7031 15.0195H24.145C24.5921 16.4998 24.8551 18.179 24.9105 19.9414H20.7031V15.0195ZM20.7031 21.3472H24.9105C24.8551 23.11 24.5921 24.7893 24.145 26.2695H20.7031V21.3472ZM20.7031 27.6753H23.639C23.0719 29.0116 22.0818 30.6507 20.7031 31.118V27.6753ZM12.0835 27.6758H14.8475C15.2388 28.7166 15.7599 29.7531 16.44 30.6222C14.7485 30.0169 13.2546 28.993 12.0835 27.6758ZM19.2969 31.118C17.9182 30.6507 16.9282 29.0118 16.361 27.6758H19.2969V31.118ZM19.2969 26.2695H15.855C15.4079 24.7893 15.1449 23.11 15.0895 21.3477H19.2969V26.2695ZM19.2969 19.9414H15.0895C15.1449 18.179 15.4079 16.4998 15.855 15.0195H19.2969V19.9414ZM19.2969 10.1711V13.6133H16.361C16.9282 12.2774 17.9181 10.6384 19.2969 10.1711ZM16.44 10.6669C15.7601 11.5357 15.239 12.572 14.8475 13.6133H12.0835C13.2546 12.2961 14.7485 11.2722 16.44 10.6669ZM11.027 15.0191H14.3929C13.9779 16.5283 13.7345 18.2012 13.6828 19.9414H9.43016C9.54866 18.142 10.1183 16.464 11.027 15.0191ZM9.43016 21.3477H13.6828C13.7345 23.0878 13.9779 24.7607 14.3929 26.2695H11.027C10.1183 24.8251 9.54866 23.1471 9.43016 21.3477Z" fill="white"/>
</svg>
