<svg width="14" height="15" viewBox="0 0 14 15" fill="none" xmlns="http://www.w3.org/2000/svg">
<path d="M8.17462 7.5L13.4246 2.25834C13.5815 2.10142 13.6697 1.88859 13.6697 1.66667C13.6697 1.44475 13.5815 1.23192 13.4246 1.075C13.2677 0.918082 13.0549 0.829926 12.833 0.829926C12.611 0.829926 12.3982 0.918082 12.2413 1.075L6.99962 6.325L1.75796 1.075C1.60104 0.918082 1.38821 0.829926 1.16629 0.829926C0.944372 0.829926 0.731543 0.918082 0.574624 1.075C0.417704 1.23192 0.329547 1.44475 0.329547 1.66667C0.329547 1.88859 0.417704 2.10142 0.574624 2.25834L5.82462 7.5L0.574624 12.7417C0.496517 12.8191 0.434522 12.9113 0.392214 13.0129C0.349907 13.1144 0.328125 13.2233 0.328125 13.3333C0.328125 13.4433 0.349907 13.5523 0.392214 13.6538C0.434522 13.7554 0.496517 13.8475 0.574624 13.925C0.652093 14.0031 0.74426 14.0651 0.84581 14.1074C0.947359 14.1497 1.05628 14.1715 1.16629 14.1715C1.2763 14.1715 1.38522 14.1497 1.48677 14.1074C1.58832 14.0651 1.68049 14.0031 1.75796 13.925L6.99962 8.675L12.2413 13.925C12.3188 14.0031 12.4109 14.0651 12.5125 14.1074C12.614 14.1497 12.7229 14.1715 12.833 14.1715C12.943 14.1715 13.0519 14.1497 13.1534 14.1074C13.255 14.0651 13.3472 14.0031 13.4246 13.925C13.5027 13.8475 13.5647 13.7554 13.607 13.6538C13.6493 13.5523 13.6711 13.4433 13.6711 13.3333C13.6711 13.2233 13.6493 13.1144 13.607 13.0129C13.5647 12.9113 13.5027 12.8191 13.4246 12.7417L8.17462 7.5Z" fill="white"/>
</svg>
