<svg width="25" height="24" viewBox="0 0 25 24" fill="none" xmlns="http://www.w3.org/2000/svg">
<g clip-path="url(#clip0_391_5653)">
<path d="M22.2656 4.26562H2.48438C1.32127 4.26562 0.375 5.21189 0.375 6.375V17.625C0.375 18.7881 1.32127 19.7344 2.48438 19.7344H22.2656C23.4287 19.7344 24.375 18.7881 24.375 17.625V6.375C24.375 5.21189 23.4287 4.26562 22.2656 4.26562ZM22.9688 17.625C22.9688 18.0127 22.6533 18.3281 22.2656 18.3281H2.48438C2.09667 18.3281 1.78125 18.0127 1.78125 17.625V6.375C1.78125 5.9873 2.09667 5.67188 2.48438 5.67188H22.2656C22.6533 5.67188 22.9688 5.9873 22.9688 6.375V17.625Z" fill="#464646"/>
<path d="M18.4688 8.95312H6.28125C5.89294 8.95312 5.57812 9.26794 5.57812 9.65625C5.57812 10.0446 5.89294 10.3594 6.28125 10.3594H18.4688C18.8571 10.3594 19.1719 10.0446 19.1719 9.65625C19.1719 9.26794 18.8571 8.95312 18.4688 8.95312Z" fill="#464646"/>
<path d="M10.9688 13.6406H10.0312C9.64294 13.6406 9.32812 13.9554 9.32812 14.3438C9.32812 14.7321 9.64294 15.0469 10.0312 15.0469H10.9688C11.3571 15.0469 11.6719 14.7321 11.6719 14.3438C11.6719 13.9554 11.3571 13.6406 10.9688 13.6406Z" fill="#464646"/>
<path d="M14.7188 13.6406H13.7812C13.3929 13.6406 13.0781 13.9554 13.0781 14.3438C13.0781 14.7321 13.3929 15.0469 13.7812 15.0469H14.7188C15.1071 15.0469 15.4219 14.7321 15.4219 14.3438C15.4219 13.9554 15.1071 13.6406 14.7188 13.6406Z" fill="#464646"/>
<path d="M18.4688 13.6406H17.5312C17.1429 13.6406 16.8281 13.9554 16.8281 14.3438C16.8281 14.7321 17.1429 15.0469 17.5312 15.0469H18.4688C18.8571 15.0469 19.1719 14.7321 19.1719 14.3438C19.1719 13.9554 18.8571 13.6406 18.4688 13.6406Z" fill="#464646"/>
<path d="M7.21875 13.6406H6.28125C5.89294 13.6406 5.57812 13.9554 5.57812 14.3438C5.57812 14.7321 5.89294 15.0469 6.28125 15.0469H7.21875C7.60706 15.0469 7.92188 14.7321 7.92188 14.3438C7.92188 13.9554 7.60706 13.6406 7.21875 13.6406Z" fill="#464646"/>
</g>
<defs>
<clipPath id="clip0_391_5653">
<rect width="24" height="24" fill="white" transform="translate(0.375)"/>
</clipPath>
</defs>
</svg>
